<?xml version="1.0" encoding="utf-8"?>
<!-- Generator: Adobe Illustrator 19.2.1, SVG Export Plug-In . SVG Version: 6.00 Build 0)  -->
<svg version="1.1" id="图层_1" xmlns="http://www.w3.org/2000/svg" xmlns:xlink="http://www.w3.org/1999/xlink" x="0px" y="0px"
	 viewBox="0 0 660 102.6" style="enable-background:new 0 0 660 102.6;" xml:space="preserve">
<style type="text/css">
	.st0{fill-rule:evenodd;clip-rule:evenodd;fill:#FFFFFF;}
	.st1{fill:#FFFFFF;}
</style>
<g>
	<path class="st0" d="M82.6,75.1c0,4.1,1.4,7.7,4.1,10.4l12.3,12.2V4.6H82.5L82.6,75.1z"/>
	<path class="st0" d="M59.9,4.6c10.5,0,18.8,9.1,18.7,19v28.2c0,15-12.1,27.4-27.1,27.4c-15,0-27.3-11.9-27.3-26.9
		c0-15,11.9-27.3,27.3-27.4c2.5,0,4.4,0.3,6.7,0.9l0.1,18c-2-1.8-4.4-2.5-7.6-2.5c-4.7,0.2-10.1,4.3-10.1,11c0,6.7,5.8,10.6,11,10.5
		c5.9,0,10.4-4.9,10.5-10.3V25.1c0,0-0.6-4-5.2-4l-28.3,0c-4,0-7.7-1.3-10.4-4L5.6,4.6H59.9z"/>
	<path class="st0" d="M4,80.3V6.5l12.2,12.2c2.7,2.7,4.4,6.4,4.4,10.5l-0.1,48.6c0,2.8,2.3,5.2,5.1,5.2l48.8,0c4.1,0,8,1.6,10.7,4.3
		l12.1,12.1H23.5C12.3,99.3,4,91.3,4,80.3z"/>
</g>
<g>
	<path class="st0" d="M243.6,20.7c-13.6,0-21.8,12.2-21.8,31c0,16.8,6.9,30.8,21.8,30.8c15.3,0,21.8-14.9,21.8-30.8
		C265.4,35.3,258.5,20.7,243.6,20.7L243.6,20.7z M243.6,86.3c-20.2,0-35.3-14.8-35.3-34.5c0-19.9,15.1-34.7,35.3-34.7
		c20.2,0,35.3,14.8,35.3,34.7C278.8,71.5,263.8,86.3,243.6,86.3L243.6,86.3z"/>
	<path class="st1" d="M327.4,52.3c-4.5-4-21.2-12-24.8-15.2c-2.3-2-3.6-4.5-3.6-6.9c0-4.9,5.4-9.5,11.9-9.5
		c7.3,0,14.9,6.2,17.8,13.5c0.1,0.2,0.4,1.2,1.4,1.2c0.9,0,1.3-0.7,1.3-1.5c0-0.8,0-14,0-15.4c0-0.9-0.3-1.5-1.1-1.5
		c-0.7,0-0.9,0.3-1.4,0.7c-1.2,1.1-2.6,1.8-3.7,1.8c-1.9,0-3.9-0.9-6.2-1.5c-2.2-0.6-4.7-0.9-7.5-0.9c-13.4,0-22.9,8.4-22.9,19.7
		c0,5.1,2.1,9.9,6.5,13.9C301.2,56.1,314,61,319.6,66c2.7,2.5,3.7,5.4,3.7,7.5c0,5.4-4.7,9.3-12.6,9.3c-6.9,0-12.2-2.9-15.7-7.6
		c-0.1-0.1-2.4-2.9-3.7-6.1c-0.1-0.2-0.3-1.2-1.4-1.2c-0.9,0-1.3,0.7-1.3,1.5c0,0.8,0,14,0,15.5c0,0.9,0.3,1.5,1.1,1.5
		c0.6,0,0.9-0.2,1.4-0.6c1.1-1,2.3-1.6,3.3-1.8c0.2,0,0.3,0,0.5,0c3.7,0,9.1,2.6,17.8,2.6c9,0,22.5-4.6,22.5-19
		C335.3,61.7,332.8,57.3,327.4,52.3z"/>
	<path class="st1" d="M198.2,69.4c-0.7-0.3-1.2,0.6-1.5,0.9c-6.5,6.7-12.6,9.7-20.2,9.7c-12.3,0-23.4-8.2-23.4-30.1
		c0-17.2,10.4-29.2,22.5-29.2c11,0,17.4,8.2,19.6,18.8c0,0,0.3,0.8,1.2,0.8c1.1,0,1.4-0.9,1.4-1.5c0-4.2,0-19.8,0-20.4
		c0-0.3,0-0.5-0.1-0.7c-0.1-0.5-0.5-0.8-1-0.8c-0.7,0-0.9,0.2-1.4,0.6c-1.2,1.1-2.6,1.7-3.7,1.8c-3.5,0.3-5.7-2.1-16.3-2.5
		c-9.7-0.3-17.3,3.1-21.2,5.4c-10,6-16.5,17.6-16.5,30.7c0,19.7,13.9,33.2,34.3,33.2c9.9,0,17.8-3.9,24.2-11.3
		C198.5,71.7,199.1,69.8,198.2,69.4z"/>
</g>
<g>
	<path class="st1" d="M427,75.1c-14.3-1.8-24.2-7.7-29.7-17.9h9.1v2.6c0.2,0.8,1.8,1,4.7,0.6c2-0.4,3-1.1,3.2-2.1V40.2
		c0.6-0.7,1.9-1.7,1.9-1.8c0.1-0.3,0-0.6-0.5-0.9c-2.7-1.4-4.7-2.4-6.1-3.1c-0.8-0.3-1.4-0.2-1.9,0.2c-0.5,0.5-1.1,1.1-1.9,2.3h-3.7
		v0h-7.6V29h10.9v0h18.8c0.4-0.3,0.6-0.8,0.2-1.3c-0.5-0.9-5.5-5.2-6.7-5.1c-1.3,0.1-4.7,4.3-4.9,4.6h-7.5l0,0h-10.9v-6.7
		c1.2-0.4,1.9-0.9,2.1-1.5v-1.2l-10-2v11.4h-24.7c-1,0-1.9-0.1-2.6-0.3l1.4,2.1c2.4,0,25.9,0,25.9,0v7.9h-11.4
		c-3.9-2.2-6.9-3.5-8.8-4.1c-0.2,0.2-0.2,0.9,0,2.1c0.4,1.4,0.7,3.1,0.9,5.3v21.1c1.4,2.8,4,2.8,7.9,0v-4.1h7.9
		c-6.3,9.6-14.8,17.4-25.6,23.5c-1,0.4-1.4,0.7-1.2,0.9c0,0.2,0.5,0.2,1.5,0c11-3.5,20.6-9.2,28.8-17v21.1c0,1.4,1,2.1,2.9,2.1
		c2.9-0.2,4.6-0.9,5-2.1V57.2h0.9c3.9,12.7,12.2,21.4,25,26.1c0-0.2,0.2-0.7,0.6-1.5c1.9-3.3,3.9-5.2,5.9-5.6
		c1.2-0.2,1.8-0.4,1.8-0.6C428.7,75.5,428.1,75.3,427,75.1z M386.7,55.3h-11.4v-7.2h11.4V55.3z M386.7,46.3h-11.4v-7.6h11.4V46.3z
		 M394.7,38.8h11.8v7.6h-11.8V38.8z M394.7,55.3v-7.2h11.8v7.2H394.7z"/>
	<g>
		<path class="st1" d="M457.2,16.6c2.1,0.7,3.1,3.5,2.6,7.6c-0.9,7,4.9,8.1,7.8,6.9c2.4-1,3.8-3.2,3.3-6.4
			c-0.7-4.9-5.5-8.1-13.5-9.1c-1-0.1-1.8-0.1-1.8,0.3C455.8,16.3,456.3,16.3,457.2,16.6z"/>
		<path class="st1" d="M494,26.9c-1.8,0.1-6.3,6-6.5,6.4h-46.1v0h-6.1c-1.1,0-2.2-0.1-3.1-0.3l1.6,2.5c0.8,0,24.9,0,24.9,0v2.9
			c0.4,24.3-8.2,39.9-25.8,47c-1,0.4-1.5,0.7-1.5,0.9c0,0.2,0.5,0.2,1.5,0c20.2-4.7,31.4-17.2,33.8-37.6h17v4.1
			c0.7,20.4-4.5,28.1-16.2,24.4c-1.4-0.4-3.4-0.6-0.2,0.6c3.8,1.4,6.3,3.1,7.4,6.1c0.4,1.2,1,2.3,1.8,2.4c9.8,0.9,15.2-11,16.2-34.7
			c-0.2-0.6,2.6-2.7,2.6-2.9c0.2-0.4,0-0.8-0.6-1.2c-3.3-1.8-5.9-3-7.6-3.8c-1-0.4-1.8-0.3-2.3,0.3c-0.6,0.6-1.4,1.3-2.3,2.9h-15.6
			c0.2-2.9,0.4-5.7,0.6-9c0.2-0.8,0.7-1.6,1.5-2.3h33.8c0.6-0.4,0.7-1,0.3-1.8C502.1,32.5,495.5,26.8,494,26.9z"/>
	</g>
	<g>
		<path class="st1" d="M515.2,77.4c-0.7-2.7-1-4.8-1-6.5c0-0.7,0.1-1,0.3-1c1.3,0,2.6-0.1,4.1-0.4c1.9-0.4,3.3-0.7,4.2-0.8V51.9
			h-6.1l-2-2.3h8.2V32.3H515l-2-2.3h20.3c0.4,0,1.2-0.7,2.3-2c1.2-1.4,2.1-2,2.7-2c0.3,0,0.6,0.1,1,0.4c1.1,1,1.8,1.7,2.1,2
			c0.8,0.8,1.3,1.6,1.6,2.2v-8c0-0.1,0.2-0.1,0.7-0.1c1,0,2.6,0.2,4.6,0.7c2,0.4,3.5,0.9,4.4,1.4c0,0.3-0.1,0.6-0.1,0.9
			c-0.7,0.5-1.5,1-2.2,1.5V40h6.9V19.1c2.2,0.1,3.8,0.3,5,0.4c3.4,0.4,5.2,0.9,5.3,1.4c0,0.2-0.5,0.7-1.7,1.3
			c-0.2,0.1-0.5,0.2-0.9,0.4V40h6.6V23.4c0.4-0.1,0.8-0.1,1.1-0.1c1.8,0,3.7,0.2,5.9,0.5c2.2,0.3,3.4,0.7,3.7,1.1
			c0.2,0.3,0,0.6-0.7,1c-0.7,0.4-1.4,0.8-2.2,1.2v15.3c0,0.8-0.3,1.4-0.9,2c1.1,0.9,2.1,1.8,3,2.7c1.2,1.3,1.8,2.2,1.8,2.9
			c0,0.7-0.7,1-2,1h-18.3c-0.6,0.3-1.1,0.6-1.7,0.9c-0.6,1.3-1.3,2.5-2.1,3.6c-0.8,1.2-1.6,2.2-2.6,3.1h15.8
			c0.7-0.7,1.5-1.3,2.3-1.8c1.1-0.7,1.8-1.1,2.3-1.1c0.9,0,2.1,0.5,3.7,1.4c1.6,0.9,2.4,1.8,2.4,2.6c0,0.7-0.3,1.4-1,2.2
			c-0.7,0.8-1,1.3-1,1.5v17.8c0,1.4-1,2.8-2.9,4.2c-1.9,1.4-3.7,2-5.3,2c-1.4,0-1.9-0.5-1.8-1.6c0.2-1.1,0.1-1.9-0.4-2.6
			c-0.4-0.6-1-1.2-1.8-1.7c-0.7,0.8-1.7,1.2-2.9,1.4c-0.7,0-1.4-0.2-2.2-0.7c-0.8-0.4-1.2-1.1-1.2-1.9V61.1h-2.5
			c-0.1,0.2-0.3,0.7-0.7,1.3c-0.4,0.6-0.6,1-0.6,1.3v15.5c0,0.9-0.4,1.7-1.1,2.6c-0.7,0.8-1.7,1.3-2.9,1.4c-0.7,0-1.4-0.2-2.2-0.7
			c-0.8-0.4-1.2-1.1-1.2-1.9V61.1h-3.4v23.2c0,1-0.4,1.8-1.2,2.5c-0.8,0.7-1.9,1-3.1,1c-0.8,0-1.5-0.3-2-0.8c-0.5-0.5-0.8-1.2-0.8-2
			V65.9c-0.7,1.2-3.5,3-8.2,5.4c-4.7,2.4-9.6,4.7-14.4,7.1 M575,45.6c-2.2,0-3.3-0.7-3.3-2.1v-1.2h-21.2v0.3c0,0.4-0.5,1-1.5,1.8
			c-1,0.8-1.7,1.2-2,1.2c-0.6-0.1-1.7-0.7-3.2-1.9c-1.5-1.2-2.3-2-2.3-2.6c0-0.4,0.3-0.9,0.8-1.5c0.6-0.6,0.8-0.9,0.8-1.1v-6.7
			c-0.3,0.3-0.9,0.5-1.9,0.5h-8.5l-1.6,1.6v14.7c0.5-0.5,1.1-1.1,1.8-1.7c0.7-0.6,1.3-0.9,1.9-0.9c0.3,0,0.6,0,0.9,0.1
			c0.3,0.1,0.7,0.4,1.1,0.7c0.9,0.8,1.7,1.6,2.2,2.3c0.5,0.7,0.8,1.2,0.8,1.7c0,0.7-0.9,1.1-2.6,1.1h-6v15c1.8-0.4,3.7-0.8,5.5-1.1
			c1.8-0.4,3.1-0.5,3.8-0.5c0.4,0,0.7,0.1,0.9,0.2v-9.4c0.7,0.1,1.7,0.4,3,0.9c1.3,0.5,2.5,1.1,3.4,1.7h5.8c0.2-0.5,0.3-1.1,0.4-1.8
			c0.1-0.7,0.1-1.3,0.1-1.9c0-0.6,0-1.2-0.1-1.7c-0.2-1.2-0.3-1.9-0.4-2.3h-12l-2-2.3H571c0.5,0,1.2-0.5,2.3-1.5
			C573.8,46.7,574.4,46.2,575,45.6z M570.2,79.9c0.4,0,0.8,0.1,1.1,0.2c0.3,0.1,0.7,0.1,1.2,0.1c0.3,0,0.7-0.1,1-0.3
			c0.3-0.2,0.5-0.6,0.6-1.1c0-0.1,0-0.4,0-0.7V61.1h-2.5c-0.1,0.2-0.3,0.6-0.7,1.2c-0.4,0.6-0.6,1.1-0.6,1.3v15.5L570.2,79.9z"/>
		<path class="st1" d="M610.7,48.9h-20.4l-2-2.3h53.4c0.6,0,1.7-0.9,3.4-2.7c1.7-1.8,2.9-2.7,3.7-2.7c0.3,0,0.6,0.1,0.9,0.3
			c1.3,1,2.4,2,3.4,3c1.5,1.5,2.2,2.7,2.2,3.4c0,0.7-0.6,1-1.8,1h-34.1c1.7,0.5,3,1,4,1.4c0.9,0.4,1.4,0.7,1.3,1
			c-0.2,0.5-0.9,0.9-2,1.2c-0.6,0.1-1.1,0.2-1.4,0.2c-0.7,1.2-1.3,2.2-1.8,3c-1.6,2.4-3.3,4.7-5.3,7c-1.8,2.1-3.9,4.1-6.3,6.1
			c-2,1.7-4,3.1-6,4.2l37.6-1.7c-1.4-2.6-3.3-5.5-5.7-8.8c-2.2-3-3.3-4.5-3.3-4.6c2.5,1.2,5.1,2.3,7.6,3.4
			c5.4,3.6,9.3,7.6,11.6,11.8c0.8,1.4,1.3,2.7,1.7,3.9c0.3,1.2,0.5,2.4,0.5,3.6c0,1.6-0.3,3-1,4.1c-0.7,1.1-1.5,1.8-2.6,2.1
			c-0.5,0.1-0.9,0.1-1.1,0.1c-1.6,0-2.8-0.9-3.8-2.8c-0.1-0.3-1.1-3.8-3-10.3l-38.3,10.3c-0.1,0-0.4,0.4-0.9,1.2
			c-0.5,0.8-1,1.3-1.5,1.4c-0.5,0.1-1.3-1.3-2.6-4.4c-1.2-3.1-2-5.4-2.2-6.9c0-0.5,0.2-1,0.8-1.3c0.6-0.3,1.2-0.6,1.9-0.8
			c1.3-1.6,2.6-3.1,3.9-4.7c2.2-3.1,4.4-6.8,6.4-11.2c0.6-1.5,1.2-3,1.8-4.5C609.8,51.6,610.2,50.3,610.7,48.9z M644.1,30h-46.3
			l-2-2.4h37.7c0.6,0,1.7-0.9,3.2-2.7c1.6-1.8,2.7-2.7,3.5-2.7c0.2,0,0.5,0.1,0.9,0.4c1.3,1.1,2.3,2.1,3.1,3.1
			c1.3,1.5,1.9,2.5,1.9,3.2C645.9,29.7,645.3,30,644.1,30z"/>
	</g>
	<path class="st1" d="M515.2,77.4c0,0,0.7,1.9,3.4,0.9L515.2,77.4z"/>
</g>
</svg>
