<?xml version="1.0" encoding="UTF-8"?>
<svg width="14px" height="34px" viewBox="0 0 14 34" version="1.1" xmlns="http://www.w3.org/2000/svg" xmlns:xlink="http://www.w3.org/1999/xlink">
    <!-- Generator: Sketch 56.2 (81672) - https://sketch.com -->
    <title>ic_left</title>
    <desc>Created with Sketch.</desc>
    <g id="页面1" stroke="none" stroke-width="1" fill="none" fill-rule="evenodd" fill-opacity="0.3">
        <g id="首页_核心企业备份" transform="translate(-213.000000, -99.000000)" fill="#000000" fill-rule="nonzero">
            <g id="ic_left" transform="translate(220.000000, 116.138889) scale(-1, 1) translate(-220.000000, -116.138889) translate(213.000000, 99.138889)">
                <path d="M5.73252625,33.3762302 L0.662551599,33.3762302 L0.662551599,0.421428442 L5.73252625,0.421428442 L5.73252592,0.421428442 C9.93260676,0.421428442 13.3374879,3.82627615 13.3374879,8.02639042 L13.3374879,25.7712683 L13.3374879,25.7712683 C13.3374879,29.9713491 9.93264018,33.3762302 5.73252592,33.3762302 C5.73252592,33.3762302 5.73252592,33.3762302 5.73252592,33.3762302 L5.73252625,33.3762302 Z M10.0091439,17.3745899 L10.0091439,17.3745899 C10.1256669,17.2447921 10.1835927,17.0727352 10.1692948,16.8988935 L10.1692948,16.8988934 C10.1838999,16.7248138 10.126601,16.5523443 10.0107298,16.4216124 L4.79235916,10.7354807 L4.79235918,10.7354808 C4.59641253,10.5147965 4.25866504,10.4947427 4.03798366,10.6906893 C4.02218063,10.7047209 4.00722394,10.7196776 3.99319223,10.7354808 L3.99319223,10.7354808 C3.77383746,10.9842002 3.77383746,11.3572836 3.99319223,11.6060022 L8.84845013,16.8989185 L3.99319223,22.1902461 L3.99319222,22.1902462 C3.77361001,22.4394836 3.77361001,22.8131151 3.99319224,23.0623563 L3.99319226,23.0623563 C4.18748619,23.2821647 4.52318211,23.3028486 4.74298967,23.1085546 C4.75932243,23.0941178 4.77475097,23.0786892 4.78918798,23.0623563 L10.0091473,17.3746359 L10.0091439,17.3745899 Z" id="形状"></path>
            </g>
        </g>
    </g>
</svg>