<svg id="图层_1" data-name="图层 1" xmlns="http://www.w3.org/2000/svg" viewBox="0 0 130.96 18.68"><defs><style>.cls-1{fill:#fff;fill-rule:evenodd;}</style></defs><title>logo-full</title><g id="分组"><g id="分组-2"><g id="分组-3"><path id="Fill-13" class="cls-1" d="M111.16,20.6s.19.55,1,.27Z" transform="translate(-0.98 -5.72)"/><path id="Fill-1" class="cls-1" d="M26.21,23.35a8.07,8.07,0,1,1,0-16.12,8.07,8.07,0,1,1,0,16.12m0-15.26C23,8.09,21,10.92,21,15.31c0,3.91,1.64,7.18,5.19,7.18s5.18-3.48,5.18-7.18-1.64-7.22-5.18-7.22" transform="translate(-0.98 -5.72)"/><path id="Fill-3" class="cls-1" d="M46.12,15.44c-1.06-.94-5-2.78-5.88-3.54a2.21,2.21,0,0,1-.86-1.61c0-1.15,1.27-2.2,2.84-2.2a5.06,5.06,0,0,1,4.23,3.14.36.36,0,0,0,.33.28.31.31,0,0,0,.32-.34V7.57c0-.21-.07-.36-.26-.36a.44.44,0,0,0-.34.17,1.47,1.47,0,0,1-.88.41,6.94,6.94,0,0,1-1.48-.35,6.9,6.9,0,0,0-1.78-.21c-3.19,0-5.44,2-5.44,4.59a4.24,4.24,0,0,0,1.54,3.23c1.45,1.28,4.5,2.4,5.83,3.57a2.41,2.41,0,0,1,.89,1.74c0,1.25-1.13,2.16-3,2.16a4.48,4.48,0,0,1-3.73-1.77,6.91,6.91,0,0,1-.89-1.42.36.36,0,0,0-.33-.28.31.31,0,0,0-.32.34V23c0,.21.08.35.27.35a.44.44,0,0,0,.33-.15,1.51,1.51,0,0,1,.79-.41h.12c.89,0,2.16.61,4.23.61S48,22.32,48,19a4.54,4.54,0,0,0-1.9-3.52" transform="translate(-0.98 -5.72)"/><path id="Fill-5" class="cls-1" d="M15.42,19.42c-.17-.06-.3.14-.36.21a6.46,6.46,0,0,1-4.8,2.26c-2.93,0-5.58-1.91-5.58-7,0-4,2.48-6.8,5.35-6.8,2.61,0,4.14,1.91,4.67,4.39a.31.31,0,0,0,.29.19.32.32,0,0,0,.33-.34V7.57a.68.68,0,0,0,0-.15.24.24,0,0,0-.25-.19.42.42,0,0,0-.34.15,1.6,1.6,0,0,1-.88.41c-.83.07-1.35-.5-3.88-.57a9.68,9.68,0,0,0-5,1.26A8.25,8.25,0,0,0,1,15.63c0,4.58,3.31,7.74,8.16,7.74a7.31,7.31,0,0,0,5.75-2.65c.62-.77.74-1.21.53-1.3" transform="translate(-0.98 -5.72)"/><path id="Fill-7" class="cls-1" d="M63,16h3.11V14.13H63Zm0-2.34h3.11v-2H63Zm-5.13,0h3v-2h-3Zm0,2.34h3V14.13h-3Zm13.68,5.12q-5.67-.67-7.85-4.64h2.41v.69c0,.2.47.25,1.24.15.52-.1.81-.28.86-.54v-4.7c.14-.17.5-.45.5-.48s0-.16-.13-.25c-.7-.36-1.24-.63-1.62-.79a.43.43,0,0,0-.49.06,2.91,2.91,0,0,0-.51.6H63V9.16h7.85C71,9.09,71,9,71,8.81a5.43,5.43,0,0,0-1.76-1.32c-.36,0-1.26,1.12-1.3,1.19H63V7c.31-.1.49-.23.55-.38v-.3l-2.65-.53V8.68H54.42a3,3,0,0,1-.7-.07l.36.55h6.86v2.06h-3a13.28,13.28,0,0,0-2.33-1.07s0,.23,0,.53a8.65,8.65,0,0,1,.24,1.37v5.48c.36.72,1.06.72,2.09,0V16.47H60a19,19,0,0,1-6.76,6.09c-.26.1-.36.18-.31.23s.13.05.39,0a19.59,19.59,0,0,0,7.61-4.42v5.48q0,.54.78.54,1.17-.08,1.32-.54V16.47h.23a10.13,10.13,0,0,0,6.61,6.77,1.44,1.44,0,0,1,.15-.38q.78-1.29,1.56-1.44c.3-.05.46-.1.46-.15S71.89,21.17,71.59,21.11Z" transform="translate(-0.98 -5.72)"/><path id="Fill-9" class="cls-1" d="M79.59,6c.55.17.83.92.7,2a1.52,1.52,0,0,0,2.08,1.8,1.43,1.43,0,0,0,.87-1.65c-.17-1.28-1.45-2.1-3.57-2.35-.25,0-.46,0-.46.07s.13.07.38.15" transform="translate(-0.98 -5.72)"/><path id="Fill-10" class="cls-1" d="M89.31,8.63c-.47,0-1.66,1.55-1.71,1.65H73.77A3.93,3.93,0,0,1,73,10.2l.42.64H80v.76q.17,9.44-6.83,12.18c-.26.1-.39.18-.39.23s.13,0,.39,0q8-1.83,8.93-9.75h4.51v1.07c.2,5.28-1.2,7.28-4.3,6.33-.37-.11-.89-.15-.06.15a2.88,2.88,0,0,1,2,1.59c.1.3.25.59.47.61,2.58.23,4-2.84,4.27-9,0-.15.7-.71.7-.76s0-.2-.16-.3c-.88-.46-1.55-.79-2-1a.55.55,0,0,0-.62.07,3.57,3.57,0,0,0-.62.74H82.08c0-.76.1-1.47.16-2.34a1.34,1.34,0,0,1,.38-.6h8.94a.32.32,0,0,0,.08-.46,7.12,7.12,0,0,0-2.33-1.75" transform="translate(-0.98 -5.72)"/><path id="Fill-11" class="cls-1" d="M109.48,22.36l.29.05.31,0a.42.42,0,0,0,.43-.36V17.48h-.66l-.19.32a.73.73,0,0,0-.16.34v4Zm1.26-8.9c-.58,0-.87-.18-.87-.55v-.3h-5.62v.08c0,.1-.14.26-.41.47s-.44.32-.52.3a2.56,2.56,0,0,1-.86-.49c-.4-.3-.6-.53-.6-.68a.6.6,0,0,1,.22-.39c.15-.14.22-.23.22-.27V9.89a.67.67,0,0,1-.5.13H99.54l-.43.42v3.82l.48-.45a.69.69,0,0,1,.72-.2,1.43,1.43,0,0,1,.29.19,5.24,5.24,0,0,1,.58.59.78.78,0,0,1,.21.44c0,.19-.23.28-.69.28H99.11V19l1.46-.29a5.94,5.94,0,0,1,1-.15.33.33,0,0,1,.23.06V16.19a3.42,3.42,0,0,1,.8.24,4.72,4.72,0,0,1,.9.44H105a2.44,2.44,0,0,0,.12-.45,4.57,4.57,0,0,0,0-.5c0-.16,0-.31,0-.43-.05-.3-.09-.51-.1-.61h-3.19l-.54-.6h8.33c.12,0,.32-.13.59-.38ZM94.92,21.71A7,7,0,0,1,94.65,20c0-.18,0-.26.08-.26a7.11,7.11,0,0,0,1.08-.1l1.12-.21V15.11H95.31l-.54-.61h2.16V10H94.87l-.53-.61h5.37c.1,0,.31-.17.62-.53s.55-.53.71-.53a.45.45,0,0,1,.27.12,5.29,5.29,0,0,1,.56.53,2.12,2.12,0,0,1,.43.57V7.5s.06,0,.17,0a6.86,6.86,0,0,1,1.22.17,5.19,5.19,0,0,1,1.16.36,2,2,0,0,0,0,.23l-.58.4V12h1.82V6.59l1.31.1q1.35.15,1.41.36c0,.06-.14.17-.45.34l-.23.11V12h1.76V7.71a2,2,0,0,1,.29,0,10.22,10.22,0,0,1,1.56.13c.58.08.91.18,1,.29s0,.16-.2.26l-.57.33v4a.65.65,0,0,1-.24.51,8,8,0,0,1,.8.7c.32.33.48.58.48.76s-.18.26-.52.26h-4.85l-.44.23c-.17.33-.36.64-.55.95a4.48,4.48,0,0,1-.69.81h4.19a4.43,4.43,0,0,1,.6-.47,1.39,1.39,0,0,1,.6-.29,2.27,2.27,0,0,1,1,.37c.43.25.64.47.64.67a.87.87,0,0,1-.26.56c-.17.2-.26.33-.26.39v4.62c0,.36-.26.72-.77,1.08a2.58,2.58,0,0,1-1.39.53c-.36,0-.52-.14-.47-.42a.87.87,0,0,0-.09-.66,1.62,1.62,0,0,0-.49-.44,1.19,1.19,0,0,1-.77.36,1.27,1.27,0,0,1-.58-.17.53.53,0,0,1-.31-.49v-5h-.65a2.81,2.81,0,0,1-.2.33.73.73,0,0,0-.15.33v4a1,1,0,0,1-.29.66,1.06,1.06,0,0,1-.77.36,1.23,1.23,0,0,1-.58-.17.53.53,0,0,1-.31-.49v-5h-.89v6a.81.81,0,0,1-.33.65,1.31,1.31,0,0,1-.83.26.73.73,0,0,1-.54-.21.69.69,0,0,1-.21-.51v-5a6.28,6.28,0,0,1-2.17,1.4c-1.26.62-2.53,1.23-3.82,1.84Z" transform="translate(-0.98 -5.72)"/><path id="Fill-12" class="cls-1" d="M129,9.43H116.76l-.54-.62h10c.15,0,.44-.23.86-.69s.72-.69.91-.69a.42.42,0,0,1,.23.09,7.91,7.91,0,0,1,.82.8,1.62,1.62,0,0,1,.5.83c0,.19-.16.28-.48.28m-8.85,4.89h-5.41l-.54-.61h14.14c.15,0,.45-.23.89-.7s.76-.7,1-.7a.35.35,0,0,1,.23.07,8.85,8.85,0,0,1,.89.78c.39.39.58.69.58.89s-.16.27-.48.27h-9a11.06,11.06,0,0,1,1,.36c.25.11.37.2.34.26s-.23.25-.54.32a1.8,1.8,0,0,1-.37.06c-.18.31-.34.57-.48.77A15.62,15.62,0,0,1,121,17.91a13.19,13.19,0,0,1-1.66,1.57,11.66,11.66,0,0,1-1.58,1.1l9.94-.44a23,23,0,0,0-1.5-2.29c-.58-.78-.87-1.18-.87-1.19l2,.89a9.28,9.28,0,0,1,3.07,3.05,4.19,4.19,0,0,1,.45,1,3.43,3.43,0,0,1,.13.94,2,2,0,0,1-.27,1.07,1.12,1.12,0,0,1-.67.54l-.29,0a1.15,1.15,0,0,1-1-.73c0-.09-.3-1-.79-2.67l-10.14,2.67a1.11,1.11,0,0,0-.25.31.73.73,0,0,1-.4.35q-.19.06-.69-1.14a9.39,9.39,0,0,1-.59-1.78.37.37,0,0,1,.21-.34,2,2,0,0,1,.51-.21c.35-.4.69-.81,1-1.23a16.71,16.71,0,0,0,1.68-2.89q.25-.57.48-1.17c.12-.33.24-.68.35-1" transform="translate(-0.98 -5.72)"/><path class="cls-1" d="M94.92,21.71s.18.51.89.25Z" transform="translate(-0.98 -5.72)"/></g></g></g></svg>