<?xml version="1.0" encoding="UTF-8"?>
<svg width="65px" height="29px" viewBox="0 0 65 29" version="1.1" xmlns="http://www.w3.org/2000/svg" xmlns:xlink="http://www.w3.org/1999/xlink">
    <!-- Generator: Sketch 52.3 (67297) - http://www.bohemiancoding.com/sketch -->
    <title>64_28</title>
    <desc>Created with Sketch.</desc>
    <g id="64_28" stroke="none" stroke-width="1" fill="none" fill-rule="evenodd" transform="translate(0.312500, 0.406250)">
        <path d="M33.3154044,22.9418804 C28.5157677,22.9418804 24.9277453,19.4995878 24.9277453,14.9022557 C24.9277453,10.258573 28.5157677,6.82070589 33.3154044,6.82070589 C38.113615,6.82070589 41.7009245,10.258573 41.7009245,14.9022557 C41.7009245,19.4995878 38.113615,22.9418804 33.3154044,22.9418804 M33.3154044,7.67900809 C30.0743722,7.67900809 28.1286121,10.5152485 28.1286121,14.9022557 C28.1286121,18.8145765 29.7696862,22.0807832 33.3154044,22.0807832 C36.9502468,22.0807832 38.5029096,18.5998262 38.5029096,14.9022557 C38.5029096,11.0742513 36.8613602,7.67900809 33.3154044,7.67900809" id="Fill-1" fill="#FFFFFF"></path>
        <path d="M53.2307235,15.03439 C52.1652731,14.0982933 48.1993639,12.2507891 47.345435,11.4947378 C46.810452,11.0277376 46.4858021,10.4521976 46.4858021,9.88154893 C46.4858021,8.73675781 47.7582584,7.67907796 49.3244681,7.67907796 C51.0511014,7.67907796 52.8568771,9.12410016 53.5544227,10.8234686 C53.5743865,10.8684218 53.6387936,11.1011067 53.8883414,11.1011067 C54.1048539,11.1011067 54.2058613,10.9422567 54.2058613,10.7603479 L54.2058613,7.16200038 C54.2058613,6.95773145 54.1381269,6.80610194 53.9482329,6.80610194 C53.7918496,6.80610194 53.7245905,6.86619474 53.6078972,6.9714736 C53.3257893,7.22372361 52.9930589,7.3830394 52.7283005,7.3830394 C52.2836301,7.3830394 51.7976059,7.17737296 51.2469371,7.02993598 C50.7257386,6.88878777 50.1249225,6.82077577 49.4732461,6.82077577 C46.2802222,6.82077577 44.0328658,8.78450597 44.0328658,11.4164774 C44.0328658,12.6127434 44.5357641,13.733544 45.5703181,14.6484452 C47.0191215,15.9211082 50.0666947,17.0433063 51.3973788,18.2120879 C52.0462031,18.7848329 52.2836301,19.4635554 52.2836301,19.957807 C52.2836301,21.207877 51.1582882,22.1169553 49.2942847,22.1169553 C47.6658069,22.1169553 46.3933506,21.4468507 45.5703181,20.3486432 C45.5508296,20.3276806 45.0108556,19.6620014 44.6828785,18.9273786 C44.6614886,18.8805621 44.6001712,18.6462468 44.348722,18.6462468 C44.1341109,18.6462468 44.0328658,18.807193 44.0328658,18.985608 L44.0328658,22.5874493 C44.0328658,22.7898549 44.1060665,22.9296056 44.2997631,22.9296056 C44.4528191,22.9296056 44.5112846,22.8816245 44.6277403,22.7796065 C44.8806154,22.5541421 45.1705662,22.4053076 45.4184504,22.3708357 C45.458378,22.3750283 45.4983057,22.378522 45.5382334,22.378522 C46.4244846,22.378522 47.6969409,22.9789842 49.7677126,22.9789842 C51.8959991,22.9789842 55.125861,21.9110559 55.125861,18.5500517 C55.125861,17.2221872 54.5309865,16.1826749 53.2307235,15.03439" id="Fill-3" fill="#FFFFFF"></path>
        <path d="M22.523958,19.014583 C22.360207,18.9514623 22.2280655,19.1557312 22.1665104,19.218852 C20.6238295,20.769153 19.1712234,21.4860741 17.3661608,21.4860741 C14.4343303,21.4860741 11.7929259,19.5733529 11.7929259,14.4694245 C11.7929259,10.4567162 14.2634494,7.67451277 17.1415677,7.67451277 C19.7444704,7.67451277 21.2769318,9.58094519 21.8112018,12.0631505 C21.8112018,12.0631505 21.8798869,12.2522797 22.0985383,12.2522797 C22.3606824,12.2522797 22.4236635,12.0400916 22.4236635,11.9138501 L22.4236635,7.1679165 C22.4236635,7.1092212 22.4181972,7.05704761 22.403462,7.01488948 C22.3713773,6.89470389 22.2946116,6.82063602 22.1543895,6.82063602 C21.9996698,6.82063602 21.940729,6.86628791 21.8233227,6.97133385 C21.5395512,7.22358386 21.2032558,7.3600737 20.9380221,7.38453008 C20.1111869,7.45347375 19.5866611,6.88864802 17.0579098,6.81341556 C14.7606438,6.74447189 12.9353796,7.53033664 12.0113397,8.07256934 C9.62590006,9.48148927 8.09272571,12.1800752 8.09272571,15.219187 C8.09272571,19.8032428 11.401017,22.9595123 16.2508008,22.9595123 C18.5972634,22.9595123 20.4693475,22.0536948 21.9996698,20.3186899 C22.6166471,19.5402786 22.7409457,19.1016943 22.523958,19.014583" id="Fill-5" fill="#FFFFFF"></path>
    </g>
</svg>