<?xml version="1.0" encoding="UTF-8"?>
<svg width="43px" height="43px" viewBox="0 0 43 43" version="1.1" xmlns="http://www.w3.org/2000/svg" xmlns:xlink="http://www.w3.org/1999/xlink">
    <!-- Generator: Sketch 55.2 (78181) - https://sketchapp.com -->
    <title>ic_invoice</title>
    <desc>Created with Sketch.</desc>
    <g id="供应链金融平台V1.0_0329" stroke="none" stroke-width="1" fill="none" fill-rule="evenodd">
        <g id="首页" transform="translate(-1491.000000, -194.000000)" fill-rule="nonzero">
            <g id="3" transform="translate(1491.000000, 194.000000)">
                <g id="ic_invoice" transform="translate(0.073958, 0.000000)">
                    <circle id="椭圆形" fill="#81C784" cx="21.5" cy="21.5" r="21"></circle>
                    <path d="M17.4271521,15.9012921 C17.1344924,15.9012921 16.8969714,15.6658919 16.8969714,15.3732322 L16.89273,14.0202111 C16.89273,13.7275514 17.1281302,13.4900305 17.4207899,13.4879097 L17.4229107,13.4879097 C17.7155704,13.4879097 17.9530913,13.72331 17.9530913,14.0159697 L17.9573328,15.3689907 C17.9573328,15.6616505 17.7219326,15.9012921 17.4271521,15.9012921 L17.4271521,15.9012921 Z M17.4271521,19.3029313 C17.1344924,19.3029313 16.8969714,19.0675311 16.8969714,18.7748714 L16.89273,17.4218503 C16.89273,17.1291906 17.1281302,16.8916696 17.4207899,16.8895489 L17.4229107,16.8895489 C17.7155704,16.8895489 17.9530913,17.1249491 17.9530913,17.4176089 L17.9573328,18.7706299 C17.9573328,19.0654104 17.7219326,19.3029313 17.4271521,19.3029313 Z M17.4271521,22.7066912 C17.1344924,22.7066912 16.8969714,22.471291 16.8969714,22.1786313 L16.89273,20.8256102 C16.89273,20.5329505 17.1281302,20.2954295 17.4207899,20.2933088 L17.4229107,20.2933088 C17.7155704,20.2933088 17.9530913,20.528709 17.9530913,20.8213687 L17.9573328,22.1743898 C17.9573328,22.4670495 17.7219326,22.7045705 17.4271521,22.7066912 Z M17.4271521,26.1083304 C17.1344924,26.1083304 16.8969714,25.8729302 16.8969714,25.5802704 L16.89273,24.2272494 C16.89273,23.9345896 17.1281302,23.6970687 17.4207899,23.694948 L17.4229107,23.694948 C17.7155704,23.694948 17.9530913,23.9303482 17.9530913,24.2230079 L17.9573328,25.576029 C17.9573328,25.8708094 17.7219326,26.1083304 17.4271521,26.1083304 Z M17.4271521,29.5120903 C17.1344924,29.5120903 16.8969714,29.27669 16.8969714,28.9840303 L16.89273,27.6310093 C16.89273,27.3383495 17.1281302,27.1008286 17.4207899,27.0987079 L17.4229107,27.0987079 C17.7155704,27.0987079 17.9530913,27.3341081 17.9530913,27.6267678 L17.9573328,28.9797889 C17.9573328,29.2724486 17.7219326,29.5099695 17.4271521,29.5120903 Z M30.0645385,30.3179649 L12.9354615,30.3179649 C12.4201259,30.3179649 12.0023435,29.904424 12.0023435,29.3954505 L12.0023435,22.4373594 L12.7000613,22.447963 L12.7149063,22.447963 C13.4614007,22.447963 14.0700481,21.8774886 14.0700481,21.1755294 C14.0700481,20.4735702 13.4614007,19.9030958 12.7149063,19.9030958 L12.7000613,19.9030958 L12.0044642,19.9136994 L12.0044642,13.6045495 C12.0044642,13.095576 12.4222466,12.6820351 12.9375822,12.6820351 L30.0645385,12.6820351 C30.5798741,12.6820351 30.9976565,13.095576 30.9976565,13.6045495 L30.9976565,19.9030958 L30.3190252,19.9030958 C29.5725309,19.9030958 28.9660042,20.4735702 28.9660042,21.1755294 C28.9660042,21.8774886 29.5725309,22.447963 30.3190252,22.447963 L30.9976565,22.447963 L30.9976565,29.3954505 C30.9976565,29.904424 30.5798741,30.3179649 30.0645385,30.3179649 Z M13.359606,28.9607024 L29.640394,28.9607024 L29.640394,23.7225174 C28.4739965,23.4298576 27.6087417,22.3991864 27.6087417,21.1755294 C27.6087417,19.9518724 28.4739965,18.9233219 29.640394,18.6285415 L29.640394,14.0392976 L13.359606,14.0392976 L13.359606,18.6221793 C14.54509,18.9042354 15.4251899,19.9412688 15.4251899,21.1755294 C15.4251899,22.40979 14.54509,23.4489441 13.359606,23.7310003 L13.359606,28.9607024 Z M26.9279897,18.1110852 L20.1416771,18.1110852 C19.7663092,18.1110852 19.4630459,17.8078218 19.4630459,17.4324539 C19.4630459,17.057086 19.7663092,16.7538227 20.1416771,16.7538227 L26.9301104,16.7538227 C27.3054783,16.7538227 27.6087417,17.057086 27.6087417,17.4324539 C27.6087417,17.8078218 27.3033576,18.1110852 26.9279897,18.1110852 Z M26.9279897,26.2101251 L20.1416771,26.2101251 C19.7663092,26.2101251 19.4630459,25.9068617 19.4630459,25.5314938 C19.4630459,25.1561259 19.7663092,24.8528625 20.1416771,24.8528625 L26.9301104,24.8528625 C27.3054783,24.8528625 27.6087417,25.1561259 27.6087417,25.5314938 C27.6066209,25.9068617 27.3033576,26.2101251 26.9279897,26.2101251 Z" id="形状" fill="#FFFFFF"></path>
                </g>
            </g>
        </g>
    </g>
</svg>