<?xml version="1.0" encoding="UTF-8"?>
<svg width="43px" height="43px" viewBox="0 0 43 43" version="1.1" xmlns="http://www.w3.org/2000/svg" xmlns:xlink="http://www.w3.org/1999/xlink">
    <!-- Generator: Sketch 55.2 (78181) - https://sketchapp.com -->
    <title>ic_fangkuan</title>
    <desc>Created with Sketch.</desc>
    <g id="供应链金融平台V1.0_0329" stroke="none" stroke-width="1" fill="none" fill-rule="evenodd">
        <g id="首页" transform="translate(-904.000000, -194.000000)">
            <g id="2" transform="translate(904.000000, 193.000000)">
                <g id="ic_fangkuan" transform="translate(0.573958, 1.500000)">
                    <circle id="椭圆形" fill="#FF9E80" fill-rule="nonzero" cx="21" cy="21" r="21"></circle>
                    <rect id="矩形" fill="#000000" opacity="0" x="9" y="9" width="24" height="24"></rect>
                    <g id="分组-3" transform="translate(10.000000, 10.000000)" fill="#FFFFFF">
                        <path d="M13.8746094,8.78796875 C14.1582031,8.78796875 14.3902344,8.5559375 14.3902344,8.27234375 L14.3902344,7.88304687 C14.3902344,7.59945312 14.1582031,7.36742187 13.8746094,7.36742187 L12.9851563,7.36742187 C12.7015625,7.36742187 12.5855469,7.16632812 12.7299219,6.92140625 L13.9442188,4.833125 C14.0860156,4.58820312 13.9725781,4.38710937 13.6889844,4.38710937 L13.2996875,4.38710937 C13.0160938,4.38710937 12.6680469,4.58820312 12.5236719,4.833125 L11.309375,6.92140625 C11.1675781,7.16632812 11.0386719,7.36742187 11.0257813,7.36742187 C11.0128906,7.36742187 10.8839844,7.16632812 10.7421875,6.92140625 L9.52789062,4.833125 C9.38609375,4.58820312 9.03546875,4.38710937 8.751875,4.38710937 L8.36257812,4.38710937 C8.07898437,4.38710937 7.96296875,4.58820312 8.10734375,4.833125 L9.32164063,6.92140625 C9.4634375,7.16632812 9.35,7.36742187 9.06640625,7.36742187 L8.17695313,7.36742187 C7.89335938,7.36742187 7.66132812,7.59945312 7.66132812,7.88304687 L7.66132812,8.27234375 C7.66132812,8.5559375 7.89335938,8.78796875 8.17695313,8.78796875 L9.80117188,8.78796875 C10.0847656,8.78796875 10.3167969,9.02 10.3167969,9.30359375 L10.3167969,9.37835937 C10.3167969,9.66195312 10.0847656,9.89398437 9.80117188,9.89398437 L8.20015625,9.89398437 C7.9165625,9.89398437 7.68453125,10.1260156 7.68453125,10.4096094 L7.68453125,10.7989062 C7.68453125,11.0825 7.9165625,11.3145312 8.20015625,11.3145312 L9.80117188,11.3145312 C10.0847656,11.3145312 10.3167969,11.5465625 10.3167969,11.8301562 L10.3167969,13.4672656 C10.3167969,13.7508594 10.5488281,13.9828906 10.8324219,13.9828906 L11.2217188,13.9828906 C11.5053125,13.9828906 11.7373438,13.7508594 11.7373438,13.4672656 L11.7373438,11.8301562 C11.7373438,11.5465625 11.969375,11.3145312 12.2529688,11.3145312 L13.8539844,11.3145312 C14.1375781,11.3145312 14.3696094,11.0825 14.3696094,10.7989062 L14.3696094,10.4096094 C14.3696094,10.1260156 14.1375781,9.89398437 13.8539844,9.89398437 L12.2529688,9.89398437 C11.969375,9.89398437 11.7373438,9.66195312 11.7373438,9.37835937 L11.7373438,9.30359375 C11.7373438,9.02 11.969375,8.78796875 12.2529688,8.78796875 L13.8746094,8.78796875 Z" id="路径"></path>
                        <path d="M18.1439844,11.0464063 C17.8603906,11.0464063 17.6283594,10.814375 17.6283594,10.5307813 L17.6309375,0.84734375 C17.6309375,0.56375 17.3989062,0.33171875 17.1153125,0.33171875 L4.77640625,0.33171875 C4.4928125,0.33171875 4.26078125,0.56375 4.26078125,0.84734375 L4.26335937,10.5307813 C4.26335937,10.814375 4.03132812,11.0464063 3.74773437,11.0464063 L0.8421875,11.0464063 C0.55859375,11.0464063 0.4915625,11.2114063 0.69265625,11.4099219 L10.6751562,21.3795313 C10.87625,21.580625 11.2036719,21.580625 11.4047656,21.3795313 L21.3614844,11.4021875 C21.5625781,11.2010938 21.4929687,11.0386719 21.209375,11.0386719 L18.1439844,11.0464063 L18.1439844,11.0464063 Z M11.3764062,19.3995313 C11.1753125,19.600625 10.8478906,19.600625 10.6467969,19.3995313 L4.11898437,12.8459375 C3.91789062,12.6448438 3.9875,12.4798438 4.27109375,12.4798438 L5.15023437,12.4798438 C5.43382812,12.4798438 5.66585937,12.2478125 5.66585937,11.9642188 L5.66585937,2.28078125 C5.66585937,1.9971875 5.89789062,1.76515625 6.18148437,1.76515625 L15.6767187,1.76515625 C15.9603125,1.76515625 16.1923437,1.9971875 16.1923437,2.28078125 L16.1949219,11.9642188 C16.1949219,12.2478125 16.4269531,12.4798438 16.7105469,12.4798438 L17.7804687,12.4798438 C18.0640625,12.4798438 18.1310937,12.6448438 17.9325781,12.8433594 L11.3764062,19.3995313 Z" id="形状" fill-rule="nonzero"></path>
                    </g>
                </g>
            </g>
        </g>
    </g>
</svg>