<?xml version="1.0" encoding="UTF-8"?>
<svg width="43px" height="43px" viewBox="0 0 43 43" version="1.1" xmlns="http://www.w3.org/2000/svg" xmlns:xlink="http://www.w3.org/1999/xlink">
    <!-- Generator: Sketch 55.2 (78181) - https://sketchapp.com -->
    <title>ic_fapiao</title>
    <desc>Created with Sketch.</desc>
    <g id="供应链金融平台V1.0_0329" stroke="none" stroke-width="1" fill="none" fill-rule="evenodd">
        <g id="首页备份" transform="translate(-1491.000000, -194.000000)" fill-rule="nonzero">
            <g id="3" transform="translate(1491.000000, 194.000000)">
                <g id="ic_fapiao" transform="translate(0.073958, 0.000000)">
                    <circle id="椭圆形" fill="#81C784" cx="21.5" cy="21.5" r="21"></circle>
                    <g id="符号-数字选择器" transform="translate(10.500000, 10.500000)">
                        <rect id="矩形" fill="#000000" opacity="0" x="0" y="0" width="22" height="22"></rect>
                        <path d="M6.1875,8.25 L6.1875,6.8729375 C6.1875,6.4948125 6.49275,6.1875 6.875,6.1875 C7.2545,6.1875 7.5625,6.4989375 7.5625,6.8729375 L7.5625,8.25 L8.9395625,8.25 C9.3176875,8.25 9.62499447,8.55525 9.62499447,8.9375 C9.62499447,9.317 9.3135625,9.625 8.9395625,9.625 L7.5625,9.625 L7.5625,11.0020625 C7.5625,11.3801875 7.25725,11.6875 6.875,11.6875 C6.4955,11.6875 6.1875,11.3760625 6.1875,11.0020625 L6.1875,9.625 L4.8104375,9.625 C4.62823392,9.62518441 4.45347004,9.55274465 4.32482628,9.4237138 C4.19618252,9.29468294 4.12426817,9.1197022 4.12499447,8.9375 C4.12499447,8.558 4.4364375,8.25 4.8104375,8.25 L6.1875,8.25 Z M1.375,4.1284375 C1.375,3.367375 1.99375,2.75 2.7438125,2.75 L19.256875,2.75 C20.0124375,2.75 20.625,3.3666875 20.625,4.1284375 L20.625,17.8715625 C20.625,18.632625 20.00625,19.25 19.2561875,19.25 L2.743125,19.25 C1.9875625,19.25 1.375,18.6333125 1.375,17.8715625 L1.375,4.1284375 Z M2.75,4.807 L2.75,17.193 C2.75,17.5621875 3.058,17.875 3.4375,17.875 L18.5625,17.875 C18.9426875,17.875 19.25,17.56975 19.25,17.193 L19.25,4.807 C19.25,4.4378125 18.942,4.125 18.5625,4.125 L3.4375,4.125 C3.0573125,4.125 2.75,4.43025 2.75,4.807 Z M12.3749996,13.75 C12.3749996,13.3705 12.676125,13.0624945 13.0645625,13.0624945 L16.4979375,13.0624945 C16.6806867,13.0617682 16.8561921,13.1338998 16.9856097,13.2629304 C17.1150273,13.3919609 17.1876844,13.5672494 17.1875004,13.75 C17.1875004,14.1295 16.886375,14.4375055 16.4979375,14.4375055 L13.0645625,14.4375055 C12.8818133,14.4382318 12.7063079,14.3661002 12.5768903,14.2370696 C12.4474727,14.1080391 12.3748156,13.9327506 12.3749996,13.75 Z M7.31225,15.37525 C7.18324253,15.2471611 7.11040413,15.073069 7.10975516,14.8912745 C7.10911481,14.7094799 7.1807167,14.5348756 7.3088125,14.405875 L15.093375,6.6213125 C15.2221073,6.49270796 15.396814,6.42075541 15.5787775,6.42139637 C15.760741,6.42204593 15.934933,6.49523571 16.06275,6.62475 C16.1917575,6.75283886 16.2645959,6.92693097 16.2652448,7.10872554 C16.2658852,7.29052012 16.1942833,7.46512442 16.0661875,7.594125 L8.281625,15.3786875 C8.15289273,15.507292 7.97818598,15.5792446 7.7962225,15.5786036 C7.61425902,15.5779541 7.44006695,15.5047643 7.31225,15.37525 L7.31225,15.37525 Z" id="形状" fill="#FFFFFF"></path>
                    </g>
                </g>
            </g>
        </g>
    </g>
</svg>