<?xml version="1.0" encoding="UTF-8"?>
<svg width="43px" height="43px" viewBox="0 0 43 43" version="1.1" xmlns="http://www.w3.org/2000/svg" xmlns:xlink="http://www.w3.org/1999/xlink">
    <!-- Generator: Sketch 55.2 (78181) - https://sketchapp.com -->
    <title>ic_rongzi </title>
    <desc>Created with Sketch.</desc>
    <g id="供应链金融平台V1.0_0329" stroke="none" stroke-width="1" fill="none" fill-rule="evenodd">
        <g id="首页" transform="translate(-374.000000, -193.000000)" fill-rule="nonzero">
            <g id="1" transform="translate(374.000000, 193.000000)">
                <g id="ic_rongzi-">
                    <circle id="椭圆形" fill="#4FC3F7" cx="21.573958" cy="21.796875" r="21"></circle>
                    <path d="M25.4127208,31.4100819 L14.7219125,31.4100819 C13.6960763,31.4100819 12.892352,30.5839464 12.892352,29.5292394 L12.892352,14.0645106 C12.892352,13.0098036 13.6960763,12.1836681 14.7219125,12.1836681 L26.8249291,12.1836681 C27.8691116,12.1836681 28.7514946,13.0449144 28.7514946,14.0645106 L28.7514946,29.7382341 C28.7514946,30.0843542 28.4710919,30.3651743 28.1254773,30.3651743 C27.7798626,30.3651743 27.4994599,30.0843541 27.4994599,29.7382341 L27.4994599,14.0645106 C27.4994599,13.7306288 27.1844079,13.4375704 26.8249511,13.4375704 L14.7219125,13.4375704 C14.3926008,13.4375704 14.1443867,13.7069653 14.1443867,14.0645106 L14.1443867,29.5292394 C14.1443867,29.8868067 14.3926008,30.1561796 14.7219125,30.1561796 L25.4127208,30.1561796 C25.7583355,30.1561796 26.0387381,30.4369997 26.0387381,30.7831197 C26.0387381,31.1292397 25.7583354,31.4100819 25.4127208,31.4100819 Z M29.3656912,31.3578552 C28.3410854,31.3578552 27.4754009,30.472528 27.4754009,29.4247641 C27.4754009,29.078644 27.7558036,28.7978239 28.1014182,28.7978239 C28.4470329,28.7978239 28.7274356,29.0786441 28.7274356,29.4247641 C28.7274356,29.7802879 29.0314798,30.1039529 29.3656912,30.1039529 C29.7292347,30.1039529 30.0035293,29.8570131 30.0035293,29.5292394 L30.0035293,16.3633204 C30.0035293,16.0172004 30.283932,15.7363803 30.6295466,15.7363803 C30.9751613,15.7363803 31.255564,16.0172005 31.255564,16.3633204 L31.255564,29.5292395 C31.255564,30.5545702 30.4253637,31.3578552 29.3656912,31.3578552 Z M25.2040556,19.7070598 L16.0224606,19.7070598 C15.676846,19.7070598 15.3964433,19.4262397 15.3964433,19.0801197 L15.3964433,15.3184129 C15.3964433,14.9722928 15.676846,14.6914727 16.0224606,14.6914727 L25.2040556,14.6914727 C25.5496703,14.6914727 25.830073,14.9722929 25.830073,15.3184129 L25.830073,19.0800977 C25.830073,19.4262177 25.5496703,19.7070598 25.2040556,19.7070598 Z M16.648478,18.4531576 L24.5780383,18.4531576 L24.5780383,15.945353 L16.648478,15.945353 L16.648478,18.4531576 Z M22.4913212,22.6328099 L16.2311258,22.6328099 C15.8855111,22.6328099 15.6051084,22.3519897 15.6051084,22.0058697 C15.6051084,21.6597497 15.8855111,21.3789295 16.2311258,21.3789295 L22.4913212,21.3789295 C22.8369358,21.3789295 23.1173385,21.6597497 23.1173385,22.0058697 C23.1173385,22.3519897 22.8369358,22.6328099 22.4913212,22.6328099 Z M24.5780383,25.5585599 L16.2311258,25.5585599 C15.8855111,25.5585599 15.6051084,25.2777397 15.6051084,24.9316197 C15.6051084,24.5854997 15.8855111,24.3046796 16.2311258,24.3046796 L24.5780383,24.3046796 C24.923653,24.3046796 25.2040556,24.5854997 25.2040556,24.9316197 C25.2040556,25.2777397 24.923653,25.5585599 24.5780383,25.5585599 Z M22.4913212,28.4843318 L16.2311258,28.4843318 C15.8855111,28.4843318 15.6051084,28.2035117 15.6051084,27.8573917 C15.6051084,27.5112717 15.8855111,27.2304515 16.2311258,27.2304515 L22.4913212,27.2304515 C22.8369358,27.2304515 23.1173385,27.5112717 23.1173385,27.8573917 C23.1173385,28.2035117 22.8369358,28.4843318 22.4913212,28.4843318 Z" id="形状" fill="#FFFFFF"></path>
                </g>
            </g>
        </g>
    </g>
</svg>