<?xml version="1.0" encoding="UTF-8"?>
<svg width="43px" height="43px" viewBox="0 0 43 43" version="1.1" xmlns="http://www.w3.org/2000/svg" xmlns:xlink="http://www.w3.org/1999/xlink">
    <!-- Generator: Sketch 55.2 (78181) - https://sketchapp.com -->
    <title>ic_shenqing</title>
    <desc>Created with Sketch.</desc>
    <g id="供应链金融平台V1.0_0329" stroke="none" stroke-width="1" fill="none" fill-rule="evenodd">
        <g id="首页" transform="translate(-374.000000, -193.000000)" fill-rule="nonzero">
            <g id="1" transform="translate(374.000000, 193.000000)">
                <g id="ic_shenqing">
                    <circle id="椭圆形" fill="#4FC3F7" cx="21.573958" cy="21.796875" r="21"></circle>
                    <g id="interation" transform="translate(9.573958, 9.796875)">
                        <rect id="矩形" fill="#000000" opacity="0" x="0" y="0" width="24" height="24"></rect>
                        <path d="M19.705,3.625 L4.295,3.625 C3.92440625,3.625 3.625,3.92440625 3.625,4.295 L3.625,19.705 C3.625,20.0755937 3.92440625,20.375 4.295,20.375 L19.705,20.375 C20.0755937,20.375 20.375,20.0755937 20.375,19.705 L20.375,4.295 C20.375,3.92440625 20.0755937,3.625 19.705,3.625 Z M18.8675,18.8675 L5.1325,18.8675 L5.1325,5.1325 L18.8675,5.1325 L18.8675,18.8675 Z M7.66175,12.25125 L8.72328125,12.25125 C8.80075,12.25125 8.86565625,12.1884375 8.86565625,12.108875 L8.86565625,10.4569063 C8.86565625,10.0444375 9.1985625,9.71153125 9.6089375,9.71153125 L13.9157813,9.71153125 L13.9157813,10.8295938 C13.9157813,10.9489375 14.051875,11.0138437 14.144,10.9405625 L16.4282812,9.14621875 C16.5015625,9.0896875 16.5015625,8.97871875 16.4282812,8.9221875 L14.144,7.12784375 C14.051875,7.0545625 13.9157813,7.1215625 13.9157813,7.2388125 L13.9157813,8.356875 L9.60684375,8.356875 C8.4531875,8.356875 7.519375,9.294875 7.519375,10.4527187 L7.519375,12.1046875 C7.519375,12.1884375 7.5821875,12.25125 7.66175,12.25125 Z M7.5738125,15.0757187 L9.85809375,16.8700625 C9.95021875,16.9433438 10.0863125,16.8763437 10.0863125,16.7590937 L10.0863125,15.6410313 L14.3931562,15.6410313 C15.5468125,15.6410313 16.480625,14.7030313 16.480625,13.5451875 L16.480625,11.8932188 C16.480625,11.81575 16.4178125,11.7508438 16.33825,11.7508438 L15.2767187,11.7508438 C15.19925,11.7508438 15.1343437,11.8136563 15.1343437,11.8932188 L15.1343437,13.5451875 C15.1343437,13.9576563 14.8014375,14.2905625 14.3910625,14.2905625 L10.0863125,14.2905625 L10.0863125,13.1725 C10.0863125,13.0531563 9.95021875,12.98825 9.85809375,13.0615313 L7.5738125,14.855875 C7.50053125,14.9082188 7.50053125,15.0191875 7.5738125,15.0757188 L7.5738125,15.0757187 Z" id="形状" fill="#FFFFFF"></path>
                    </g>
                </g>
            </g>
        </g>
    </g>
</svg>