<?xml version="1.0" encoding="UTF-8"?>
<svg width="125px" height="63px" viewBox="0 0 125 63" version="1.1" xmlns="http://www.w3.org/2000/svg" xmlns:xlink="http://www.w3.org/1999/xlink">
    <!-- Generator: Sketch 52.3 (67297) - http://www.bohemiancoding.com/sketch -->
    <title>章</title>
    <desc>Created with Sketch.</desc>
    <g id="Page-1" stroke="none" stroke-width="1" fill="none" fill-rule="evenodd">
        <g id="待办事项" transform="translate(-657.000000, -267.000000)">
            <g id="章" transform="translate(607.940114, 266.037562)">
                <path d="M111.508462,63.6520746 C77.3474891,63.6520746 49.6545488,49.6192544 49.6545488,32.3088935 C49.6545488,14.9985326 77.3474891,0.965712466 111.508462,0.965712466 C145.669435,0.965712466 173.362376,14.9985326 173.362376,32.3088935 C173.362376,49.6192544 145.669435,63.6520746 111.508462,63.6520746 Z M111.554829,59.8161786 C143.37331,59.8161786 169.167284,47.5007476 169.167284,32.3088935 C169.167284,17.1170394 143.37331,4.80160842 111.554829,4.80160842 C79.7363488,4.80160842 53.9423739,17.1170394 53.9423739,32.3088935 C53.9423739,47.5007476 79.7363488,59.8161786 111.554829,59.8161786 Z" id="Combined-Shape" fill="#F4C3C8" fill-rule="nonzero"></path>
                <path d="M111.424812,56.4015367 C84.1562833,56.4015367 62.0507731,46.0795411 62.0507731,33.3467143 C62.0507731,20.6138874 84.1562833,10.2918918 111.424812,10.2918918 C138.693341,10.2918918 160.798851,20.6138874 160.798851,33.3467143 C160.798851,46.0795411 138.693341,56.4015367 111.424812,56.4015367 Z M111.461824,53.5800012 C136.86049,53.5800012 157.450177,44.5212501 157.450177,33.3467143 C157.450177,22.1721785 136.86049,13.1134273 111.461824,13.1134273 C86.0631577,13.1134273 65.4734708,22.1721785 65.4734708,33.3467143 C65.4734708,44.5212501 86.0631577,53.5800012 111.461824,53.5800012 Z" id="Combined-Shape" fill-opacity="0.4" fill="#FFCDD2" fill-rule="nonzero"></path>
                <text id="发-票-联" font-family="PingFang-SC-Medium, PingFang SC" font-size="18" font-weight="400" letter-spacing="-0.434117705" fill="#B56C42">
                    <tspan x="74.6242612" y="61.8015367">发  票  联 </tspan>
                </text>
            </g>
        </g>
    </g>
</svg>