<?xml version="1.0" encoding="UTF-8"?>
<svg width="18px" height="19px" viewBox="0 0 18 19" version="1.1" xmlns="http://www.w3.org/2000/svg" xmlns:xlink="http://www.w3.org/1999/xlink">
    <!-- Generator: Sketch 52.3 (67297) - http://www.bohemiancoding.com/sketch -->
    <title>ic_sg_loan amount</title>
    <desc>Created with Sketch.</desc>
    <g id="Page-1" stroke="none" stroke-width="1" fill="none" fill-rule="evenodd">
        <g id="统计图表" transform="translate(-296.398438, -275.000000)">
            <g id="ic_sg_loan-amount" transform="translate(296.000000, 275.000000)">
                <rect id="矩形" fill="#000000" opacity="0" x="0" y="0" width="19" height="19"></rect>
                <path d="M0.748990943,7.84314063 C1.34564956,4.71766956 3.56440383,2.14792879 6.56947049,1.1019148 C9.57453715,0.0559008148 12.9093751,0.692528028 15.3177831,2.77198513 C17.7261911,4.85144223 18.8422747,8.0578102 18.2456159,11.1832812 C18.0342909,12.3266258 17.596203,13.4160919 16.9571784,14.3874531 C16.8238039,14.588549 16.5932775,14.7032148 16.3524361,14.688257 C16.1115947,14.6732993 15.8970279,14.5309904 15.789561,14.3149367 C15.6820942,14.0988831 15.6980539,13.8419084 15.8314284,13.6408125 C17.5019604,11.0857778 17.4751567,7.77756864 15.7634441,5.2499375 C14.6479803,3.58338231 12.9067694,2.43791923 10.9347722,2.073375 C7.67975247,1.44872511 4.39772377,3.0187737 2.84139418,5.94506472 C1.28506459,8.87135573 1.81796879,12.4703525 4.15551892,14.820076 C6.49306905,17.1697994 10.0892493,17.7213902 13.0235847,16.1802813 C13.3572423,16.0042707 13.77041,16.1320689 13.9464206,16.4657266 C14.1224312,16.7993842 13.994633,17.2125519 13.6609753,17.3885625 C12.3814733,18.0618794 10.956505,18.4114961 9.51066282,18.4068437 C8.95056206,18.4064526 8.39181305,18.3518702 7.84222532,18.2438594 C3.02143398,17.3153899 -0.146575909,12.6705046 0.748694068,7.8434375 L0.748990943,7.84314063 Z M8.75246875,10.75875 L6.32610937,10.75875 C5.94752682,10.75875 5.64062503,11.0656518 5.64062503,11.4442344 C5.64062503,11.8228169 5.94752682,12.1297187 6.32610937,12.1297187 L8.75246875,12.1297187 L8.75246875,14.2969062 C8.75246875,14.6754888 9.05937056,14.9823906 9.43795312,14.9823906 C9.81653569,14.9823906 10.1234375,14.6754888 10.1234375,14.2969062 L10.1234375,12.1297187 L12.5497969,12.1297187 C12.9283794,12.1297187 13.2352812,11.8228169 13.2352812,11.4442344 C13.2352812,11.0656518 12.9283794,10.75875 12.5497969,10.75875 L10.1234375,10.75875 L10.1234375,9.42904687 C10.1264194,9.3828889 10.121806,9.33655443 10.1097812,9.29189062 L12.5497969,9.29189062 C12.7946969,9.29189064 13.0209938,9.16123805 13.1434438,8.94914845 C13.2658938,8.73705884 13.2658938,8.47575366 13.1434438,8.26366405 C13.0209938,8.05157445 12.7946969,7.92092186 12.5497969,7.92092187 L6.33976562,7.92092187 C5.96118306,7.92092187 5.65428125,8.22782368 5.65428125,8.60640625 C5.65428125,8.98498882 5.96118306,9.29189062 6.33976562,9.29189062 L8.77978125,9.29189062 C8.76846561,9.33668144 8.76386335,9.38290421 8.766125,9.42904687 L8.766125,10.75875 L8.75246875,10.75875 Z M7.53260937,7.11223438 C7.80281999,7.37262724 8.23179277,7.36865895 8.49713992,7.1033118 C8.76248707,6.83796465 8.76645537,6.40899186 8.5060625,6.13878125 L7.02554687,4.65826563 C6.8527669,4.47897123 6.59663928,4.40694478 6.355734,4.46990544 C6.11482872,4.53286611 5.92669423,4.72100059 5.86373357,4.96190587 C5.8007729,5.20281115 5.87279935,5.45893878 6.05209375,5.63171875 L7.53260937,7.11223438 Z M11.1788281,7.11223437 L12.6593437,5.63171875 C12.8332344,5.45788113 12.9011747,5.20447898 12.8375723,4.96696645 C12.7739698,4.72945392 12.5884873,4.5439148 12.3509941,4.48023989 C12.113501,4.41656498 11.8600782,4.484428 11.6861875,4.65826563 L10.2056719,6.13878125 C10.0741593,6.26656856 9.9999549,6.44213617 9.9999549,6.62550781 C9.9999549,6.80887946 10.0741593,6.98444707 10.2056719,7.11223438 C10.477819,7.37258284 10.906681,7.37258284 11.1788281,7.11223438 Z" id="形状" fill="#666666" fill-rule="nonzero"></path>
            </g>
        </g>
    </g>
</svg>