<?xml version="1.0" encoding="UTF-8"?>
<svg width="16px" height="17px" viewBox="0 0 16 17" version="1.1" xmlns="http://www.w3.org/2000/svg" xmlns:xlink="http://www.w3.org/1999/xlink">
    <!-- Generator: Sketch 52.3 (67297) - http://www.bohemiancoding.com/sketch -->
    <title>ic_sg_number of loans</title>
    <desc>Created with Sketch.</desc>
    <g id="Page-1" stroke="none" stroke-width="1" fill="none" fill-rule="evenodd">
        <g id="统计图表" transform="translate(-297.398438, -321.000000)">
            <g id="ic_sg_number-of-loans" transform="translate(297.000000, 321.000000)">
                <rect id="矩形" fill="#000000" opacity="0" x="0" y="0" width="17" height="17"></rect>
                <path d="M0.425,0.85 L0.425,16.15 C0.425,16.6175 0.8075,17 1.275,17 L15.4275,17 C15.895,17 16.2775,16.6175 16.2775,16.15 L16.2775,0.85 C16.2775,0.3825 15.895,0 15.4275,0 L1.275,0 C0.8075,0 0.425,0.3825 0.425,0.85 Z M14.9960825,15.6899979 L1.70641754,15.6899979 L1.70641754,1.31000209 L14.9960825,1.31000209 L14.9960825,15.6899979 Z M7.7678013,7.96875 L7.7678013,9.03125 L8.9346987,9.03125 L8.9346987,7.96875 L7.7678013,7.96875 Z M6.63,4.7175 L6.63,5.78 L12.41,5.78 L12.41,4.7175 L6.63,4.7175 Z M4.335,7.9475 L4.335,9.01 L5.4825,9.01 L5.4825,7.9475 L4.335,7.9475 Z M4.335,4.7175 L4.335,5.78 L5.4825,5.78 L5.4825,4.7175 L4.335,4.7175 Z M6.63,7.9475 L6.63,9.01 L12.41,9.01 L12.41,7.9475 L6.63,7.9475 Z M4.335,11.1775 L4.335,12.24 L5.4825,12.24 L5.4825,11.1775 L4.335,11.1775 Z M6.63,11.1775 L6.63,12.24 L12.41,12.24 L12.41,11.1775 L6.63,11.1775 Z" id="形状" fill="#666666" fill-rule="nonzero"></path>
            </g>
        </g>
    </g>
</svg>