<?xml version="1.0" encoding="UTF-8"?>
<svg width="18px" height="18px" viewBox="0 0 18 18" version="1.1" xmlns="http://www.w3.org/2000/svg" xmlns:xlink="http://www.w3.org/1999/xlink">
    <!-- Generator: Sketch 52.3 (67297) - http://www.bohemiancoding.com/sketch -->
    <title>ic_sg_pending</title>
    <desc>Created with Sketch.</desc>
    <g id="Page-1" stroke="none" stroke-width="1" fill="none" fill-rule="evenodd">
        <g id="统计图表" transform="translate(-296.398438, -364.000000)" fill="#666666" fill-rule="nonzero">
            <g id="ic_sg_pending" transform="translate(296.398438, 364.000000)">
                <path d="M8.68004917,9.87075827 L6.24617785,9.87075827 C5.86642321,9.87075829 5.55857126,10.1786103 5.55857126,10.5583649 C5.55857126,10.9381195 5.86642321,11.2459715 6.24617785,11.2459715 L8.68004917,11.2459715 L8.68004917,13.4198686 C8.68004917,13.7996232 8.98790114,14.1074752 9.36765579,14.1074752 C9.74741044,14.1074752 10.0552624,13.7996232 10.0552624,13.4198686 L10.0552624,11.2459715 L12.4891337,11.2459715 C12.8688884,11.2459715 13.1767403,10.9381195 13.1767403,10.5583649 C13.1767403,10.1786102 12.8688884,9.87075827 12.4891337,9.87075827 L10.0552624,9.87075827 L10.0552624,8.53693842 C10.0582535,8.49063754 10.0536259,8.44415962 10.0415639,8.39935754 L12.4891337,8.39935754 C12.7347919,8.39935755 12.9617895,8.26830047 13.0846186,8.05555424 C13.2074477,7.842808 13.2074477,7.58069383 13.0846186,7.3679476 C12.9617895,7.15520137 12.7347919,7.02414429 12.4891337,7.0241443 L6.25987638,7.0241443 C5.88012173,7.0241443 5.57226976,7.33199627 5.57226976,7.71175092 C5.57226976,8.09150557 5.88012173,8.39935754 6.25987638,8.39935754 L8.70744623,8.39935754 C8.69609556,8.44428703 8.69147905,8.49065289 8.6937477,8.53693842 L8.6937477,9.87075827 L8.68004917,9.87075827 Z M7.45641314,6.21295313 C7.72746032,6.47415216 8.15776119,6.47017158 8.42392985,6.20400292 C8.69009851,5.93783426 8.69407909,5.50753339 8.43288005,5.23648621 L6.94778079,3.75138695 C6.77446589,3.57153746 6.51754531,3.49928802 6.27589419,3.56244361 C6.03424307,3.6255992 5.84552613,3.81431614 5.78237054,4.05596726 C5.71921495,4.29761838 5.79146439,4.55453896 5.97131388,4.72785386 L7.45641314,6.21295313 Z M11.1139205,6.21295313 L12.5990198,4.72785386 C12.7734488,4.55347804 12.8415994,4.29929137 12.7778001,4.06104351 C12.7140007,3.82279564 12.5279439,3.6366821 12.2897155,3.57281005 C12.0514871,3.508938 11.7972797,3.57701113 11.6228506,3.75138695 L10.1377514,5.23648621 C10.0058316,5.36466915 9.93139751,5.54078031 9.93139751,5.72471967 C9.93139751,5.90865903 10.0058316,6.08477019 10.1377514,6.21295313 C10.4107411,6.47410762 10.8409308,6.47410762 11.1139205,6.21295313 Z" id="形状-copy"></path>
                <path d="M9.09842421,17.4172196 C5.67693497,17.4172196 2.4280234,15.3813623 1.05431767,12.0242248 C-0.75699198,7.59418634 1.37259767,2.51692474 5.8022013,0.705200982 C10.2292582,-1.10693689 15.3086317,1.02306686 17.1207903,5.45223569 C17.6606364,6.77353661 17.8685785,8.21712233 17.7224207,9.62747623 C17.6849236,9.98666965 17.3649251,10.2423165 17.0036197,10.2107825 C16.6444263,10.1732854 16.3832305,9.85158907 16.4203134,9.49198154 C16.5447309,8.29553283 16.3679086,7.07009688 15.9089991,5.94779343 C14.3703973,2.18671857 10.0566806,0.378825255 6.29773832,1.91699221 C2.53622866,3.45515916 0.727486428,7.76674329 2.2660882,11.5286671 C3.80468998,15.2897419 8.1175578,17.0972004 11.8773489,15.5594476 C12.2135389,15.4218202 12.594038,15.5837347 12.7312305,15.9173573 C12.8680089,16.2522635 12.7077922,16.6340463 12.3733208,16.7712388 C11.3012895,17.2097123 10.1909122,17.4172196 9.09842421,17.4172196 Z M15.0103736,14.8964678 C15.0018431,14.8964678 14.9933333,14.8964678 14.9848028,14.896033 C14.6239115,14.8819741 14.342259,14.5781671 14.3559037,14.216841 L14.4385588,12.0531706 C14.4526176,11.6922794 14.7662182,11.408929 15.1177507,11.4242716 C15.4786419,11.4383304 15.7602945,11.7421375 15.7466498,12.1034635 L15.6639947,14.2671339 C15.6503707,14.6195153 15.3601876,14.8964678 15.0103736,14.8964678 Z M17.1744788,14.9791435 C17.1659483,14.9791435 17.1574385,14.9791435 17.1489079,14.9787087 L14.9848028,14.8960537 C14.6239115,14.882409 14.342259,14.5781878 14.3559037,14.2168617 C14.3699625,13.8559705 14.6767511,13.5768854 15.0350956,13.5879627 L17.1992008,13.6706177 C17.5600921,13.6842625 17.8417446,13.9884836 17.8280999,14.3498097 C17.8144552,14.7021704 17.5242928,14.9791435 17.1744788,14.9791435 Z" id="形状"></path>
            </g>
        </g>
    </g>
</svg>