<?xml version="1.0" encoding="UTF-8"?>
<svg width="95px" height="46px" viewBox="0 0 95 46" version="1.1" xmlns="http://www.w3.org/2000/svg" xmlns:xlink="http://www.w3.org/1999/xlink">
    <!-- Generator: Sketch 51 (57462) - http://www.bohemiancoding.com/sketch -->
    <title>章</title>
    <desc>Created with Sketch.</desc>
    <defs>
        <polygon id="path-1" points="0.00014349093 0.19857623 90.7993241 0.19857623 90.7993241 31.3151778 0.00014349093 31.3151778"></polygon>
    </defs>
    <g id="Page-1" stroke="none" stroke-width="1" fill="none" fill-rule="evenodd">
        <g id="章" transform="translate(60.294647, 29.722938) rotate(10.000000) translate(-60.294647, -29.722938) translate(0.794647, 8.222938)">
            <g id="Group-10" transform="translate(0.091219, 0.225660)">
                <path d="M23.519816,1.19499018 C23.9431023,1.35901363 24.1556273,2.0697819 24.4095991,2.12533823 C24.7058995,2.2346872 25.340829,1.68706052 25.891983,1.90575845 C25.6803399,1.79640949 25.0868572,1.35901363 24.875214,1.41368811 C24.3672705,1.24966466 23.7737878,0.976292251 23.2658442,0.757594321 C22.2490752,0.812268804 23.3928301,2.18001271 23.519816,1.19499018 M16.0646857,2.39871064 C16.3186575,3.10947892 16.1070144,2.8361065 16.6581684,3.21882788 C16.6581684,3.21882788 18.2252096,3.87492167 17.8019233,3.00012995 C17.7172661,2.8361065 16.8698116,2.78143202 16.7851543,2.8361065 C16.8274829,2.72675754 16.4033148,1.85108397 16.5726293,1.85108397 C15.7260567,1.74173501 16.2763289,1.74173501 16.0646857,2.39871064 M28.729765,1.08564122 C28.729765,0.866943286 28.6874364,0.812268804 28.5181219,0.757594321 L28.391136,1.08564122 C28.5181219,1.19499018 28.6451078,1.19499018 28.729765,1.08564122 M19.4536218,2.56273409 C19.4112932,2.67208306 21.020663,1.1403157 20.8090199,1.90575845 C20.3857335,1.74173501 22.2490752,2.0697819 21.5286066,2.12533823 C21.7411316,2.12533823 22.1220893,2.78143202 22.3760611,2.50805961 C23.6891305,0.976292251 20.7666912,1.08564122 20.3010763,1.08564122 C20.3010763,0.976292251 19.5382791,0.866943286 19.5806077,0.757594321 C18.9024677,0.538896391 19.5806077,1.68706052 19.7922509,1.46836259 C19.7499222,1.52303708 19.7499222,1.74173501 19.7075936,1.79640949 C19.665265,1.68706052 18.5638387,2.18001271 19.4536218,2.56273409 M27.4166956,2.0697819 C27.374367,2.28936168 26.908752,3.38285133 27.2897097,3.43752581 C27.2897097,3.38285133 27.4166956,3.00012995 27.4166956,2.94545547 C28.2641501,3.43752581 27.8823106,1.85108397 27.0357379,1.79640949 C27.1627238,1.96043294 27.2897097,2.01510742 27.4166956,2.0697819 M23.0118724,2.94545547 C23.9854309,3.43752581 23.3505014,1.90575845 23.3081728,1.96043294 C23.3081728,1.90575845 22.1220893,2.50805961 23.0118724,2.94545547 M27.8399819,3.1641534 C27.7976533,3.1641534 27.7976533,3.1641534 27.8399819,3.1641534 M27.8399819,3.1641534 C27.7976533,3.1641534 27.7976533,3.1641534 27.8399819,3.1641534 M26.4422552,1.63238604 L25.9343117,1.90575845 C26.1882835,2.18001271 26.357598,1.96043294 26.4422552,1.63238604 M29.5348909,3.60154926 C29.5348909,3.60154926 29.5772195,3.60154926 29.5348909,3.60154926 M32.3303443,2.94545547 C32.3303443,3.00012995 32.3303443,3.00012995 32.3303443,2.94545547 M40.0817749,1.74173501 C40.0817749,1.74173501 40.0817749,1.68706052 40.0817749,1.74173501 M40.9283476,1.68706052 C40.9283476,1.68706052 40.9283476,1.63238604 40.9283476,1.68706052 M45.3340526,1.79640949 C45.3340526,1.85108397 45.2493954,1.85108397 45.3340526,1.79640949 M36.1848953,3.82024719 C36.100238,3.82024719 36.2272239,3.76557271 36.1848953,3.82024719 M50.967288,1.57771156 C50.967288,1.57771156 50.9249594,1.63238604 50.967288,1.57771156 M49.6965472,3.38285133 C49.7388759,3.38285133 49.6965472,3.38285133 49.6965472,3.38285133 M48.4258064,3.87492167 C48.4258064,3.82024719 48.4681351,3.82024719 48.4258064,3.87492167 M49.4849041,2.89078099 C49.4425755,2.8361065 49.4849041,2.8361065 49.4849041,2.89078099 M46.9857511,3.54687478 C47.0280798,3.54687478 46.9857511,3.54687478 46.9857511,3.54687478 M54.1022523,2.12533823 C54.1445809,2.12533823 54.1022523,2.12533823 54.1022523,2.12533823 M54.8218391,2.50805961 C54.8218391,2.45338513 54.8641677,2.50805961 54.8218391,2.50805961 M55.5423076,2.45338513 C55.499979,2.45338513 55.5423076,2.39871064 55.5423076,2.45338513 M55.7962794,2.56273409 C55.7539508,2.56273409 55.7962794,2.56273409 55.7962794,2.56273409 M54.2292382,3.10947892 C54.1869096,3.1641534 54.2715668,3.00012995 54.2292382,3.10947892 M52.6189865,2.34403616 C52.6189865,2.28936168 52.6189865,2.34403616 52.6189865,2.34403616 M29.0683941,2.8361065 C28.8990796,2.67208306 28.7720937,2.72675754 28.6874364,2.89078099 C28.3064787,4.03982696 32.5419874,3.65622374 32.7959592,3.60154926 C32.6689733,3.43752581 32.5419874,3.32817685 32.3726729,3.27350236 C33.3894419,3.38285133 35.1257977,3.87492167 36.3542098,3.87492167 C36.8198248,3.87492167 40.3780754,3.71089822 40.420404,3.76557271 C40.6320472,3.87492167 41.9027879,4.47722282 41.7334734,3.98427064 C42.4116134,4.25852489 43.4275005,3.82024719 44.1479691,3.71089822 C44.6135841,3.65622374 44.9954236,3.71089822 45.4187099,3.71089822 C45.6726817,3.71089822 46.3931503,3.27350236 46.3931503,3.27350236 C47.8332056,3.38285133 46.3508217,3.930478 47.112737,4.09450145 C47.4099193,4.14917593 50.5440017,3.60154926 50.5016731,3.27350236 C51.0096167,3.49220029 51.1366026,1.24966466 52.6189865,2.28936168 C52.5343293,2.78143202 51.7300853,3.82024719 51.9417284,3.98427064 C52.0263857,4.03982696 52.3650147,3.82024719 52.2803575,3.60154926 C52.3650147,3.82024719 53.5510983,4.25852489 53.6357555,3.82024719 C53.6780842,3.98427064 54.9064963,4.58657179 54.7371818,3.82024719 C55.0334822,3.98427064 56.6437339,3.00012995 56.5590766,2.8361065 C57.6181743,3.27350236 57.2786634,2.78143202 57.5758456,1.85108397 C57.4903065,1.68706052 57.8721461,1.41368811 57.4903065,1.24966466 C57.4056493,1.19499018 55.8386081,1.74173501 55.7116222,1.85108397 C55.5423076,2.39871064 54.9064963,0.921617769 55.0334822,0.976292251 C54.8641677,0.866943286 54.6525245,1.19499018 54.7371818,1.35901363 C54.6948532,1.35901363 51.0096167,1.52303708 51.0096167,1.41368811 C50.8403021,1.46836259 49.3155896,1.68706052 49.3579182,1.74173501 C48.5960028,2.0697819 47.7062197,1.52303708 47.1973943,1.74173501 C47.3243802,1.57771156 46.9010939,1.57771156 46.8587652,1.41368811 C46.9010939,1.41368811 47.0280798,1.03096673 46.8587652,0.976292251 C46.9434225,1.03096673 46.0536394,1.57771156 46.1391785,1.52303708 C46.2238358,1.19499018 43.7246828,1.30433915 43.5976969,1.41368811 C43.6400255,1.30433915 43.7246828,0.976292251 43.5544864,0.866943286 C43.5121578,0.866943286 42.0297738,1.57771156 41.9874452,1.57771156 C41.5218303,1.74173501 40.0817749,0.812268804 39.8278032,1.52303708 C39.1496632,1.24966466 38.8956914,1.46836259 38.4300765,1.41368811 C37.9635797,1.35901363 36.904482,0.812268804 36.6928389,0.812268804 C35.9732521,0.812268804 36.100238,1.68706052 34.74484,1.41368811 C34.1090286,1.30433915 32.7536306,0.866943286 32.711302,0.593570874 C32.6689733,2.01510742 31.694533,1.63238604 30.9326176,1.19499018 L30.8056317,1.68706052 C30.8056317,1.68706052 29.407905,0.812268804 29.4925623,1.46836259 C29.4925623,1.46836259 29.407905,1.41368811 29.4925623,1.35901363 C28.6451078,1.24966466 29.1530514,2.39871064 29.0683941,2.8361065" id="Fill-1" fill="#E6201A"></path>
                <path d="M17.3778433,42.0004965 C17.2085288,42.1098455 17.1662002,42.2191945 17.3355147,42.3285434 C17.5048292,42.273869 17.5471579,42.16452 17.3778433,42.0004965 Z M24.1971623,38.2261936 C24.2394909,38.5542404 24.3673586,38.6089149 24.5366732,38.390217 C24.4943445,38.0621701 24.4096873,38.0074956 24.1971623,38.2261936 Z M26.6963152,1.74155864 C26.8233011,1.79711497 26.9079584,1.85178945 27.0358261,1.90646393 L26.6963152,1.74155864 Z M37.2864097,1.03079036 C37.4557243,1.19481381 37.5827102,1.14013933 37.7096961,0.9214414 C37.7520247,0.538720022 37.2864097,0.538720022 37.2864097,1.03079036 Z M17.5471579,2.78125565 C17.6741438,2.34385979 17.8011297,1.96113841 17.8857869,1.46818622 C17.2931861,1.19481381 17.0392143,2.56255772 17.5471579,2.78125565 Z" id="Fill-3" fill="#E6201A"></path>
                <g id="Group-7" transform="translate(0.000000, 0.881846)">
                    <mask id="mask-2" fill="white">
                        <use xlink:href="#path-1"></use>
                    </mask>
                    <g id="Clip-6"></g>
                    <path d="M0.519583953,16.2108959 C0.561912585,16.2108959 0.561912585,16.2108959 0.519583953,16.2108959 M8.31334325,0.286511925 C8.35567188,0.202736509 8.22868599,0.32795871 8.31334325,0.286511925 M6.78863066,2.38177919 C6.74630203,2.33945056 6.78863066,2.38177919 6.78863066,2.38177919 M2.08662517,5.06347437 C2.04429654,5.18957842 2.04429654,5.02202759 2.08662517,5.06347437 M2.08662517,6.90741539 C2.08662517,6.9911908 2.08662517,6.8659686 2.08662517,6.90741539 M8.01704283,29.2022584 C8.01704283,29.2860338 8.01704283,29.2860338 8.01704283,29.2022584 M2.34059696,15.4983639 C2.38292559,15.4569171 2.46758285,15.4983639 2.34059696,15.4983639 M2.08662517,3.97439395 C2.08662517,3.93206532 2.08662517,3.93206532 2.08662517,3.97439395 M3.2727087,0.705389009 C3.23038007,0.705389009 3.23038007,0.705389009 3.2727087,0.705389009 M12.4218661,2.13045294 C12.4218661,2.13045294 12.4641947,2.17189973 12.4218661,2.13045294 M20.8937653,29.4535846 C20.8514367,29.4950314 20.8937653,29.4535846 20.8937653,29.4535846 M23.2659324,29.2022584 C23.2659324,29.2437052 23.2659324,29.3274806 23.2659324,29.2022584 M26.9079584,29.411256 C26.9926156,29.4535846 26.950287,29.4535846 26.9079584,29.411256 M14.58239,29.4950314 C14.58239,29.4535846 14.6670472,29.4535846 14.58239,29.4950314 M30.0429227,30.2913388 C30.0429227,30.249892 30.000594,30.2075634 30.0429227,30.2913388 M29.4071113,30.7525445 C29.44944,30.7525445 29.4071113,30.8363199 29.4071113,30.7525445 M39.657695,29.2437052 C39.7000236,29.2437052 39.657695,29.3274806 39.657695,29.2437052 M53.2972147,29.4535846 C53.254886,29.4535846 53.2972147,29.411256 53.2972147,29.4535846 M47.5361115,31.0876462 C47.5361115,31.0461994 47.5361115,31.0461994 47.5361115,31.0876462 M74.9421368,29.118483 C74.9421368,29.1599298 74.9421368,29.1599298 74.9421368,29.118483 M76.6784925,29.411256 C76.6361639,29.4535846 76.5938353,29.411256 76.6784925,29.411256 M77.7799188,29.411256 C77.8222474,29.4535846 77.8222474,29.4535846 77.7799188,29.411256 M83.0745252,29.4950314 C83.1168538,29.5373601 83.0321965,29.5373601 83.0745252,29.4950314 M83.4554828,29.2022584 C83.4554828,29.2860338 83.4554828,29.2437052 83.4554828,29.2022584 M85.3197063,29.2022584 C85.3197063,29.2437052 85.3197063,29.2437052 85.3197063,29.2022584 M85.700664,29.3274806 C85.6583354,29.3698092 85.6583354,29.3274806 85.700664,29.3274806 M87.521677,29.2860338 C87.521677,29.3698092 87.521677,29.3274806 87.521677,29.2860338 M89.0049428,29.0347076 C89.0896001,29.411256 88.7500892,29.2022584 89.0049428,29.0347076 M89.3435719,17.4260803 C89.3859005,17.4260803 89.3435719,17.468409 89.3435719,17.4260803 M89.0896001,0.747717641 C89.0472714,0.747717641 89.0472714,0.747717641 89.0896001,0.747717641 M88.199817,29.4950314 C88.2421456,29.5373601 88.199817,29.5788069 88.199817,29.4950314 M73.9253678,31.0038708 C74.0100251,30.962424 73.9676964,31.0038708 73.9253678,31.0038708 M65.6651117,30.962424 C65.6651117,30.962424 65.7083222,30.962424 65.6651117,30.962424 M63.0389729,29.2437052 C63.0813015,29.2022584 63.0813015,29.2437052 63.0389729,29.2437052 M60.6676876,29.4950314 C60.6676876,29.4535846 60.7523449,29.4535846 60.6676876,29.4950314 M82.184742,2.42322598 C82.184742,2.33945056 82.2270707,2.38177919 82.184742,2.42322598 M71.2145717,2.08812431 C71.172243,2.04667752 71.2145717,2.04667752 71.2145717,2.08812431 M70.0708168,1.96290211 C70.1131454,1.96290211 70.0708168,1.96290211 70.0708168,1.96290211 M71.0452572,1.20804151 C71.0875858,1.20804151 71.1299144,1.25037014 71.0452572,1.20804151 M63.3361551,2.13045294 C63.4208124,2.08812431 63.4208124,2.13045294 63.3361551,2.13045294 M58.93045,0.872939842 C58.93045,0.915268474 58.93045,0.872939842 58.93045,0.872939842 M58.8034642,2.42322598 C58.8034642,2.38177919 58.8034642,2.38177919 58.8034642,2.42322598 M58.591821,1.92057347 C58.591821,1.92057347 58.591821,1.96290211 58.591821,1.92057347 M0.477255321,29.4950314 C0.265612163,31.3389724 1.79032475,30.8786486 3.01873691,30.8363199 C3.7392055,30.8363199 6.23747661,31.5488519 6.61931614,30.962424 C7.04260245,30.962424 8.7789582,30.7948732 8.86361546,31.0461994 C9.20312636,31.1714216 10.3045526,31.0876462 10.8548248,31.0876462 C11.7869366,31.0876462 12.6758378,31.0038708 13.6926069,30.962424 C15.3443053,30.962424 17.2085288,31.1299748 18.8602273,31.0461994 C20.5542544,30.962424 22.2068347,31.0461994 23.9855191,31.0038708 C24.9176308,30.962424 26.5270007,31.3389724 27.3744552,31.1299748 C27.4167838,31.1299748 28.983825,31.0461994 29.1108109,31.0038708 C29.9159368,30.7948732 29.9159368,30.4588897 30.6355235,30.4174429 C30.5931949,30.4174429 33.0923478,31.2975257 32.499747,30.3751142 C32.5420756,30.3751142 34.2784314,31.5488519 34.1514455,30.962424 C34.8295854,31.1714216 36.0571157,30.8786486 36.819913,30.8363199 C37.2440811,30.8363199 40.5474781,31.2975257 40.4204922,30.962424 C40.5898067,31.0038708 42.2838338,30.962424 42.2838338,30.9200954 C43.0043024,31.1714216 44.3173718,31.0038708 45.2918122,30.962424 C45.5881126,30.962424 48.5952092,31.1714216 48.5528805,30.962424 C48.8923914,31.0876462 52.5767461,30.8363199 52.6614033,31.0461994 C52.6614033,31.0461994 52.7892711,31.0876462 52.6614033,31.1299748 C53.0432429,31.2137502 55.5423958,30.6687691 55.6270531,31.0038708 C55.754039,31.0461994 57.9145629,30.7948732 57.9145629,31.1299748 C57.9145629,31.5488519 58.8881214,31.0876462 58.6764783,31.0038708 C59.0151073,30.8786486 61.5989175,31.2975257 61.6844566,30.962424 C61.5989175,30.8363199 63.8864273,31.4227479 63.5477983,31.2975257 C63.5901269,31.3389724 66.5125662,31.1299748 66.5972234,30.962424 C66.5548948,30.962424 66.5548948,30.9200954 66.5125662,30.9200954 C67.1060489,31.6740741 67.2753634,30.962424 67.5293352,30.8786486 C67.5293352,30.8786486 70.9182713,31.3813011 70.833614,31.0876462 C70.7489567,31.0461994 71.1299144,31.1714216 70.833614,31.1714216 C71.2145717,31.2975257 71.172243,30.8786486 71.2569003,30.8363199 C71.172243,31.0876462 75.7463808,31.1299748 76.0435631,31.1714216 C77.4836184,31.2975257 79.5162746,30.6264405 80.8716726,31.0876462 C81.7191271,30.7948732 82.9052106,31.1299748 83.8373224,31.0461994 C84.683895,31.0038708 85.700664,30.962424 86.5057899,30.8786486 C87.2253766,30.7948732 87.9458452,31.1299748 88.7500892,31.0038708 C90.02083,30.7948732 90.1054872,30.7102159 90.4449981,29.9562371 C90.4449981,29.9985658 90.4873268,28.7410527 90.7412986,28.7410527 C90.5296554,28.7410527 90.5296554,26.2683551 90.4873268,26.435906 C90.4873268,26.3944592 90.4449981,26.435906 90.4449981,26.3521305 C90.9106131,26.56201 90.6143127,24.9270666 90.4873268,25.3044969 C90.4449981,25.0954993 90.4026695,24.5919649 90.4026695,24.5505182 C90.4873268,24.718069 90.6143127,22.9579034 90.4449981,23.4605559 C90.4449981,23.3767805 90.4026695,23.4605559 90.4026695,23.4191091 C90.9106131,23.6281067 90.0631586,22.3291468 90.0631586,22.5804731 C90.0631586,22.4552509 90.9529417,21.2400664 90.4873268,21.3652886 C90.8682844,20.2338796 90.1910263,19.1024705 90.1478159,18.5160426 C90.1054872,18.0962837 91.037599,15.917241 90.4449981,15.4145885 C90.3603409,15.2893663 90.6143127,13.067995 90.6143127,12.9418909 C90.6143127,12.0203613 90.7836272,11.4753802 90.7412986,10.5538506 C90.7412986,9.58911057 90.8682844,7.82982682 90.5296554,6.94974402 C90.8682844,6.32098747 90.9106131,5.56612687 90.5296554,5.14724979 C90.8682844,5.06347437 90.4449981,3.26186199 90.4873268,3.26186199 C90.5296554,3.26186199 90.7836272,1.33414556 90.6989699,1.20804151 C90.0631586,0.244183294 88.5807746,0.999043891 87.734202,0.747717641 C87.183048,0.956715259 86.8020903,1.25037014 85.9969644,1.20804151 C85.4890208,1.16659472 85.5313495,0.747717641 84.7262236,0.747717641 C84.7685523,0.747717641 84.3029373,0.747717641 84.3452659,0.663060377 C83.8373224,0.370287342 84.1759514,0.915268474 83.9643083,0.915268474 C82.9898679,0.621613592 82.1424134,0.621613592 81.167973,0.621613592 C80.363729,0.621613592 79.2199741,0.872939842 78.4571769,0.789164426 C77.9492333,0.747717641 76.6361639,0.537838175 76.2128776,0.621613592 C75.9156953,0.579284961 74.9844654,0.747717641 74.3909827,0.705389009 C74.2639968,0.705389009 72.4006552,0.705389009 72.4429838,0.872939842 C72.3583266,0.831493057 71.0875858,0.579284961 71.0875858,0.621613592 C70.3247886,0.956715259 70.5364317,0.537838175 70.1978027,0.411734127 C69.9861595,0.32795871 69.9438309,0.747717641 69.9861595,0.705389009 C69.816845,0.747717641 69.6475305,0.370287342 69.4350055,0.747717641 C69.3926768,0.747717641 69.5196627,0.747717641 69.4773341,0.789164426 C69.6052018,0.747717641 67.9526215,0.621613592 68.334461,0.747717641 C68.334461,0.747717641 68.334461,0.789164426 68.2921324,0.789164426 C68.4191183,0.495509544 66.1739371,0.915268474 66.1739371,0.705389009 C66.1739371,0.747717641 61.9807571,0.495509544 62.0230857,0.747717641 C61.6412462,0.621613592 58.8034642,0.454062759 58.8034642,0.579284961 C58.8034642,0.495509544 58.4648351,0.915268474 58.5071637,1.29181693 C58.5071637,1.33414556 59.3969468,1.58547181 59.3969468,1.62780044 C59.5239327,2.00434889 57.9145629,1.83679806 57.8713524,2.00434889 C57.7443665,2.29800377 58.8457928,2.63310544 58.7611355,2.59077681 C59.3122896,2.88443169 58.7611355,2.21422836 59.1853037,2.29800377 C60.1588622,2.46555461 59.0574359,2.50700139 59.5662614,2.80065627 C59.8625618,2.96820711 59.8625618,2.59077681 59.9048904,2.50700139 C60.0318763,2.88443169 60.2858481,2.21422836 60.3281767,2.21422836 C59.8625618,2.84298491 61.5565889,2.25567514 61.3872744,2.33945056 C61.3872744,2.29800377 62.6580152,3.09431116 62.4887006,2.33945056 C62.5733579,2.33945056 62.5310293,2.38177919 62.4887006,2.38177919 C63.2938265,2.50700139 64.0134132,2.25567514 64.7338818,2.46555461 C64.945525,2.38177919 66.5125662,2.67543407 66.6395521,2.42322598 C66.9367343,2.50700139 68.5037756,2.59077681 68.800076,2.33945056 C69.0117191,2.50700139 69.1810337,2.46555461 69.2656909,2.25567514 C69.9861595,2.67543407 70.8759426,2.54933002 71.3838862,2.29800377 C71.2145717,2.80065627 72.2313407,2.63310544 72.1458016,2.63310544 C72.6969556,2.75920949 72.2313407,2.21422836 72.9085988,2.46555461 C72.9085988,2.50700139 72.7392843,2.75920949 72.9085988,2.84298491 C73.0355847,2.88443169 74.0946823,2.38177919 74.3909827,2.33945056 C75.0691227,2.25567514 75.0267941,2.42322598 75.5347376,2.29800377 C75.5347376,2.29800377 77.1017789,3.01053574 76.974793,2.54933002 C78.2455338,2.96820711 80.5330436,2.50700139 82.1424134,2.63310544 C82.9052106,2.71688086 84.2182801,2.71688086 85.1503918,2.59077681 C85.6160067,2.50700139 86.1671608,2.54933002 86.5481185,2.33945056 C86.5057899,2.38177919 87.7765306,1.58547181 87.3946911,1.45936776 C87.4793484,1.66924722 87.9881738,1.62780044 88.0728311,1.71157586 C88.0305024,1.58547181 87.9035165,3.97439395 88.4537888,2.54933002 C88.538446,2.75920949 87.734202,2.38177919 88.7932997,2.71688086 L89.0472714,3.47085961 C88.9626142,3.42941282 88.4114601,4.64459729 88.9202855,4.51849324 C88.4537888,5.9858858 88.7500892,7.99737765 88.7500892,9.38011295 C88.7500892,9.96654087 88.6231033,15.1632622 88.6654319,15.1632622 C88.7500892,14.9957114 88.7077605,17.0909787 88.7077605,17.04865 C89.0049428,18.3476099 89.6398723,17.2585295 90.02083,17.8035106 C90.0631586,17.8035106 89.5128864,19.8987779 89.5128864,19.8987779 C89.5128864,19.8564493 89.555215,19.8987779 89.5128864,19.8987779 C89.3435719,20.4852058 89.1742573,20.7788607 89.0472714,21.156291 C89.0049428,21.2400664 88.7500892,22.1201492 88.7077605,22.1201492 C88.2844742,22.1201492 88.6654319,22.8317993 88.8356283,22.874128 C88.538446,23.3767805 88.8779569,23.879433 88.8356283,24.005537 C89.1319287,25.0117239 88.538446,26.1845797 88.6231033,27.3583174 C88.6654319,27.7771945 89.1742573,28.3636224 88.9202855,28.8248281 C88.7500892,29.2022584 87.7765306,29.2022584 87.7765306,29.5788069 L87.4793484,29.0347076 C87.3100339,28.9500503 87.1407193,29.2022584 87.183048,29.3274806 C86.5057899,29.0761544 85.0657345,29.3698092 84.3029373,29.3698092 C83.3284969,29.3698092 82.8205534,29.2437052 82.3117279,29.0347076 C82.3540566,29.0347076 80.2790718,29.6211355 80.2367431,29.3698092 C79.6432605,29.2022584 79.6855891,29.4950314 79.4316173,29.4950314 C79.6009318,29.3274806 77.991562,29.4535846 77.991562,29.2437052 C77.991562,29.0347076 76.2552062,29.3698092 76.0435631,29.411256 C75.2384372,29.4535846 74.5179686,29.3698092 74.1793396,29.0761544 C73.9676964,28.8662749 73.3750956,29.5373601 73.4597528,29.4950314 C73.7137246,28.8248281 70.833614,29.5373601 70.7057463,29.5373601 C70.155474,29.5788069 68.5884328,29.4950314 68.2498038,29.411256 C67.9102929,29.5373601 67.3600207,29.411256 67.1907061,29.4950314 C67.2753634,29.2860338 64.3952528,29.4950314 64.8608677,29.7049109 C64.5645673,29.8310149 63.8440987,29.2437052 63.463141,29.2022584 C62.7850011,29.1599298 62.5733579,29.4535846 62.3193861,29.5373601 C62.5310293,28.9500503 60.8793308,29.6211355 61.1756312,29.5373601 C61.090974,29.6625823 58.2955206,29.5788069 58.2108633,29.5373601 C57.8290238,29.6211355 54.9912418,29.1599298 54.9912418,29.3698092 C54.9912418,29.2860338 54.0168014,28.9500503 54.1014587,29.4950314 C53.4665292,29.3274806 47.8756224,29.5788069 47.7909652,29.4535846 C47.1974825,29.2022584 41.5642471,29.4535846 41.5642471,29.3698092 C41.5642471,29.3274806 40.208849,28.6987241 40.4204922,29.411256 L40.3781635,29.411256 C40.208849,28.9923789 38.9804369,29.3274806 38.8111223,29.4950314 C38.2176396,29.7463577 37.2440811,29.0347076 36.6505984,29.3698092 C36.6505984,29.3698092 35.5915008,30.7102159 35.6338294,30.7525445 C35.6761581,30.7525445 35.2105431,30.2913388 35.0835572,30.7102159 C31.7369498,29.3698092 35.1258858,30.6687691 34.7017177,30.5849937 C34.7017177,30.5426651 34.7017177,30.5426651 34.659389,30.5426651 C34.9142427,30.3336674 33.7281592,29.2437052 33.4309769,29.2022584 C33.4309769,29.2022584 32.4574184,30.1661166 32.4574184,29.7463577 C32.4574184,28.9086035 28.8991678,29.3274806 29.2377968,29.7463577 C28.3912242,29.7886863 27.8400701,29.2022584 26.9079584,29.2860338 C26.6539866,29.3274806 25.7218748,29.5788069 25.8920712,29.6211355 C25.7650853,29.6625823 25.6372176,29.4950314 25.5102317,29.5373601 C25.5525603,29.411256 25.6795462,29.1599298 25.4679031,29.0761544 C25.3409172,29.0347076 24.4943445,29.4950314 24.7483163,29.6211355 C24.1971623,29.7886863 22.9264215,28.6987241 22.5454638,29.5373601 C22.630121,29.5788069 21.3593803,29.118483 21.4863661,29.4950314 C21.3170516,29.4535846 20.0463108,29.3698092 20.3849399,29.4950314 C20.3426112,29.4950314 20.3849399,29.4950314 20.257954,29.5788069 C20.3849399,29.2437052 19.2843955,29.7049109 19.1141991,29.4950314 C19.1565277,29.4950314 19.2420668,29.2022584 19.1141991,29.1599298 C19.0295418,29.118483 18.436941,29.5788069 18.3522837,29.6211355 C18.4792696,29.3274806 17.758801,29.5373601 17.758801,29.3274806 C17.758801,29.0347076 15.937788,29.4535846 15.7261449,29.7049109 C15.5568303,29.6211355 13.7349355,29.0761544 13.4809637,29.5788069 C13.565621,29.6211355 13.565621,29.6211355 13.4809637,29.6625823 C13.6926069,29.2022584 12.083237,29.4950314 12.3372088,29.5788069 C12.083237,29.5373601 11.5744116,29.2437052 11.3627684,29.5373601 C11.4474257,29.5373601 11.4050971,29.5373601 11.3204398,29.5788069 C11.3627684,29.4950314 9.75339857,28.7410527 9.83805583,29.411256 C9.07614047,29.1599298 7.76218919,29.3698092 7.16958835,29.6211355 C7.33890288,29.2437052 4.92440718,29.4950314 5.00906444,29.4950314 C4.96673581,29.4950314 3.10339417,29.4535846 3.14572281,29.5373601 C1.66333885,29.0347076 2.29826833,26.0593575 2.2559397,24.8018444 C2.21361106,23.2092296 2.21361106,21.5328395 2.21361106,19.9825533 C2.21361106,18.6835934 2.50991149,17.3423049 2.50991149,16.043345 C2.50991149,15.204709 2.21361106,14.4507303 2.21361106,13.7805269 C2.21361106,13.5706475 2.1289538,12.1041368 2.04429654,12.2716876 C2.08662517,12.3131344 2.04429654,11.3078294 2.00196791,11.1817253 C2.50991149,11.4339334 2.29826833,9.6314392 2.08662517,10.2178671 C2.08662517,10.1340917 2.04429654,10.1764203 2.00196791,10.0503163 C2.46758285,10.2601958 2.29826833,8.45770152 2.08662517,9.08645807 C2.04429654,8.96123587 2.04429654,9.08645807 2.00196791,8.91890724 C2.1289538,9.04501128 2.55312196,8.12259985 2.21361106,7.8712736 C2.17128243,7.99737765 2.1289538,7.95504902 2.08662517,7.82982682 C2.38292559,7.99737765 2.63777923,6.57231372 2.21361106,6.73986455 C2.76476512,5.69223092 1.87498201,3.80684312 2.08662517,3.17808657 C1.79032475,1.79535127 3.7392055,3.26186199 3.7392055,2.46555461 C4.71276402,2.38177919 5.98350482,2.59077681 7.08493109,2.67543407 C7.42356014,2.71688086 8.31334325,2.42322598 8.60964367,2.42322598 C8.90594409,2.42322598 10.5585244,2.42322598 10.4315385,2.38177919 C11.7022793,1.87912669 13.3116492,3.55463502 12.1255656,1.54314318 C12.5065233,1.71157586 12.1678943,0.872939842 12.0409084,1.16659472 C12.0409084,1.12426609 11.9985797,1.08281931 11.9562511,1.04049068 C12.2948802,1.16659472 10.8548248,-0.0909183733 10.6431817,0.663060377 C10.6008531,0.579284961 10.6431817,0.579284961 10.5585244,0.537838175 C10.7701676,0.621613592 10.8124962,0.286511925 10.6431817,0.202736509 C10.5585244,0.160407877 10.3468813,0.454062759 10.4738672,0.495509544 C9.88038447,0.411734127 10.262224,0.537838175 9.83805583,0.747717641 C9.49942678,0.663060377 9.07614047,0.32795871 8.73662957,0.286511925 C8.60964367,0.286511925 7.29657424,0.454062759 7.42356014,0.495509544 C7.21191698,0.537838175 5.00906444,0.663060377 5.00906444,0.831493057 C4.75509265,0.663060377 4.03550592,0.370287342 3.90852002,0.705389009 C3.69599502,0.202736509 2.08662517,0.747717641 1.79032475,0.747717641 C1.66333885,0.747717641 1.19684206,0.705389009 1.06985616,0.747717641 C1.49402433,0.579284961 -0.9628,1.08281931 0.43492669,1.20804151 C0.43492669,1.87912669 0.646569848,8.20637527 0.43492669,8.2487039 L0.43492669,8.29015069 C0.265612163,8.33247932 0.561912585,10.7628483 0.223283532,10.7628483 C0.265612163,10.8466237 -0.0306882579,11.3916048 0.477255321,11.2663826 L0.477255321,11.3078294 L0.477255321,11.2663826 C0.561912585,11.8528105 0.223283532,18.1800591 0.519583953,18.1800591 C0.392598058,18.1800591 0.519583953,22.9155748 0.519583953,23.2515583 C0.519583953,23.5028845 0.265612163,29.2437052 0.138626269,29.2022584 C0.1809549,29.2860338 0.265612163,29.4535846 0.477255321,29.4950314" id="Fill-5" fill="#E6201A" mask="url(#mask-2)"></path>
                </g>
                <path d="M30.8900244,1.30442733 L30.7630385,0.921705953 C30.6783812,1.14040388 30.7630385,1.24975285 30.8900244,1.30442733 M13.5661501,3.71098641 C13.6084787,3.71098641 13.6508073,3.71098641 13.5661501,3.71098641 M12.9303387,1.85117216 C12.676367,2.78152021 13.480611,3.76566089 13.7777932,3.92968434 C13.9894364,4.0390333 16.0220925,3.87500986 16.1076317,3.65631193 C16.1076317,3.65631193 14.9215481,1.85117216 14.9215481,1.52312526 C14.9215481,0.921705953 14.0740936,2.89086917 14.031765,2.94554365 C13.8201219,2.56282228 13.6084787,2.39879883 13.4382823,2.61749676 C13.8624505,1.52312526 13.014996,0.648333541 12.7186956,1.52312526 C12.676367,1.74182319 12.7610242,1.85117216 12.9303387,1.85117216 M20.724098,3.16424158 C20.385469,4.36796204 21.1473844,3.05489262 21.0203985,3.00021814 C20.8510839,2.89086917 20.7664267,2.94554365 20.724098,3.16424158 M18.5212455,1.74182319 C18.5635741,1.90584664 18.8607564,1.85117216 18.9454137,1.74182319 C19.1147282,1.35910181 18.0556306,0.757682506 17.9286447,1.46845078 C18.0979592,1.57779974 18.3096023,1.63247423 18.5212455,1.74182319 M24.7902922,2.61749676 C25.1721317,2.78152021 24.5786491,2.17921905 24.6633063,2.23477538 C24.5786491,2.45347331 24.6633063,2.56282228 24.7902922,2.61749676" id="Fill-8" fill="#E6201A"></path>
            </g>
            <text id="已用印" font-family="FZLTZHK--GBK1-0, Lantinghei SC" font-size="16" font-weight="500" fill="#E6201A">
                <tspan x="23.5084248" y="22.4451587">已用印</tspan>
            </text>
        </g>
    </g>
</svg>