<?xml version="1.0" encoding="UTF-8"?>
<svg width="26px" height="31px" viewBox="0 0 26 31" version="1.1" xmlns="http://www.w3.org/2000/svg" xmlns:xlink="http://www.w3.org/1999/xlink">
    <!-- Generator: Sketch 53.2 (72643) - https://sketchapp.com -->
    <title>ic_excel</title>
    <desc>Created with Sketch.</desc>
    <g id="Page-1" stroke="none" stroke-width="1" fill="none" fill-rule="evenodd">
        <g id="发票查询-" transform="translate(-1102.000000, -227.000000)" fill="#1890FF" fill-rule="nonzero">
            <g id="ic_Excel-" transform="translate(1102.000000, 227.000000)">
                <g id="分组-4">
                    <g id="ic_excel">
                        <path d="M25.4986554,8.85954238 L25.4986554,8.73937755 L25.4986554,8.73937769 C25.4607087,8.58706487 25.3838043,8.4472387 25.2754926,8.33362648 L17.1604683,0.218602231 L17.1604683,0.218602248 C17.0486383,0.112170611 16.9109084,0.0368494479 16.7609587,0.000120984112 L3.1839102,0.000120984112 L3.18391015,0.000120983587 C1.70585173,-0.0145870716 0.495724582,1.17169336 0.481015909,2.64975472 C0.481004781,2.65087302 0.480994354,2.65199133 0.480984627,2.65310964 L0.480984627,27.4304462 L0.480984627,27.4304463 C0.480984404,28.9077168 1.67854928,30.1052815 3.15581979,30.1052815 C3.15634013,30.1052815 3.15686047,30.1052813 3.15738081,30.105281 L22.8425415,30.105281 L22.8425414,30.105281 C24.3198119,30.1061429 25.5180763,28.9092775 25.5189377,27.432007 C25.518938,27.4314866 25.5189382,27.4309663 25.5189382,27.4304459 L25.5189382,8.96096307 C25.5142564,8.92663039 25.5064535,8.89541878 25.4986506,8.85952527 L25.4986554,8.85954238 Z M17.4288773,3.02140771 L22.4851562,8.08862331 L17.4288773,8.08862331 L17.4288773,3.02140771 Z M23.7539005,27.4304542 L23.7539005,27.4304542 C23.7539005,27.9225905 23.3549465,28.3215445 22.8628101,28.3215445 L22.8425226,28.3215445 L22.8425226,28.3621197 L3.17920591,28.3621197 L3.17920588,28.3621197 C2.6862081,28.3629846 2.28585468,27.964033 2.28499033,27.4710352 C2.28498759,27.4694723 2.28498895,27.4679094 2.28499442,27.4663466 L2.28499442,2.65311296 L2.28499442,2.65311282 C2.28499449,2.16011504 2.68464813,1.76046133 3.17764591,1.76046133 L15.6451201,1.76046133 L15.6451201,8.96097834 L15.6451201,8.96097848 C15.6451202,9.45397626 16.0447738,9.85362997 16.5377716,9.85362997 L23.7538999,9.85362997 L23.7539005,27.4304542 Z M8.569449,23.1216922 L16.1304687,23.1216922 L16.386404,21.5080512 L10.6668678,21.5080512 L11.0616941,19.0095613 L16.2459499,19.0095613 L16.5081274,17.3522235 L11.3238715,17.3522235 L11.664079,15.2111076 L17.1604421,15.2111076 L17.428862,13.5085148 L10.0925772,13.5085148 L8.569449,23.1216922 L8.569449,23.1216922 Z" id="形状"></path>
                    </g>
                </g>
            </g>
        </g>
    </g>
</svg>