<?xml version="1.0" encoding="UTF-8"?>
<svg width="29px" height="25px" viewBox="0 0 29 25" version="1.1" xmlns="http://www.w3.org/2000/svg" xmlns:xlink="http://www.w3.org/1999/xlink">
    <!-- Generator: Sketch 53.2 (72643) - https://sketchapp.com -->
    <title>ic_image</title>
    <desc>Created with Sketch.</desc>
    <g id="Page-1" stroke="none" stroke-width="1" fill="none" fill-rule="evenodd">
        <g id="发票查询-" transform="translate(-1102.000000, -294.000000)" fill="#1890FF" fill-rule="nonzero">
            <g id="ic_image" transform="translate(1102.000000, 294.000000)">
                <g id="分组-3" transform="translate(0.500000, 0.512312)">
                    <g id="ic_image">
                        <path d="M24.2320594,23.8132046 L3.80898881,23.8132046 C1.73906452,23.8132046 0.0546875636,22.1288277 0.0546875636,20.0589034 L0.0546875636,4.1174786 C0.0546875636,2.04755432 1.73906452,0.36317736 3.80898881,0.36317736 L24.2320594,0.36317736 C26.3019837,0.36317736 27.9863607,2.04755432 27.9863607,4.1174786 L27.9863607,20.0589034 C27.9863607,22.1288277 26.3019837,23.8132046 24.2320594,23.8132046 Z M3.80898881,2.00380427 C2.6441437,2.00380427 1.69531447,2.9526335 1.69531447,4.1174786 L1.69531447,20.0589034 C1.69531447,21.2237485 2.6441437,22.1725777 3.80898881,22.1725777 L24.2320594,22.1725777 C25.3969046,22.1725777 26.3457338,21.2237485 26.3457338,20.0589034 L26.3457338,4.1174786 C26.3457338,2.9526335 25.3969046,2.00380427 24.2320594,2.00380427 L3.80898881,2.00380427 Z M4.60195848,7.22920097 L4.60195848,7.22920134 C4.60195868,8.55209623 5.67437887,9.62451662 6.99727377,9.62451662 C8.32016867,9.62451642 9.39258905,8.55209623 9.39258905,7.22920134 L9.39258905,7.22920134 C9.39258905,5.90630644 8.32016867,4.83388605 6.99727377,4.83388605 C5.67437887,4.83388605 4.60195848,5.90630644 4.60195848,7.22920134 L4.60195848,7.22920097 Z M5.31836556,18.5467923 C4.87266192,18.3690577 4.67305231,17.8549946 4.88086505,17.4256972 C5.10508407,16.9608529 5.43047507,16.3428835 5.84610055,15.6975702 C7.01641441,13.8710056 8.29336903,12.7471761 9.63594871,12.3561601 C11.4187633,11.8366282 12.4961083,12.5202228 13.3601718,13.0698328 C14.1011883,13.5401458 14.6863452,13.9120213 15.7636902,13.7424898 C15.935956,13.715146 16.1191594,13.4608489 16.2422064,13.2530361 C16.4883004,12.8374106 16.7070507,12.2522537 16.9367385,11.6315498 C17.3605671,10.4995173 17.8390833,9.21435953 18.7140843,8.41045235 C19.4168195,7.7651391 20.4750238,7.54638884 21.8640879,7.76240472 C22.1703383,7.80888915 22.457448,7.87177985 22.7090108,7.93740492 C23.1847926,8.06045194 23.4472929,8.56904628 23.2695583,9.02842182 C23.1191675,9.41396914 22.703542,9.62725064 22.3043228,9.52607865 C21.4511968,9.30732839 20.3109611,9.17607824 19.8242418,9.62178188 C19.2390849,10.15772 18.8508032,11.1995181 18.4761934,12.2057693 C17.9347865,13.6522553 17.3769733,15.1506946 16.0207218,15.3639761 C14.3308761,15.6292107 13.3054842,14.9784287 12.4824364,14.4561625 C11.6922011,13.9530369 11.1672005,13.6194428 10.0980586,13.9338963 C9.16563567,14.2073341 8.17852514,15.1151477 7.24610218,16.5643681 C6.86328924,17.149525 6.56250764,17.7182757 6.35742927,18.1421043 C6.17149156,18.5276516 5.71758478,18.7053862 5.31836556,18.5467923 L5.31836556,18.5467923 Z" id="形状"></path>
                    </g>
                </g>
            </g>
        </g>
    </g>
</svg>