<?xml version="1.0" encoding="UTF-8"?>
<svg width="26px" height="31px" viewBox="0 0 26 31" version="1.1" xmlns="http://www.w3.org/2000/svg" xmlns:xlink="http://www.w3.org/1999/xlink">
    <!-- Generator: Sketch 53.2 (72643) - https://sketchapp.com -->
    <title>ic_PDF</title>
    <desc>Created with Sketch.</desc>
    <g id="Page-1" stroke="none" stroke-width="1" fill="none" fill-rule="evenodd">
        <g id="发票查询-" transform="translate(-1102.000000, -356.000000)" fill="#1890FF" fill-rule="nonzero">
            <g id="ic_PDF" transform="translate(1102.000000, 356.000000)">
                <g transform="translate(0.000000, 0.512312)" id="形状">
                    <path d="M25.4986554,8.85954238 L25.4986554,8.73937755 L25.4986554,8.73937769 C25.4607087,8.58706487 25.3838043,8.4472387 25.2754926,8.33362648 L17.1604683,0.218602231 L17.1604683,0.218602248 C17.0486383,0.112170611 16.9109084,0.0368494479 16.7609587,0.000120984112 L3.1839102,0.000120984112 L3.18391015,0.000120983587 C1.70585173,-0.0145870716 0.495724582,1.17169336 0.481015909,2.64975472 C0.481004781,2.65087302 0.480994354,2.65199133 0.480984627,2.65310964 L0.480984627,27.4304462 L0.480984627,27.4304463 C0.480984404,28.9077168 1.67854928,30.1052815 3.15581979,30.1052815 C3.15634013,30.1052815 3.15686047,30.1052813 3.15738081,30.105281 L22.8425415,30.105281 L22.8425414,30.105281 C24.3198119,30.1061429 25.5180763,28.9092775 25.5189377,27.432007 C25.518938,27.4314866 25.5189382,27.4309663 25.5189382,27.4304459 L25.5189382,8.96096307 C25.5142564,8.92663039 25.5064535,8.89541878 25.4986506,8.85952527 L25.4986554,8.85954238 Z M17.4288773,3.02140771 L22.4851562,8.08862331 L17.4288773,8.08862331 L17.4288773,3.02140771 Z M23.7539005,27.4304542 L23.7539005,27.4304542 C23.7539005,27.9225905 23.3549465,28.3215445 22.8628101,28.3215445 L22.8425226,28.3215445 L22.8425226,28.3621197 L3.17920591,28.3621197 L3.17920588,28.3621197 C2.6862081,28.3629846 2.28585468,27.964033 2.28499033,27.4710352 C2.28498759,27.4694723 2.28498895,27.4679094 2.28499442,27.4663466 L2.28499442,2.65311296 L2.28499442,2.65311282 C2.28499449,2.16011504 2.68464813,1.76046133 3.17764591,1.76046133 L15.6451201,1.76046133 L15.6451201,8.96097834 L15.6451201,8.96097848 C15.6451202,9.45397626 16.0447738,9.85362997 16.5377716,9.85362997 L23.7538999,9.85362997 L23.7539005,27.4304542 Z"></path>
                    <path d="M5.79369714,25.1084894 L6.14176229,25.2914467 C6.34480029,25.4052372 6.55006947,25.4275491 6.68617187,25.4275491 C7.61880795,25.4275491 8.66969694,24.3253428 10.0887317,21.8531878 C11.6617184,21.3377837 13.4622862,20.911627 15.0464288,20.6795836 C16.3226677,21.3779451 17.8153317,21.8464943 18.774742,21.8464943 C18.9599305,21.8464943 19.1250383,21.8264136 19.2499848,21.7907146 C19.4731035,21.7304726 19.6538296,21.6032949 19.7743137,21.4248 C19.9595022,21.1392081 20.0264378,20.7375944 19.9661957,20.2868947 C19.9661957,20.1307116 19.8702547,19.9388296 19.7319211,19.8228079 C19.4106302,19.5059793 18.7457366,19.3475651 17.7528584,19.3475651 C17.0589593,19.3475651 16.2958934,19.4033447 15.5417523,19.5082105 L15.5082845,19.4881298 C15.1758377,19.2917854 14.8322349,19.0909786 14.5778796,18.8366233 C13.8036578,18.1114876 13.1543824,17.1096847 12.7416129,16.014172 C12.7683871,15.9204621 12.7840054,15.8312147 12.7973925,15.7441984 C12.815242,15.6393326 13.2525546,13.1493281 13.1320706,12.263547 C13.1164522,12.1542188 13.1008339,12.1073639 13.0740597,12.0315035 L13.0205112,11.6254275 C12.8821776,11.2907495 12.5943545,10.7106409 12.1414236,10.7106409 L11.907149,10.7106409 C11.4185191,10.7106409 11.0057495,11.2282763 10.9053461,11.6120404 C10.6331413,12.633924 10.8964214,14.2180666 11.4118255,16.2350595 L11.298035,16.5697375 C10.9343515,17.4421315 10.4970389,18.3502246 10.079807,19.1713013 L10.0307209,19.287323 C9.67596219,19.9946092 9.33459061,20.6148792 9.03338039,21.1525952 L8.90174037,21.3935634 L8.57598709,21.5586712 C8.56929353,21.5609024 7.9155558,21.8955804 7.7794534,22.0004462 C6.48313387,22.7702056 5.65759475,23.6269814 5.51479879,24.3409611 C5.43447607,24.6711768 5.54380422,24.9746182 5.79369714,25.1084894 Z M17.7528584,20.4363842 C18.2660314,20.4363842 18.4021338,20.4363842 18.8907637,20.5657931 C19.1161136,20.6193415 19.205361,20.6952019 19.2299041,20.7331321 C19.1518126,20.7554439 18.9844735,20.7822182 18.8572959,20.7822182 C18.4936124,20.7822182 18.0652246,20.6595029 17.5029655,20.4363842 L17.7528584,20.4363842 Z M12.1280365,12.0315035 C12.2195151,12.1765307 12.3399992,12.5669884 12.3578487,13.1894895 C12.3690047,13.6089526 12.3020691,13.9391682 12.217284,14.1957547 C12.13473,13.7517486 12.0967999,13.2229573 12.0967999,12.8168813 C12.0901063,12.5335206 12.1034934,12.2055361 12.1280365,12.0315035 Z M11.1418519,19.8696628 C11.5412344,19.095441 11.8580629,18.4193913 12.1012622,17.8125085 C12.5497308,18.5688809 13.1030651,19.227081 13.7545717,19.7692594 L13.7724212,19.7826465 C12.6545966,20.0303082 11.6550249,20.3092066 10.7380071,20.6327287 C10.8830342,20.3716798 11.0146743,20.1195557 11.1418519,19.8696628 L11.1418519,19.8696628 Z M8.22569076,22.5270063 C8.27700806,22.475689 8.42649758,22.3418178 8.56036878,22.2079465 C7.58980252,23.7809332 6.93606479,24.4012032 6.50098336,24.60201 C6.66832237,24.1691597 7.28636112,23.2967657 8.22569076,22.5270063 Z" stroke="#1890FF" stroke-width="0.3"></path>
                </g>
            </g>
        </g>
    </g>
</svg>