<?xml version="1.0" encoding="UTF-8"?>
<svg width="12px" height="12px" viewBox="0 0 12 12" version="1.1" xmlns="http://www.w3.org/2000/svg" xmlns:xlink="http://www.w3.org/1999/xlink">
    <!-- Generator: Sketch 52.3 (67297) - http://www.bohemiancoding.com/sketch -->
    <title>ic_client_phone</title>
    <desc>Created with Sketch.</desc>
    <g id="Page-1" stroke="none" stroke-width="1" fill="none" fill-rule="evenodd">
        <g id="客户明细" transform="translate(-245.000000, -362.000000)">
            <g id="ic_client_phone" transform="translate(243.000000, 360.000000)">
                <rect id="矩形" fill="#000000" opacity="0" x="0" y="0" width="16" height="16"></rect>
                <path d="M11.2265414,13.1811732 C10.8715899,13.1811732 10.5118417,13.1364045 10.1568902,13.0484661 C9.31587888,12.8390127 8.4988508,12.5176376 7.72978914,12.0923354 C6.92075547,11.6462476 6.18527031,11.0946338 5.54092136,10.4550814 L5.53772359,10.4518837 C4.89817128,9.80753472 4.3481563,9.07204956 3.90046967,8.26301588 C3.47516739,7.49395422 3.15379234,6.67692614 2.94433897,5.83431597 C2.74128111,5.02048566 2.77325872,4.17147995 3.0338763,3.44558808 C3.30088939,2.70530628 3.76936145,2.19206555 4.3225742,2.03857298 C4.5640052,1.97141998 4.955731,1.95862894 5.4545818,2.27680622 C5.99820127,2.62376334 6.55780953,3.30648544 7.11741781,4.30418705 L7.11901669,4.30578592 C7.26131708,4.56000797 7.38123314,4.84141098 7.31088238,5.17078042 C7.25811931,5.41700806 7.11901669,5.61686816 6.9095633,5.91745775 C6.77685619,6.10772456 6.61217147,6.3459578 6.40911361,6.67532723 C6.26841209,6.90396719 6.48745877,7.34525828 6.61696811,7.52433294 L6.62816028,7.53872286 L6.63615469,7.55151391 C6.63935245,7.55790942 7.02148495,8.1510942 7.43079844,8.56360544 C7.84011192,8.9745178 8.43329669,9.35185366 8.43969222,9.35505142 L8.45727991,9.36624359 L8.47007095,9.37583688 C8.64275008,9.50054958 9.09203558,9.72439289 9.31907666,9.58688914 C9.65164386,9.38383128 9.88827822,9.21754767 10.0801439,9.08324169 C10.3791346,8.87378831 10.5773958,8.73628456 10.8236235,8.68352148 C11.1529929,8.61317073 11.432797,8.73468567 11.6870191,8.87698606 C12.6847207,9.43659434 13.3690417,9.99460373 13.7159988,10.5398221 C14.0325772,11.0354751 14.021385,11.4272009 13.9558309,11.6686319 L13.9558309,11.6718297 C13.8023384,12.2234435 13.2890977,12.6935145 12.5488158,12.9605276 C12.1363046,13.1076247 11.6870191,13.1811732 11.2265414,13.1811732 Z M6.23963225,9.75317278 C6.81842709,10.327171 7.48196262,10.822824 8.20945337,11.2241431 C8.90336764,11.6078745 9.64045167,11.8972719 10.3967223,12.0859399 C11.0234835,12.2426302 11.6678325,12.2218447 12.2098531,12.0251824 C12.5248326,11.9116619 12.9197562,11.681423 12.9981013,11.4064155 C13.0060957,11.3760368 12.9981013,11.2593185 12.8797841,11.0722495 C12.7023084,10.7940442 12.2658139,10.3367643 11.2009593,9.74038177 C11.0922354,9.6796243 11.0410712,9.66043772 11.0218847,9.6540422 C10.9563306,9.67802542 10.7932447,9.79314483 10.6477466,9.89387433 C10.4558809,10.0281803 10.1936644,10.2104527 9.83551513,10.4294994 L9.83391625,10.4310983 C9.45658039,10.6613371 8.98650944,10.6805237 8.47806534,10.488658 C8.18387128,10.3783352 7.96162684,10.2280404 7.89607273,10.1816729 C7.79534325,10.1177176 7.18457078,9.71959631 6.72888977,9.26071753 C6.27320875,8.80343763 5.87188967,8.19266517 5.80953331,8.09513344 C5.76476466,8.0311782 5.61287097,7.80893378 5.5025482,7.51154195 C5.31068252,7.00149898 5.33306684,6.53302691 5.56490455,6.15409217 C5.78235233,5.80073952 5.96302586,5.53852306 6.09573297,5.34825625 C6.19966022,5.19956034 6.31477964,5.03327673 6.33876284,4.96772263 C6.3339662,4.94853606 6.31477963,4.89737188 6.25242328,4.78545022 C5.65923852,3.72699114 5.20355748,3.29209556 4.92695111,3.11302092 C4.73508542,2.98990709 4.61836713,2.9819127 4.58958727,2.98990709 C4.41690814,3.03787352 4.14989505,3.272909 3.96762264,3.77815531 C3.77255919,4.32177478 3.75017486,4.96452486 3.90686517,5.59128613 C4.09553311,6.3507545 4.38652941,7.08623966 4.76866192,7.78015392 C5.17157989,8.5124413 5.66563406,9.17437794 6.23963225,9.75317278 Z" id="形状" fill="#666666" fill-rule="nonzero"></path>
            </g>
        </g>
    </g>
</svg>