<?xml version="1.0" encoding="UTF-8"?>
<svg width="15px" height="17px" viewBox="0 0 15 17" version="1.1" xmlns="http://www.w3.org/2000/svg" xmlns:xlink="http://www.w3.org/1999/xlink">
    <!-- Generator: Sketch 52.5 (67469) - http://www.bohemiancoding.com/sketch -->
    <title>ic_client_contact</title>
    <desc>Created with Sketch.</desc>
    <g id="Page-1" stroke="none" stroke-width="1" fill="none" fill-rule="evenodd">
        <g id="客户明细-默认" transform="translate(-234.000000, -813.000000)">
            <g id="ic_client_contact" transform="translate(232.000000, 812.000000)">
                <rect id="矩形" fill="#000000" opacity="0" x="0" y="0" width="19" height="19"></rect>
                <path d="M2.84623016,10.1532796 L16.1853611,10.1532796 C14.7129866,15.027407 12.4655429,17.3813612 9.44303017,17.2151421 C6.42051744,17.0489231 4.2215841,14.6949689 2.84623016,10.1532796 Z" id="路径-2" fill="#E3F2FD" fill-rule="nonzero"></path>
                <path d="M16.6901116,3.64287013 L15.9782842,3.63180063 C15.9612148,3.63180063 14.3654038,3.59857315 12.7172262,2.95823231 C11.0268403,2.30076509 9.93743492,1.54566603 9.92735275,1.53860282 L9.4985095,1.24059986 L9.07057764,1.53860282 C9.06051447,1.54564705 7.97014074,2.30076507 6.28070418,2.95823231 C4.63353297,3.59956048 3.0367346,3.63178164 3.02266513,3.63178164 L2.30681249,3.64287013 L2.30681249,10.5868801 C2.30681249,14.0734482 6.98444305,17.7594191 9.49945887,17.7594191 C12.015481,17.7594191 16.6931495,14.0734482 16.6931495,10.5868801 L16.6901116,3.64287013 Z M9.49947785,16.7284371 C7.41034328,16.7284371 3.33779448,13.412962 3.33779448,10.5868231 L3.33779448,4.64865621 C3.92679414,4.6084035 5.26181699,4.46140516 6.65421895,3.91972143 C8.08087367,3.36394924 9.11789358,2.73572218 9.50048418,2.49004775 C9.91125168,2.75687384 10.9180631,3.36394924 12.3437305,3.91972143 C13.741164,4.46241149 15.0792058,4.6084035 15.6601359,4.64865621 L15.6621296,10.5868231 C15.6621486,13.412962 11.5885934,16.7284371 9.49947785,16.7284371 Z M11.6794004,8.06412807 L8.9217481,10.8187804 L7.76600171,9.50790918 C7.57670005,9.29445591 7.25146955,9.27429158 7.03805426,9.46161856 C6.82361365,9.65088223 6.80348729,9.97609375 6.99275097,10.189547 L8.51101859,11.9122111 C8.60559347,12.0189187 8.73950968,12.0813484 8.88149542,12.0853737 C8.88755232,12.08638 8.8925839,12.08638 8.89767245,12.08638 C9.03451268,12.08638 9.16546689,12.0330072 9.26209238,11.9364007 L12.4084112,8.79511346 C12.6097507,8.59379294 12.6097507,8.26755613 12.4094175,8.06521033 C12.2079451,7.86371895 11.8807969,7.8648202 11.6794004,8.06412807 Z" id="形状" stroke="#247BD8" stroke-width="0.2" fill="#247BD8" fill-rule="nonzero"></path>
            </g>
        </g>
    </g>
</svg>