<?xml version="1.0" encoding="UTF-8"?>
<svg width="27px" height="27px" viewBox="0 0 27 27" version="1.1" xmlns="http://www.w3.org/2000/svg" xmlns:xlink="http://www.w3.org/1999/xlink">
    <!-- Generator: Sketch 52.3 (67297) - http://www.bohemiancoding.com/sketch -->
    <title>ic_client_face</title>
    <desc>Created with Sketch.</desc>
    <g id="Page-1" stroke="none" stroke-width="1" fill="none" fill-rule="evenodd">
        <g id="客户明细" transform="translate(-637.000000, -328.000000)">
            <g id="ic_client_face" transform="translate(637.000000, 328.000000)">
                <g id="分组" transform="translate(0.005418, 0.005418)">
                    <path d="M0.0119142491,13.1652452 L0.0119142491,13.1652472 C0.0119153459,20.4296329 5.90085949,26.3185781 13.1652452,26.3185781 C20.4296309,26.318577 26.3185762,20.4296329 26.3185762,13.1652472 C26.3185762,5.90086147 20.4296309,0.0119162352 13.1652452,0.0119162352 C5.90085949,0.0119162352 0.0119142491,5.90086147 0.0119142491,13.1652472 L0.0119142491,13.1652452 Z" id="路径" fill="#90CAF9"></path>
                    <path d="M20.942867,20.1422295 C20.5234854,19.4178431 17.5115633,18.5028288 16.215293,17.5878145 C14.9190227,16.6728001 15.7959114,15.8721626 16.215293,15.452781 C16.6346745,15.0333995 16.9778049,14.4233899 17.9309448,12.898366 C18.8840848,11.3733421 17.9309448,11.1827142 17.9309448,11.1827142 C17.8546936,8.05641521 17.3590609,6.8745217 16.215293,5.6926282 C15.9102882,5.38762342 15.4146554,5.19699544 14.8427715,5.12074424 L14.8427715,4.85386506 C14.8427715,4.85386506 10.8395838,4.51073469 9.73394148,5.6926282 C8.62829916,6.8745217 8.09454081,8.05641521 8.01828961,11.2208398 C8.01828961,11.2208398 7.06514969,11.3733421 8.01828961,12.9364916 C8.97142954,14.4615155 9.31455991,15.0715251 9.73394148,15.4909066 C10.153323,15.9102882 11.0302118,16.7109257 9.73394148,17.6259401 C8.43767118,18.5409544 5.42574902,19.4559687 5.00636745,20.180355 C4.77761387,20.561611 4.3582323,21.6291277 4.05322753,22.8491468 C4.70136268,23.4591564 8.170792,26.6998321 14.0421339,26.3948274 C14.0421339,26.3948274 18.6934568,26.242325 21.9722581,23.2304028 C21.6672533,21.7816301 21.2097462,20.561611 20.942867,20.1422295 Z" id="路径" fill="#FFFFFF"></path>
                </g>
            </g>
        </g>
    </g>
</svg>