<?xml version="1.0" encoding="UTF-8"?>
<svg width="15px" height="17px" viewBox="0 0 15 17" version="1.1" xmlns="http://www.w3.org/2000/svg" xmlns:xlink="http://www.w3.org/1999/xlink">
    <!-- Generator: Sketch 52.3 (67297) - http://www.bohemiancoding.com/sketch -->
    <title>ic_client_judicial risk</title>
    <desc>Created with Sketch.</desc>
    <g id="Page-1" stroke="none" stroke-width="1" fill="none" fill-rule="evenodd">
        <g id="客户明细" transform="translate(-235.000000, -812.000000)" fill-rule="nonzero">
            <g id="司法风险" transform="translate(225.000000, 799.000000)">
                <g id="ic_client_judicial-risk" transform="translate(10.000000, 13.000000)">
                    <path d="M11.0059606,12.2810177 L11.0019068,10.8747409 C11.0023585,10.1604815 10.4169819,9.5817834 9.70272457,9.58133158 L9.69384764,8.98721703 C11.1599285,8.21209753 12.1148834,6.69273915 12.1159647,4.97012185 C12.1002518,2.46403514 10.0600868,0.431165731 7.55398437,0.446882575 C7.18573567,0.444177985 6.81992377,0.493376488 6.47386213,0.579659345 C4.4172631,1.09242708 3.00241735,2.9154894 3.01097683,5.01377727 C3.02009345,6.22975359 3.49389702,7.37188265 4.35591154,8.21767756 C4.77333246,8.62820737 5.26248524,8.94733839 5.79124063,9.17257932 L5.80022485,9.59863085 C5.0859654,9.59817913 4.50726734,10.1835557 4.50681552,10.8978131 L4.51089593,12.2620752 L2.27543127,12.2500597 C1.19292302,12.246903 0.310045968,13.1286658 0.329129187,14.216131 L0.337794478,16.1463666 L14.993125,16.1463666 L14.9745989,14.1765815 C14.9604461,13.108891 14.0627365,12.2891166 13,12.2810177 L11.0059606,12.2810177 Z M6.96371922,9.31807783 L6.95661115,8.1446502 C6.29350816,8.01473267 5.68621303,7.70626749 5.21446871,7.20230479 C4.62123615,6.56789759 4.31157216,5.74820153 4.33507232,4.87852257 C4.38096597,3.37901534 5.43497555,2.11320012 6.90020134,1.80175676 C7.14938965,1.74879015 7.41490132,1.72360743 7.6767996,1.73044627 C9.47022811,1.78679101 10.8733769,3.29081962 10.8248744,5.0721801 C10.7768621,6.56171995 9.68447588,7.79402157 8.28330207,8.11269811 L8.28330207,9.57609594 L7.61237752,9.57609594 L6.96371922,9.58428423 L6.96371922,9.31807783 Z" id="形状" fill="#1890FF"></path>
                    <path d="M1.93470091,13.4482648 L2.0875537,12.8266636 C2.16907532,12.4801978 2.52573198,12.2560126 2.87219777,12.3477251 L13.1394578,14.9311231 C13.4859235,15.0126448 13.6897286,15.3693014 13.6082062,15.7055772 L13.4553534,16.3577485 L1.93470091,13.4482648 Z" id="路径" fill="#E3F2FD" transform="translate(7.780408, 14.342434) rotate(-14.000000) translate(-7.780408, -14.342434) "></path>
                    <path d="M9.30054828,11.3647171 C9.56549366,11.4258583 9.7285365,11.7009929 9.66739417,11.9659383 L9.47378056,12.7403923 L5.69321486,11.8130855 L5.87663841,11.0386315 C5.94796978,10.763496 6.21291415,10.6004532 6.48804958,10.6717856 L9.30054828,11.3647171 Z" id="路径" fill="#E3F2FD" transform="translate(7.686722, 11.697718) rotate(-14.000000) translate(-7.686722, -11.697718) "></path>
                </g>
            </g>
        </g>
    </g>
</svg>