<?xml version="1.0" encoding="UTF-8"?>
<svg width="13px" height="16px" viewBox="0 0 13 16" version="1.1" xmlns="http://www.w3.org/2000/svg" xmlns:xlink="http://www.w3.org/1999/xlink">
    <!-- Generator: Sketch 52.3 (67297) - http://www.bohemiancoding.com/sketch -->
    <title>ic_client_contact</title>
    <desc>Created with Sketch.</desc>
    <g id="Page-1" stroke="none" stroke-width="1" fill="none" fill-rule="evenodd">
        <g id="客户明细" transform="translate(-234.000000, -273.000000)">
            <g id="ic_client_contact" transform="translate(232.000000, 272.000000)">
                <rect id="矩形" fill="#000000" opacity="0" x="0" y="0" width="18" height="18"></rect>
                <rect id="矩形" fill="#E3F2FD" fill-rule="nonzero" x="2.7" y="9.88793945" width="11.3682373" height="6.31206055"></rect>
                <path d="M4.8936571,2.18889993 L3.99207138,2.18889993 C3.00033208,2.18889993 2.18889993,3.0646182 2.18889993,4.13492852 L2.18889993,14.8380858 C2.18889993,15.9083961 3.00033208,16.7841144 3.99207138,16.7841144 L13.0079286,16.7841144 C13.9996679,16.7841144 14.8111001,15.9083961 14.8111001,14.8380858 L14.8111001,4.13492852 C14.8111001,3.0646182 13.9996679,2.18889993 13.0079286,2.18889993 L12.1964965,2.18889993 L12.1964965,3.16191422 L13.0079286,3.16191422 C13.5488834,3.16191422 13.9095143,3.55111634 13.9095143,4.13492852 L13.9095143,14.8380858 C13.9095143,15.3245839 13.5488834,15.8111001 13.0079286,15.8111001 L3.99207138,15.8111001 C3.45111661,15.8111001 3.09048565,15.421898 3.09048565,14.8380858 L3.09048565,4.13492852 C3.09048565,3.64843037 3.45111661,3.16191422 3.99207138,3.16191422 L4.8936571,3.16191422 L4.8936571,2.18889993 Z M6.69682856,3.16191422 L10.3031714,3.16191422 L10.3031714,2.18889993 L6.69682856,2.18889993 L6.69682856,3.16191422 Z M5.79524282,2.18889993 C5.79524282,1.60508776 6.24602734,1.21588564 6.69682856,1.21588562 L10.3031714,1.21588562 C10.7539726,1.21588562 11.2047572,1.60508774 11.2047572,2.18889993 L11.2047572,3.16191422 C11.2047572,3.7457264 10.7539727,4.13492852 10.3031714,4.13492852 L6.69682856,4.13492852 C6.24604404,4.13492852 5.79524283,3.7457264 5.79524282,3.16191422 L5.79524282,2.18889993 Z M9.9039223,10.0256106 C10.2890709,9.62707286 10.5288971,9.06624909 10.5288971,8.44493233 C10.5288971,7.23563024 9.62052773,6.25529491 8.5,6.25529491 C7.37947227,6.25529491 6.47110294,7.23563024 6.47110294,8.44493233 C6.47110294,9.06624907 6.71092911,9.62707284 7.0960777,10.0256106 C6.09855483,10.5769368 5.41582779,11.6974691 5.41582779,12.9900727 L6.31741351,12.9900727 C6.31741351,11.6891587 7.29458557,10.6345698 8.5,10.6345698 C9.70541443,10.6345698 10.6825865,11.6891588 10.6825865,12.9900727 L11.5841722,12.9900727 C11.5841722,11.6974691 10.9014452,10.5769368 9.9039223,10.0256106 Z M7.37268866,8.44493233 C7.37268866,7.77301588 7.87740866,7.2283092 8.5,7.2283092 C9.12259134,7.2283092 9.62731134,7.77301588 9.62731134,8.44493233 C9.62731134,9.11684878 9.12259134,9.66155546 8.5,9.66155546 C7.87740866,9.66155546 7.37268866,9.11684878 7.37268866,8.44493233 Z" id="形状" stroke="#247BD8" stroke-width="0.2" fill="#247BD8" fill-rule="nonzero"></path>
            </g>
        </g>
    </g>
</svg>