<?xml version="1.0" encoding="UTF-8"?>
<svg width="16px" height="16px" viewBox="0 0 16 16" version="1.1" xmlns="http://www.w3.org/2000/svg" xmlns:xlink="http://www.w3.org/1999/xlink">
    <!-- Generator: Sketch 52.5 (67469) - http://www.bohemiancoding.com/sketch -->
    <title>ic_client_association</title>
    <desc>Created with Sketch.</desc>
    <g id="Page-1" stroke="none" stroke-width="1" fill="none" fill-rule="evenodd">
        <g id="客户明细-默认" transform="translate(-232.000000, -913.000000)">
            <g id="ic_client_association" transform="translate(232.000000, 913.000000)">
                <rect id="矩形" fill="#000000" opacity="0" x="0" y="0" width="16" height="16"></rect>
                <rect id="矩形" fill="#E3F2FD" fill-rule="nonzero" x="4.92307692" y="6.15384615" width="9.84615385" height="8.61538462"></rect>
                <path d="M9.92,11.4 L2.28,11.4 C1.24,11.4 0.4,10.56 0.4,9.52 L0.4,2.28 C0.4,1.24 1.24,0.4 2.28,0.4 L9.92,0.4 C10.96,0.4 11.8,1.24 11.8,2.28 L11.8,2.84 C11.8,3.24 11.48,3.56 11.08,3.56 C10.68,3.56 10.36,3.24 10.36,2.84 L10.36,2.28 C10.36,2.04 10.16,1.84 9.92,1.84 L2.28,1.84 C2.04,1.84 1.84,2.04 1.84,2.28 L1.84,9.52 C1.84,9.76 2.04,9.96 2.28,9.96 L9.92,9.96 C10.16,9.96 10.36,9.76 10.36,9.52 L10.36,8.2 C10.36,7.8 10.68,7.48 11.08,7.48 C11.48,7.48 11.8,7.8 11.8,8.2 L11.8,9.52 C11.8,10.56 10.96,11.4 9.92,11.4 Z M6.48,16 C5.44,16 4.6,15.16 4.6,14.12 L4.6,13.6 C4.6,13.2 4.92,12.88 5.32,12.88 C5.72,12.88 6.04,13.2 6.04,13.6 L6.04,14.12 C6.04,14.36 6.24,14.56 6.48,14.56 L14.12,14.56 C14.36,14.56 14.56,14.36 14.56,14.12 L14.56,6.88 C14.56,6.64 14.36,6.44 14.12,6.44 L6.48,6.44 C6.24,6.44 6.04,6.64 6.04,6.88 L6.04,8.2 C6.04,8.6 5.72,8.92 5.32,8.92 C4.92,8.92 4.6,8.6 4.6,8.2 L4.6,6.88 C4.6,5.84 5.44,5 6.48,5 L14.12,5 C15.16,5 16,5.84 16,6.88 L16,14.12 C16,15.16 15.16,16 14.12,16 L6.48,16 Z" id="形状" fill="#247BD8" fill-rule="nonzero"></path>
            </g>
        </g>
    </g>
</svg>