<?xml version="1.0" encoding="UTF-8"?>
<svg width="14px" height="16px" viewBox="0 0 14 16" version="1.1" xmlns="http://www.w3.org/2000/svg" xmlns:xlink="http://www.w3.org/1999/xlink">
    <!-- Generator: Sketch 52.5 (67469) - http://www.bohemiancoding.com/sketch -->
    <title>ic_client_remarks</title>
    <desc>Created with Sketch.</desc>
    <g id="Page-1" stroke="none" stroke-width="1" fill="none" fill-rule="evenodd">
        <g id="客户明细-默认" transform="translate(-233.000000, -1111.000000)">
            <g id="ic_client_remarks" transform="translate(232.000000, 1111.000000)">
                <rect id="矩形" fill="#000000" opacity="0" x="0" y="0" width="16" height="16"></rect>
                <path d="M1.91026598,9.68247768 C1.65621342,12.7748326 1.59270028,14.32101 1.71972656,14.32101 C1.84675284,14.32101 3.44072322,14.2553478 6.50163769,14.1240234 L11.3406593,8.99567522 L6.49843638,4.69210379 L1.91026598,9.68247768 Z" id="路径-3" fill="#E3F2FD" fill-rule="nonzero"></path>
                <path d="M13.5448166,2.29030317 C12.7706695,1.49308369 11.7486744,1.03585769 10.7408457,1.03585769 C9.93053109,1.03585769 9.19231161,1.33653383 8.66214306,1.88249967 L1.55788775,9.19856338 C1.45757177,9.30185334 1.39858775,9.43830483 1.3920322,9.58214331 L1.17395606,14.3723356 C1.16640917,14.5379833 1.22903872,14.699138 1.34644711,14.8162266 C1.45712408,14.9266158 1.60683056,14.98819 1.76237311,14.98819 C1.7718227,14.98819 1.78132027,14.9879662 1.79080183,14.9875025 L6.44233609,14.7629188 C6.59154692,14.7557076 6.73245939,14.6920708 6.83653283,14.5849114 L13.9408041,7.26886372 C15.1645025,6.00867811 14.9868469,3.77531234 13.5448166,2.29030317 Z M6.15330006,13.597373 L2.38027417,13.7795375 L2.55874517,9.85896364 L3.37558336,9.01777397 L6.98795017,12.7378278 L6.15330006,13.597373 Z M13.0956172,6.44812417 L7.80905745,11.892273 L4.19669064,8.17220325 L9.50734602,2.70322322 C9.9000078,2.29885738 10.3948563,2.21397094 10.7408297,2.21397094 C11.432089,2.21397094 12.146037,2.54093325 12.6996137,3.11102673 C13.1962849,3.62251994 13.5041722,4.26478848 13.5665299,4.91952856 C13.6249063,5.53242502 13.4576597,6.07528895 13.0956172,6.44812417 Z" id="形状" stroke="#247BD8" stroke-width="0.3" fill="#247BD8" fill-rule="nonzero"></path>
            </g>
        </g>
    </g>
</svg>