<?xml version="1.0" encoding="UTF-8"?>
<svg width="16px" height="14px" viewBox="0 0 16 14" version="1.1" xmlns="http://www.w3.org/2000/svg" xmlns:xlink="http://www.w3.org/1999/xlink">
    <!-- Generator: Sketch 52.5 (67469) - http://www.bohemiancoding.com/sketch -->
    <title>ic_client_document</title>
    <desc>Created with Sketch.</desc>
    <g id="Page-1" stroke="none" stroke-width="1" fill="none" fill-rule="evenodd">
        <g id="客户明细-默认" transform="translate(-233.000000, -1013.000000)">
            <g id="ic_client_document" transform="translate(232.000000, 1011.000000)">
                <rect id="矩形" fill="#000000" opacity="0" x="0" y="0" width="18" height="18"></rect>
                <rect id="矩形" fill="#E1F5FE" fill-rule="nonzero" x="1.125" y="9" width="15.75" height="5.625" rx="1"></rect>
                <path d="M10.1925,4.746375 L15.051375,4.746375 C15.386888,4.746375 15.658875,4.47438799 15.658875,4.138875 C15.658875,3.80336201 15.386888,3.531375 15.051375,3.531375 L10.1925,3.531375 C9.97546115,3.53137499 9.77490898,3.64716384 9.66638955,3.83512499 C9.55787013,4.02308615 9.55787013,4.25466385 9.66638955,4.44262501 C9.77490898,4.63058616 9.97546115,4.74637501 10.1925,4.746375 Z M15.051375,5.398875 L8.76375,5.398875 C8.65130049,5.03493988 8.55297692,4.66678942 8.469,4.29525 C8.1585,3.00825 8.00325,2.361375 7.38225,2.361375 L2.901375,2.361375 C1.9215,2.361375 1.125,3.295125 1.125,4.44375 L1.125,13.555125 C1.125,14.70375 1.9215,15.6375 2.901375,15.6375 L15.051375,15.6375 C16.03125,15.6375 16.828875,14.70375 16.828875,13.554 L16.828875,7.479 C16.828875,6.332625 16.03125,5.398875 15.051375,5.398875 Z M15.703875,13.555125 C15.703875,14.07375 15.404625,14.513625 15.051375,14.513625 L2.901375,14.513625 C2.548125,14.5125 2.25,14.07375 2.25,13.555125 L2.25,4.44375 C2.25,3.925125 2.548125,3.486375 2.901375,3.486375 L7.08975,3.486375 C7.17975,3.75075 7.293375,4.221 7.374375,4.5585 C7.689375,5.866875 7.848,6.523875 8.47575,6.523875 L15.05025,6.523875 C15.4035,6.523875 15.70275,6.9615 15.70275,7.480125 L15.70275,13.555125 L15.703875,13.555125 Z" id="形状" stroke="#247BD8" stroke-width="0.2" fill="#247BD8" fill-rule="nonzero"></path>
            </g>
        </g>
    </g>
</svg>