<?xml version="1.0" encoding="UTF-8"?>
<svg width="11px" height="9px" viewBox="0 0 11 9" version="1.1" xmlns="http://www.w3.org/2000/svg" xmlns:xlink="http://www.w3.org/1999/xlink">
    <!-- Generator: Sketch 52.3 (67297) - http://www.bohemiancoding.com/sketch -->
    <title>ic_client_email</title>
    <desc>Created with Sketch.</desc>
    <g id="Page-1" stroke="none" stroke-width="1" fill="none" fill-rule="evenodd">
        <g id="客户明细" transform="translate(-246.000000, -390.000000)">
            <g id="ic_client_email" transform="translate(246.000000, 389.000000)">
                <rect id="矩形" fill="#000000" opacity="0" x="0" y="0" width="11" height="11"></rect>
                <path d="M9.625,9.28125 L1.375,9.28125 C0.805723844,9.28060473 0.344395267,8.81927616 0.34375,8.25 L0.34375,2.75 C0.344395267,2.18072384 0.805723844,1.71939527 1.375,1.71875 L9.625,1.71875 C10.1942762,1.71939527 10.6556047,2.18072384 10.65625,2.75 L10.65625,8.25 C10.6556047,8.81927616 10.1942762,9.28060473 9.625,9.28125 Z M1.375,2.40625 C1.18524046,2.40646312 1.03146312,2.56024046 1.03125,2.75 L1.03125,8.25 C1.03146312,8.43975954 1.18524046,8.59353688 1.375,8.59375 L9.625,8.59375 C9.81475954,8.59353688 9.96853688,8.43975954 9.96875,8.25 L9.96875,2.75 C9.96853688,2.56024046 9.81475954,2.40646312 9.625,2.40625 L1.375,2.40625 Z" id="形状" stroke="#666666" stroke-width="0.2" fill="#666666" fill-rule="nonzero"></path>
                <path d="M5.5,5.84375 C5.45344861,5.8437527 5.4073819,5.83429815 5.36459473,5.81595996 L0.552094727,3.75345996 C0.377594863,3.67867769 0.296757779,3.47659459 0.371540046,3.30209473 C0.446322312,3.12759486 0.648405406,3.04675778 0.822905273,3.12154004 L5.5,5.12601074 L10.1770947,3.12154004 C10.3515946,3.04675778 10.5536777,3.12759487 10.62846,3.30209473 C10.7032422,3.47659459 10.6224051,3.67867769 10.4479053,3.75345996 L5.63540527,5.81595996 C5.5926181,5.83429815 5.54655139,5.8437527 5.5,5.84375 Z" id="路径" stroke="#666666" stroke-width="0.2" fill="#666666"></path>
            </g>
        </g>
    </g>
</svg>