<?xml version="1.0" encoding="UTF-8"?>
<svg width="17px" height="17px" viewBox="0 0 17 17" version="1.1" xmlns="http://www.w3.org/2000/svg" xmlns:xlink="http://www.w3.org/1999/xlink">
    <!-- Generator: Sketch 52.5 (67469) - http://www.bohemiancoding.com/sketch -->
    <title>ic_client_processed</title>
    <desc>Created with Sketch.</desc>
    <g id="Page-1" stroke="none" stroke-width="1" fill="none" fill-rule="evenodd">
        <g id="客户明细-默认" transform="translate(-1025.000000, -233.000000)">
            <g id="ic_client_processed" transform="translate(1025.000000, 233.000000)">
                <rect id="矩形" fill="#000000" opacity="0" x="0" y="0" width="17" height="17"></rect>
                <polygon id="路径-4" fill="#E3F2FD" fill-rule="nonzero" points="1.39971924 8.5 14.875 8.5 14.875 15.9563065 1.39971924 15.9563065"></polygon>
                <path d="M10.8772943,11.4354102 L5.00006699,11.4354102 L5.00006699,12.9154913 L10.8772943,12.9154913 L10.8772943,11.4354102 Z M10.8772943,8.22159011 L5.00006699,8.22159011 L5.00006699,9.70413395 L10.8772943,9.70413395 L10.8772943,8.22159011 Z M8.66086664,5.0447105 L5.00006699,5.0447105 L5.00006699,6.52479162 L8.66086664,6.52479162 L8.66086664,5.0447105 Z M9.791334,1.9676952 L2.10857187,1.9676952 L2.10857187,15.5174562 L13.7674631,15.5174562 L13.7674631,8.62682892 L15.3621588,8.62682892 L15.3621588,15.7341735 C15.3608424,16.4320762 14.7512566,16.9972668 13.9995587,16.9975373 L1.87753729,16.9975373 C1.12588257,16.9972665 0.516372727,16.4320364 0.515202448,15.7341735 L0.515202448,1.75097784 C0.516372737,1.05311497 1.12588258,0.487884888 1.87753729,0.487614088 L9.79239502,0.487614088 L9.79239502,1.9676952 L9.791334,1.9676952 Z M16.3890109,2.31986092 L14.175046,0.0960452021 C14.1199286,0.0219652347 14.0265622,-0.0130090195 13.9363393,0.006627725 C13.8461164,0.0262644695 13.775731,0.0968788151 13.7563874,0.187165003 L13.454707,0.999855133 C13.3535443,1.23281462 13.1810952,1.42768207 12.9621675,1.55642474 L10.1546925,3.0094162 C10.0656914,3.04533079 10.0020151,3.12525255 9.9868914,3.22002773 C9.9717677,3.31480291 10.007408,3.41057306 10.0808116,3.4724033 L11.0855921,4.48210923 L9.43903267,6.8512241 L11.8702075,5.27017239 L13.0249663,6.43010286 C13.0882045,6.50374247 13.1844127,6.54037768 13.2806145,6.52745135 C13.3768162,6.51452502 13.4599415,6.45379331 13.5014983,6.36607273 L15.0436394,3.64971752 C15.1814341,3.43232969 15.3714072,3.25285418 15.5962686,3.12762567 L16.3131599,2.77545994 C16.4023448,2.74199776 16.4669133,2.66351113 16.4825568,2.56954865 C16.4982003,2.47558616 16.4625437,2.3804134 16.3890109,2.31986092 Z" id="形状" fill="#247BD8" fill-rule="nonzero"></path>
            </g>
        </g>
    </g>
</svg>