<?xml version="1.0" encoding="UTF-8"?>
<svg width="16px" height="16px" viewBox="0 0 16 16" version="1.1" xmlns="http://www.w3.org/2000/svg" xmlns:xlink="http://www.w3.org/1999/xlink">
    <!-- Generator: Sketch 52.5 (67469) - http://www.bohemiancoding.com/sketch -->
    <title>ic_client_basic Information</title>
    <desc>Created with Sketch.</desc>
    <g id="Page-1" stroke="none" stroke-width="1" fill="none" fill-rule="evenodd">
        <g id="客户明细-默认" transform="translate(-233.000000, -330.000000)">
            <g id="ic_client_basic-Information" transform="translate(232.000000, 329.000000)">
                <rect id="矩形" fill="#000000" opacity="0" x="0" y="0" width="18" height="18"></rect>
                <rect id="矩形" fill="#E3F2FD" fill-rule="nonzero" x="2" y="8" width="13" height="8"></rect>
                <path d="M12.3335,1 L4.06650001,1 C2.74650001,1 1.66650001,2.08 1.66649999,3.4 L1.66649999,14.6 C1.66649999,15.92 2.74649999,17 4.06650001,17 L13.933,17 C15.2570829,16.9964299 16.3296541,15.9240822 16.3335,14.6 L16.3335,4.99999999 L12.3335,1 Z M15,14.6 C14.9980776,15.1884086 14.5214094,15.6648534 13.933,15.6665 L4.06650001,15.6665 C3.47817229,15.664852 3.001648,15.1883277 3.00000001,14.6 L3.00000001,3.4 C3.00192094,2.81178583 3.47828584,2.33542093 4.06650001,2.3335 L10.467,2.3335 L10.467,5.80000001 C10.4689209,6.38821418 10.9452858,6.86457907 11.5335,6.86650001 L15,6.86650001 L15,14.6 Z M12.067,5.53350001 C11.9197353,5.53322423 11.8004997,5.41376499 11.8005,5.26649999 L11.8005,2.3335 L15,5.53350001 L12.067,5.53350001 Z" id="形状" fill="#247BD8" fill-rule="nonzero"></path>
                <path d="M10.1995,11.8 L5.6665,11.8 C5.29349999,11.8 5.00000001,12.0935 4.99999999,12.4665 C4.99999997,12.8395 5.29349999,13.133 5.6665,13.133 L10.1995,13.133 C10.573,13.133 10.8665,12.8395 10.8665,12.4665 C10.8665,12.0935 10.573,11.8 10.1995,11.8 Z M4.99999999,9.5335 C4.99824509,9.71079895 5.06790176,9.88134737 5.19327719,10.0067228 C5.31865262,10.1320982 5.48920105,10.2017549 5.6665,10.2 L12.3335,10.2 C12.7065,10.2 13,9.9065 13,9.5335 C13,9.16049999 12.7065,8.867 12.3335,8.867 L5.6665,8.867 C5.48920105,8.86524511 5.31865263,8.93490177 5.1932772,9.0602772 C5.06790176,9.18565263 4.9982451,9.35620105 4.99999999,9.5335 Z" id="形状" fill="#247BD8" fill-rule="nonzero"></path>
            </g>
        </g>
    </g>
</svg>