<?xml version="1.0" encoding="UTF-8"?>
<svg width="17px" height="17px" viewBox="0 0 17 17" version="1.1" xmlns="http://www.w3.org/2000/svg" xmlns:xlink="http://www.w3.org/1999/xlink">
    <!-- Generator: Sketch 52.5 (67469) - http://www.bohemiancoding.com/sketch -->
    <title>ic_client_dynamic</title>
    <desc>Created with Sketch.</desc>
    <g id="Page-1" stroke="none" stroke-width="1" fill="none" fill-rule="evenodd">
        <g id="客户明细-默认" transform="translate(-1026.000000, -332.000000)">
            <g id="ic_client_dynamic" transform="translate(1025.000000, 331.000000)">
                <rect id="矩形" fill="#000000" opacity="0" x="0" y="0" width="19" height="19"></rect>
                <polygon id="路径" fill="#E3F2FD" fill-rule="nonzero" points="5.54228516 13.8547852 12.5856445 12.5856445 13.8547852 5.54228516 6.80957031 6.80957031"></polygon>
                <path d="M5.54228516,13.8547852 L12.5856445,12.5856445 L13.8547852,5.54228516 L6.80957031,6.80957031 L5.54228516,13.8547852 Z M7.91728516,7.91728516 L12.2702148,7.125 L11.4779297,11.4797852 L7.125,12.2702148 L7.91728516,7.91728516 Z M9.5,1.1875 C4.90957031,1.1875 1.1875,4.90957031 1.1875,9.5 C1.1875,14.0904297 4.90957031,17.8125 9.5,17.8125 C14.0904297,17.8125 17.8125,14.0904297 17.8125,9.5 C17.8125,4.90957031 14.0904297,1.1875 9.5,1.1875 Z M9.5,16.625 C5.56455078,16.625 2.375,13.4354492 2.375,9.5 C2.375,5.56455078 5.56455078,2.375 9.5,2.375 C13.4354492,2.375 16.625,5.56455078 16.625,9.5 C16.625,13.4354492 13.4354492,16.625 9.5,16.625 Z" id="形状" stroke="#247BD8" stroke-width="0.3" fill="#247BD8" fill-rule="nonzero"></path>
            </g>
        </g>
    </g>
</svg>