<?xml version="1.0" encoding="UTF-8"?>
<svg width="22px" height="22px" viewBox="0 0 22 22" version="1.1" xmlns="http://www.w3.org/2000/svg" xmlns:xlink="http://www.w3.org/1999/xlink">
    <!-- Generator: Sketch 52.5 (67469) - http://www.bohemiancoding.com/sketch -->
    <title>ic_client_enterprise</title>
    <desc>Created with Sketch.</desc>
    <g id="Page-1" stroke="none" stroke-width="1" fill="none" fill-rule="evenodd">
        <g id="客户明细-默认" transform="translate(-228.000000, -137.000000)" fill-rule="nonzero">
            <g id="ic_client_enterprise" transform="translate(228.000000, 137.000000)">
                <rect id="Rectangle-path" fill="#000000" opacity="0" x="0" y="0" width="22" height="22"></rect>
                <path d="M11.004125,0.015125 C4.959625,0.015125 0.015125,4.959625 0.015125,11.004125 C0.015125,17.048625 4.959625,21.993125 11.004125,21.993125 C17.04725,21.993125 21.993125,17.04725 21.993125,11.004125 C21.993125,4.959625 17.04725,0.015125 11.004125,0.015125 Z M11.004125,20.6195 C5.647125,20.6195 1.38875,16.361125 1.38875,11.004125 C1.38875,5.647125 5.647125,1.38875 11.004125,1.38875 C16.3625,1.38875 20.6195,5.647125 20.6195,11.004125 C20.6195,16.361125 16.3625,20.6195 11.004125,20.6195 Z" id="Shape" fill="#247BD8"></path>
                <path d="M12.39425,12.865875 L16.130125,12.865875 L16.130125,11.3025 L12.39425,11.3025 L12.39425,10.190125 C12.39425,9.673125 12.442375,9.29225 12.538625,9.0475 C12.57575,8.949875 12.595,8.856375 12.595,8.768375 C12.595,8.680375 12.461625,8.63775 12.19075,8.63775 L10.4885,8.63775 L10.4885,15.4 L8.628125,15.4 L8.628125,11.724625 C8.628125,11.218625 8.67625,10.841875 8.7725,10.599875 C8.822,10.483 8.845375,10.382625 8.845375,10.29875 C8.845375,10.21625 8.72025,10.175 8.46725,10.175 L6.79525,10.175 L6.79525,15.4 L4.643375,15.4 L4.643375,17.0115 L17.249375,17.0115 L17.249375,15.4 L12.39425,15.4 L12.39425,12.865875 Z M12.089,4.642 C12.145375,4.582875 12.22925,4.519625 12.3365,4.450875 C12.445125,4.3835 12.496,4.305125 12.496,4.217125 C12.496,4.148375 12.458875,4.09475 12.3805,4.05625 C12.302125,4.016375 11.594,3.826625 10.256125,3.48425 C9.238625,6.139375 7.12525,8.02725 3.917375,9.150625 C4.2955,9.46275 4.74925,9.955 5.28275,10.62875 C7.93925,9.310125 9.8725,7.783875 11.08525,6.045875 C12.346125,7.92 14.22575,9.438 16.72825,10.599875 C17.230125,9.80925 17.683875,9.185 18.09225,8.72575 C16.773625,8.404 15.59525,7.88425 14.5475,7.167875 C13.497,6.44875 12.678875,5.60725 12.089,4.642 Z" id="Shape" fill="#247BD8"></path>
            </g>
        </g>
    </g>
</svg>