<?xml version="1.0" encoding="UTF-8"?>
<svg width="17px" height="17px" viewBox="0 0 17 17" version="1.1" xmlns="http://www.w3.org/2000/svg" xmlns:xlink="http://www.w3.org/1999/xlink">
    <!-- Generator: Sketch 52.5 (67469) - http://www.bohemiancoding.com/sketch -->
    <title>ic_client_edit_big</title>
    <desc>Created with Sketch.</desc>
    <g id="Page-1" stroke="none" stroke-width="1" fill="none" fill-rule="evenodd">
        <g id="客户明细-默认" transform="translate(-460.000000, -138.000000)" fill="#247BD8" fill-rule="nonzero">
            <g id="第一栏" transform="translate(209.000000, 108.000000)">
                <path d="M254.65648,42.2900286 L256.677393,42.2900286 L264.965928,34.0014937 L262.99158,32.0271461 L254.65648,40.3436199 L254.65648,42.2900286 Z M264.304707,30.7140187 L266.279055,32.6883663 C266.628807,33.0377295 266.825328,33.5118011 266.825328,34.0061502 C266.825328,34.5004994 266.628807,34.974571 266.279055,35.3239341 L257.99052,43.612469 C257.64282,43.9622524 257.170586,44.1598543 256.677393,44.1619337 L254.237397,44.1619337 C253.857282,44.1746212 253.488426,44.0317759 253.216003,43.7663825 C252.943579,43.5009891 252.791141,43.1359933 252.793888,42.7556767 L252.793888,40.3436199 C252.795968,39.850427 252.993569,39.3781921 253.343353,39.0304924 L261.631888,30.7419576 C261.978852,30.3769644 262.458825,30.1680198 262.962389,30.1627561 C263.465953,30.1574923 263.950189,30.3563581 264.304707,30.7140187 Z M251.927783,46.927883 C251.413442,46.927883 250.996487,46.5109275 250.996487,45.9965869 C250.996487,45.4822463 251.413442,45.0652909 251.927783,45.0652909 L266.82852,45.0652909 C267.34286,45.0652909 267.759816,45.4822463 267.759816,45.9965869 C267.759816,46.5109275 267.34286,46.9278829 266.82852,46.927883 L251.927783,46.927883 Z" id="ic_client_edit_big"></path>
            </g>
        </g>
    </g>
</svg>