<?xml version="1.0" encoding="UTF-8"?>
<svg width="16px" height="16px" viewBox="0 0 16 16" version="1.1" xmlns="http://www.w3.org/2000/svg" xmlns:xlink="http://www.w3.org/1999/xlink">
    <!-- Generator: Sketch 52.3 (67297) - http://www.bohemiancoding.com/sketch -->
    <title>ic_gongshang</title>
    <desc>Created with Sketch.</desc>
    <g id="东方瑞云供应链金融平台" stroke="none" stroke-width="1" fill="none" fill-rule="evenodd">
        <g id="客户-工商信息-编辑" transform="translate(-339.000000, -121.000000)" fill="#247BD8" fill-rule="nonzero">
            <g id="ic_gongshang" transform="translate(339.000000, 121.000000)">
                <path d="M15.3136257,13.5943959 L12.9210591,11.2018164 C12.5768444,11.7747144 12.0951614,12.2552078 11.5210099,12.5994225 L13.9148045,14.9932299 C14.3016398,15.3794128 14.9280567,15.3794128 15.3136129,14.9932299 C15.7004482,14.6076225 15.7004482,13.9799777 15.3136257,13.5943959 Z" id="路径"></path>
                <path d="M7.16463429,13.2423418 C3.63108134,13.2423418 0.766140163,10.3777771 0.766140163,6.84422413 C0.766140163,3.30991824 3.63108134,0.446106481 7.16463429,0.446106481 C10.6981872,0.446106481 13.5623755,3.30991824 13.5623755,6.84422413 C13.5623755,10.3777771 10.6981872,13.2423418 7.16463429,13.2423418 Z M7.16463429,1.26944766 C4.08661075,1.26944766 1.59023429,3.76544766 1.59023429,6.84422413 C1.59023429,9.92187118 4.08661075,12.4186241 7.16463429,12.4186241 C10.2437872,12.4186241 12.7394108,9.92187118 12.7394108,6.84422413 C12.7394108,3.76544766 10.2437872,1.26944766 7.16463429,1.26944766 Z M7.32604855,8.99136115 L9.18290818,8.99136115 L9.18290818,7.98618234 L7.32604855,7.98618234 L7.32604855,5.61325387 L9.18290818,5.61325387 L9.18290818,4.79144794 L7.32604855,4.79144794 L7.32604855,3.9221128 L9.94275133,3.9221128 L9.94275133,6.38785172 L8.04738996,6.38785172 L8.04738996,7.10785519 L9.94275133,7.10785519 L9.94275133,9.76595898 L7.32604855,9.76595898 L7.32604855,8.99136115 Z M4.38689371,7.10785519 L6.28197197,7.10785519 L6.28197197,6.38785172 L4.38689371,6.38785172 L4.38689371,3.9221128 L7.00387958,3.9221128 L7.00387958,4.79144794 L5.14588755,4.79144794 L5.14588755,5.61325387 L7.00387958,5.61325387 L7.00387958,7.98618234 L5.14588755,7.98618234 L5.14588755,8.99136115 L7.00387958,8.99136115 L7.00387958,9.76595898 L4.38689371,9.76595898 L4.38689371,7.10785519 Z" id="形状"></path>
            </g>
        </g>
    </g>
</svg>