<?xml version="1.0" standalone="no"?><!DOCTYPE svg PUBLIC "-//W3C//DTD SVG 1.1//EN" "http://www.w3.org/Graphics/SVG/1.1/DTD/svg11.dtd"><svg class="icon" width="32px" height="32.00px" viewBox="0 0 1024 1024" version="1.1" xmlns="http://www.w3.org/2000/svg"><path d="M915.278833 130.274042 108.507296 130.274042c-50.327222 0-91.27175 40.944528-91.27175 91.27175L17.235546 780.673136c0 50.328245 40.944528 91.27175 91.27175 91.27175l806.771537 0c50.328245 0 91.27175-40.944528 91.27175-91.27175L1006.550583 221.545792C1006.550583 171.217547 965.606055 130.274042 915.278833 130.274042zM108.507296 196.788945l806.771537 0c13.651928 0 24.756847 11.105942 24.756847 24.756847l0 79.933517L83.750449 301.479309l0-79.933517C83.750449 207.894887 94.856391 196.788945 108.507296 196.788945zM915.278833 805.429982 108.507296 805.429982c-13.650905 0-24.756847-11.106965-24.756847-24.756847L83.750449 358.269733l856.285231 0L940.03568 780.673136C940.03568 794.32404 928.930761 805.429982 915.278833 805.429982z" fill="#E2EEF6" /><path d="M851.486948 491.804029 669.425426 491.804029c-18.312064 0-33.29429-14.982226-33.29429-33.29429l0 0c0-18.312064 14.982226-33.29429 33.29429-33.29429L851.486948 425.215448c18.312064 0 33.29429 14.982226 33.29429 33.29429l0 0C884.781238 476.821803 869.799012 491.804029 851.486948 491.804029z" fill="#E2EEF6" /></svg>