<?xml version="1.0" encoding="UTF-8"?>
<svg width="30px" height="30px" viewBox="0 0 30 30" version="1.1" xmlns="http://www.w3.org/2000/svg" xmlns:xlink="http://www.w3.org/1999/xlink">
    <!-- Generator: Sketch 52.5 (67469) - http://www.bohemiancoding.com/sketch -->
    <title>ic_home_add</title>
    <desc>Created with Sketch.</desc>
    <g id="Page-1" stroke="none" stroke-width="1" fill="none" fill-rule="evenodd">
        <g id="首页" transform="translate(-1181.000000, -524.000000)">
            <g id="常用功能" transform="translate(1111.000000, 347.000000)">
                <g id="ic_home_add" transform="translate(69.000000, 176.000000)">
                    <rect id="矩形" fill="#000000" opacity="0" x="0.495833333" y="0.484848485" width="31.030303" height="31.030303"></rect>
                    <path d="M5.78771505,4.08658009 C4.84680674,4.08658009 4.08330875,4.85007808 4.08330875,5.78781835 L4.08330875,26.2121816 C4.08330875,27.15309 4.84680674,27.9134199 5.78771505,27.9134199 L26.2342546,27.9134199 C27.175163,27.9134199 27.9386609,27.1499219 27.9386609,26.2121816 L27.9386609,5.78781835 C27.9386609,4.84691004 27.175163,4.08658009 26.2342546,4.08658009 L5.78771505,4.08658009 Z M5.47337662,1.96450216 L26.5485931,1.96450216 C28.4882035,1.96450216 30.0606061,3.53690476 30.0606061,5.47337662 L30.0606061,26.5266234 C30.0606061,28.4630952 28.4882035,30.0354978 26.5485931,30.0354978 L5.47337662,30.0354978 C3.53376623,30.0354978 1.96136364,28.4662338 1.96136364,26.5266234 L1.96136364,5.47337662 C1.96136364,3.53376623 3.53376623,1.96450216 5.47337662,1.96450216 Z M21.0781385,17.1361472 L10.9720779,17.1361472 C10.3506494,17.1361472 9.84220779,16.6277056 9.84220779,16.0062771 C9.84220779,15.3848485 10.3506494,14.8764069 10.9720779,14.8764069 L21.0781385,14.8764069 C21.6995671,14.8764069 22.2080087,15.3848485 22.2080087,16.0062771 C22.2080087,16.6277056 21.6995671,17.1361472 21.0781385,17.1361472 Z M14.8952381,21.0593074 L14.8952381,10.9532468 C14.8952381,10.3318182 15.4036797,9.82337662 16.0251082,9.82337662 C16.6465368,9.82337662 17.1549784,10.3318182 17.1549784,10.9532468 L17.1549784,21.0593074 C17.1549784,21.6807359 16.6465368,22.1891775 16.0251082,22.1891775 C15.4036797,22.1891775 14.8952381,21.6807359 14.8952381,21.0593074 Z" id="Shape" fill="#FF7C00" fill-rule="nonzero"></path>
                </g>
            </g>
        </g>
    </g>
</svg>