<?xml version="1.0" encoding="UTF-8"?>
<svg width="32px" height="31px" viewBox="0 0 32 31" version="1.1" xmlns="http://www.w3.org/2000/svg" xmlns:xlink="http://www.w3.org/1999/xlink">
    <!-- Generator: Sketch 52.5 (67469) - http://www.bohemiancoding.com/sketch -->
    <title>ic_home_contact</title>
    <desc>Created with Sketch.</desc>
    <g id="Page-1" stroke="none" stroke-width="1" fill="none" fill-rule="evenodd">
        <g id="首页" transform="translate(-1327.000000, -424.000000)">
            <g id="常用功能" transform="translate(1111.000000, 347.000000)">
                <g id="ic_home_contact" transform="translate(216.000000, 76.000000)">
                    <rect id="矩形" fill="#000000" opacity="0" x="0" y="0.858874459" width="32" height="31.030303"></rect>
                    <path d="M1.19173133,30.2625582 C1.65387797,30.2625582 1.96197568,29.9808688 1.96197568,29.5583348 C1.96197568,23.220324 7.58475949,18.0794931 14.5169587,18.0794931 C16.6736429,18.0794931 18.7533027,18.5724495 20.6018892,19.4879399 C20.9870114,19.699207 21.449158,19.5583623 21.6802313,19.2062506 C21.9113046,18.8541389 21.7572557,18.4316048 21.3721335,18.2203378 C20.4478403,17.7273814 19.4465226,17.3752697 18.445205,17.0935804 C21.2951091,15.7555559 23.2977444,13.0090845 23.2977444,9.84007916 C23.2977444,5.33304932 19.2924738,1.67108754 14.3629099,1.67108758 C9.43334594,1.67108762 5.42807533,5.33304932 5.42807533,9.84007916 C5.42807533,13.0795069 7.43071065,15.8259782 10.4346637,17.1640027 C4.65783098,18.7837165 0.421486984,23.7132804 0.421486984,29.4879124 C0.421486984,29.9808688 0.72958474,30.2625582 1.19173133,30.2625582 Z M6.96856402,9.91050152 C6.96856402,6.17811741 10.2806147,3.14995675 14.3629099,3.14995675 C18.445205,3.14995675 21.7572557,6.17811741 21.7572558,9.91050152 C21.7572558,13.6428856 18.445205,16.6710463 14.3629099,16.6710463 C10.2806147,16.6710463 6.96856402,13.6428856 6.96856402,9.91050152 Z M25.1954686,30.9412851 C25.6576152,30.9412851 25.9657129,30.6595957 25.9657129,30.2370617 L25.9657129,26.0821435 L30.5101546,26.0821435 C30.9723013,26.0821435 31.280399,25.8004542 31.280399,25.3779201 C31.280399,24.9553861 30.9723012,24.6736967 30.5101546,24.6736967 L25.9657129,24.6736967 L25.9657129,20.5187786 C25.9657129,20.0962445 25.6576152,19.8145552 25.1954686,19.8145552 C24.733322,19.8145552 24.4252242,20.0962445 24.4252242,20.5187786 L24.4252242,24.6736967 L19.8807825,24.6736967 C19.4186359,24.6736967 19.1105381,24.9553861 19.1105381,25.3779201 C19.1105381,25.8004542 19.4186359,26.0821435 19.8807825,26.0821435 L24.4252242,26.0821435 L24.4252242,30.2370617 C24.4252242,30.6595957 24.7333219,30.9412851 25.1954686,30.9412851 Z" id="Shape" stroke="#00B33D" stroke-width="0.8" fill="#00B33D" fill-rule="nonzero"></path>
                </g>
            </g>
        </g>
    </g>
</svg>