<?xml version="1.0" encoding="UTF-8"?>
<svg width="31px" height="31px" viewBox="0 0 31 31" version="1.1" xmlns="http://www.w3.org/2000/svg" xmlns:xlink="http://www.w3.org/1999/xlink">
    <!-- Generator: Sketch 52.5 (67469) - http://www.bohemiancoding.com/sketch -->
    <title>ic_home_financing </title>
    <desc>Created with Sketch.</desc>
    <g id="Page-1" stroke="none" stroke-width="1" fill="none" fill-rule="evenodd">
        <g id="首页" transform="translate(-1326.000000, -522.000000)">
            <g id="常用功能" transform="translate(1111.000000, 347.000000)">
                <g id="ic_home_financing-" transform="translate(215.000000, 175.000000)">
                    <rect id="矩形" fill="#000000" opacity="0" x="0" y="0" width="32" height="32"></rect>
                    <g id="分组-2" fill="#D9A246">
                        <path d="M20.3921205,14.8496978 L9.98049744,14.8496978 C9.41815092,14.8496978 8.96227899,14.3938259 8.96227899,13.8314794 C8.96227899,13.2691329 9.41815092,12.8132609 9.98049744,12.8132609 L20.3921205,12.8132609 C20.954467,12.8132609 21.4103389,13.2691329 21.4103389,13.8314794 C21.4103389,14.3938259 20.954467,14.8496978 20.3921205,14.8496978 Z M20.3921205,19.4934528 L9.98049744,19.4934528 C9.41815092,19.4934528 8.96227899,19.0375808 8.96227899,18.4752343 C8.96227899,17.9128878 9.41815092,17.4570159 9.98049744,17.4570159 L20.3921205,17.4570159 C20.954467,17.4570159 21.4103389,17.9128878 21.4103389,18.4752343 C21.4103389,19.0375808 20.954467,19.4934528 20.3921205,19.4934528 Z" id="形状" fill-rule="nonzero"></path>
                        <path d="M15.4483305,24.7461023 C15.1782822,24.7461023 14.9192943,24.638826 14.7283413,24.447873 C14.5373883,24.25692 14.430112,23.9979322 14.430112,23.7278839 L14.430112,13.8314794 C14.430112,13.2691329 14.885984,12.8132609 15.4483305,12.8132609 C16.010677,12.8132609 16.4665489,13.2691329 16.4665489,13.8314794 L16.4665489,23.7278839 C16.4665489,24.2902304 16.010677,24.7461023 15.4483305,24.7461023 Z" id="路径"></path>
                        <path d="M15.9081533,14.7561465 C15.6207294,14.7562835 15.3450302,14.6362816 15.1417258,14.4225484 L9.8041836,8.80457405 C9.52250933,8.51838502 9.40954353,8.09458254 9.50870467,7.69605529 C9.6078658,7.29752803 9.90372211,6.98629606 10.2825611,6.88198151 C10.6614,6.77766696 11.0642656,6.8965036 11.3363161,7.1928165 L16.6767478,12.8107908 C16.9866101,13.1371611 17.078944,13.6278172 16.9106559,14.0537636 C16.7423679,14.4797099 16.346636,14.7569714 15.9081533,14.7561465 Z" id="路径"></path>
                        <path d="M15.1232251,14.8165084 C14.6848303,14.8167175 14.2895145,14.5390047 14.1217212,14.1129433 C13.9539279,13.6868819 14.0467252,13.1964386 14.3568165,12.8704409 L19.6971165,7.25260512 C19.9691604,6.95629982 20.3720158,6.83746634 20.7508453,6.94177836 C21.1296747,7.04609038 21.4255236,7.35731454 21.5246823,7.75583179 C21.623841,8.15434903 21.5108782,8.57814092 21.2292112,8.86432295 L15.8889112,14.4821587 C15.6859071,14.6959791 15.4104951,14.8162424 15.1232251,14.8165084 Z" id="路径"></path>
                        <path d="M1.41999557,13.6896076 C1.0953684,13.6899188 0.78762103,13.5450039 0.581068924,13.294566 C0.374516818,13.0441282 0.290817516,12.7144265 0.352902638,12.3957914 C1.74921953,5.21327845 8.07982302,1.42108547e-14 15.4109958,1.42108547e-14 C22.6928624,0.000428915406 28.9717723,5.1183318 30.4405789,12.2505255 C30.5609211,12.8381777 30.1820915,13.4121204 29.5944394,13.5324626 C29.0067873,13.6528047 28.4328445,13.2739751 28.3125023,12.686323 C27.050683,6.56485957 21.661156,2.17264745 15.4109958,2.17219937 C9.11976346,2.17219937 3.68383456,6.64625121 2.48437324,12.8112245 C2.3850922,13.3207622 1.93911476,13.6888073 1.41999557,13.6896076 Z" id="路径"></path>
                        <path d="M1.44714805,13.7581676 C0.933268623,13.7558107 0.491370216,13.3936276 0.388160556,12.8902138 C0.284950896,12.3868001 0.548680384,11.8799494 1.02017513,11.6755715 L4.5961583,10.1346676 C4.95276147,9.98070743 5.36443316,10.0288625 5.67587661,10.2609671 C5.98732006,10.4930717 6.15113803,10.8738028 6.10553274,11.2595355 C6.05992745,11.6452682 5.81183937,11.9772995 5.45485588,12.1303757 L1.87615742,13.6699221 C1.7406308,13.7281656 1.59466002,13.7581913 1.44714805,13.7581676 Z M15.587487,31 C8.30562049,30.9995711 2.02671055,25.8816682 0.557903942,18.7494745 C0.48005622,18.3693302 0.610926507,17.9765311 0.901217235,17.7190409 C1.19150796,17.4615507 1.59711706,17.3784881 1.96525551,17.5011422 C2.33339396,17.6237962 2.60813278,17.9335327 2.6859805,18.313677 C3.94779982,24.4351404 9.33732682,28.8273525 15.587487,28.8278006 C21.8787194,28.8278006 27.3146483,24.3537488 28.5134308,18.1887755 C28.5845732,17.8050031 28.8561701,17.4889157 29.2248584,17.3608085 C29.5935467,17.2327012 30.0026235,17.3122765 30.2964044,17.5692499 C30.5901853,17.8262233 30.7234877,18.2210733 30.6455802,18.6035298 C29.2492633,25.7867216 22.9159446,31 15.587487,31 Z" id="形状" fill-rule="nonzero"></path>
                        <path d="M25.973994,20.953578 C25.458376,20.9539832 25.0135413,20.5918018 24.9094169,20.0868067 C24.8052925,19.5818115 25.0705815,19.0732104 25.5443058,18.8696243 L29.1230043,17.3300779 C29.4805559,17.1701413 29.8965264,17.2151175 30.2116285,17.4477837 C30.5267306,17.6804499 30.692144,18.0647581 30.644527,18.4535453 C30.5969099,18.8423325 30.34364,19.1753621 29.9817018,19.3251073 L26.4030034,20.8646536 C26.2675257,20.9231302 26.121553,20.9533872 25.973994,20.953578 Z" id="路径"></path>
                    </g>
                </g>
            </g>
        </g>
    </g>
</svg>