<?xml version="1.0" encoding="UTF-8"?>
<svg width="29px" height="29px" viewBox="0 0 29 29" version="1.1" xmlns="http://www.w3.org/2000/svg" xmlns:xlink="http://www.w3.org/1999/xlink">
    <!-- Generator: Sketch 52.5 (67469) - http://www.bohemiancoding.com/sketch -->
    <title>ic_registration</title>
    <desc>Created with Sketch.</desc>
    <g id="Page-1" stroke="none" stroke-width="1" fill="none" fill-rule="evenodd">
        <g id="首页" transform="translate(-1182.000000, -424.000000)">
            <g id="常用功能" transform="translate(1111.000000, 347.000000)">
                <g id="ic_registration" transform="translate(70.000000, 76.000000)">
                    <rect id="矩形" fill="#000000" opacity="0" x="0.466238139" y="0.455908952" width="31.030303" height="31.030303"></rect>
                    <path d="M29.3495876,21.9014814 L24.6851368,26.5659322 L21.4195179,29.8316792 L18.3142758,29.8316792 C17.7794854,29.8278189 17.3469371,29.3951707 17.3432004,28.8603794 L17.3432004,25.7477323 L20.6051328,22.485864 L25.2696156,17.8213812 C25.5702003,17.5207938 25.9778822,17.3519253 26.402975,17.3519253 C26.8280678,17.3519253 27.2357497,17.5207938 27.5363344,17.8213812 L29.3495876,19.6346344 C29.6502142,19.9352242 29.8191075,20.3429336 29.8191075,20.7680579 C29.8191075,21.1931821 29.6502142,21.6008915 29.3495876,21.9014814 Z M27.3095695,20.3147045 L26.8562322,19.8613672 C26.7359975,19.7411263 26.5729207,19.6735752 26.4028788,19.6735752 C26.232837,19.6735752 26.0697601,19.7411263 25.9495254,19.8613672 L19.2665663,26.5444225 L19.2665663,27.9083133 L20.6228277,27.9083133 L27.3097298,21.2214112 C27.5600321,20.970998 27.5599603,20.5650934 27.3095695,20.3147686 L27.3095695,20.3147045 Z M26.1860995,15.4993977 C25.6549766,15.4993977 25.2244165,15.0688376 25.2244165,14.5377148 L25.2244165,3.73480969 C25.2244165,3.38072781 24.9373764,3.09368773 24.5832945,3.09368773 L3.74683073,3.09368773 C3.39274885,3.09368773 3.10570877,3.38072781 3.10570877,3.73480969 L3.10570877,27.2639858 C3.10570877,27.6180676 3.39274885,27.9051077 3.74683073,27.9051077 L13.5559968,27.9051077 C14.0871196,27.9051077 14.5176797,28.3356678 14.5176797,28.8667907 C14.5176797,29.3979135 14.0871196,29.8284736 13.5559968,29.8284736 L2.78514779,29.8284736 C1.89994308,29.8284736 1.18234288,29.1108734 1.18234288,28.2256687 L1.18234288,2.77312675 C1.18234288,1.88792204 1.89994308,1.17032184 2.78514779,1.17032184 L25.5449775,1.17032184 C26.4301822,1.17032184 27.1477824,1.88792204 27.1477824,2.77312675 L27.1477824,14.5377148 C27.1477824,15.0688376 26.7172223,15.4993977 26.1860995,15.4993977 Z M6.0228137,10.8505903 C6.0228137,10.3198393 6.45307243,9.88958054 6.98382347,9.88958054 L21.3463018,9.88958054 C21.6909541,9.88758997 22.0102811,10.0703178 22.1831844,10.368468 C22.3560877,10.6666183 22.3560877,11.0345302 22.1831844,11.3326805 C22.0102811,11.6308308 21.6909541,11.8135586 21.3463018,11.811568 L6.98382347,11.811568 C6.45308495,11.811568 6.02283141,11.3813288 6.0228137,10.8505903 Z M17.7239627,16.4610807 L6.98382347,16.4610807 C6.45307243,16.4610807 6.0228137,16.0308219 6.0228137,15.5000709 L6.0228137,15.4987245 C6.0228137,14.9679735 6.45307243,14.5377148 6.98382347,14.5377148 L17.7239627,14.5377148 C18.2547138,14.5377148 18.6849725,14.9679735 18.6849725,15.4987245 L18.6849725,15.5000709 C18.6849725,16.0308219 18.2547138,16.4610807 17.7239627,16.4610807 Z M6.98382347,21.1092149 C6.63917119,21.1112055 6.31984421,20.9284777 6.14694088,20.6303274 C5.97403756,20.3321771 5.97403756,19.9642652 6.14694088,19.6661149 C6.31984421,19.3679646 6.63917119,19.1852369 6.98382347,19.1872274 L14.0754658,19.1872274 C14.4201181,19.1852369 14.7394451,19.3679646 14.9123484,19.6661149 C15.0852518,19.9642652 15.0852518,20.3321771 14.9123484,20.6303274 C14.7394451,20.9284777 14.4201181,21.1112055 14.0754658,21.1092149 L6.98382347,21.1092149 Z" id="Shape" fill="#1F86F8" fill-rule="nonzero"></path>
                </g>
            </g>
        </g>
    </g>
</svg>