<?xml version="1.0" encoding="UTF-8"?>
<svg width="14px" height="14px" viewBox="0 0 14 14" version="1.1" xmlns="http://www.w3.org/2000/svg" xmlns:xlink="http://www.w3.org/1999/xlink">
    <!-- Generator: Sketch 52.3 (67297) - http://www.bohemiancoding.com/sketch -->
    <title>ic_home_comcany</title>
    <desc>Created with Sketch.</desc>
    <g id="Page-1" stroke="none" stroke-width="1" fill="none" fill-rule="evenodd">
        <g id="首页" transform="translate(-293.000000, -602.000000)" fill="#1F86F8">
            <g id="ic_home_comcany" transform="translate(293.000000, 602.000000)">
                <g id="分组" transform="translate(0.077208, 0.077208)">
                    <path d="M11.150544,9.52278477 L8.70182794,9.52278477 C8.55084737,9.52278477 8.42974837,9.40168578 8.42974837,9.25070521 C8.42974837,9.10129736 8.55084737,8.97862564 8.70182794,8.97862564 L11.150544,8.97862564 C11.3015246,8.97862564 11.4226236,9.09972464 11.4226236,9.25070521 C11.4210509,9.40168578 11.2999519,9.52278477 11.150544,9.52278477 Z M11.150544,7.48297439 L8.70182794,7.48297439 C8.55084737,7.48297439 8.42974837,7.3618754 8.42974837,7.21089483 C8.42974837,7.05991426 8.55084737,6.93881526 8.70182794,6.93881526 L11.150544,6.93881526 C11.3015246,6.93881526 11.4226236,7.05991426 11.4226236,7.21089483 C11.4226236,7.3618754 11.2999519,7.48297439 11.150544,7.48297439 Z M11.150544,5.44316401 L8.70182794,5.44316401 C8.55084737,5.44316401 8.42974837,5.32206502 8.42974837,5.17108445 C8.42974837,5.02010388 8.55084737,4.89900488 8.70182794,4.89900488 L11.150544,4.89900488 C11.3015246,4.89900488 11.4226236,5.02010388 11.4226236,5.17108445 C11.4226236,5.32206502 11.2999519,5.44316401 11.150544,5.44316401 Z M5.16636631,5.98732314 L2.44714337,5.98732314 C2.2961628,5.98732314 2.17506381,5.86622415 2.17506381,5.71524358 C2.17506381,5.56583572 2.2961628,5.44316401 2.44714337,5.44316401 L5.16636631,5.44316401 C5.31734687,5.44316401 5.43844587,5.56426301 5.43844587,5.71524358 C5.43844587,5.86622415 5.31734687,5.98732314 5.16636631,5.98732314 Z M5.16636631,3.54017977 L2.44714337,3.54017977 C2.2961628,3.54017977 2.17506381,3.41908078 2.17506381,3.26810021 C2.17506381,3.11869235 2.2961628,2.99602064 2.44714337,2.99602064 L5.16636631,2.99602064 C5.31734687,2.99602064 5.43844587,3.11711964 5.43844587,3.26810021 C5.43844587,3.41908078 5.31734687,3.54017977 5.16636631,3.54017977 Z M5.43844587,12.7861668 L4.89428674,12.7861668 L4.89428674,9.25070521 C4.89428674,9.10129736 4.77161503,8.97862564 4.62220718,8.97862564 L2.9913025,8.97862564 C2.84189465,8.97862564 2.71922294,9.10129736 2.71922294,9.25070521 L2.71922294,12.7861668 L2.17506381,12.7861668 L2.17506381,9.25070521 C2.17506381,8.80090893 2.54150623,8.43446651 2.9913025,8.43446651 L4.62377989,8.43446651 C5.07357617,8.43446651 5.44001859,8.80090893 5.44001859,9.25070521 L5.44001859,12.7861668 L5.43844587,12.7861668 Z" id="形状" fill-rule="nonzero"></path>
                    <path d="M12.7814487,13.0582464 L7.34300283,13.0582464 L7.34300283,12.5140873 L12.5093691,12.5140873 L12.5093691,4.21959233 C12.5093691,3.76979605 12.1429267,3.40335363 11.6931304,3.40335363 L7.34300283,3.40335363 L7.34300283,2.8591945 L11.6947032,2.8591945 C12.4448878,2.8591945 13.055101,3.46940763 13.055101,4.21959233 L13.055101,12.7861668 C13.0535283,12.9371474 12.9324293,13.0582464 12.7814487,13.0582464 Z" id="路径"></path>
                    <path d="M7.34300283,13.0582464 L0.272079565,13.0582464 C0.121098997,13.0582464 -1.83187012e-15,12.9371474 -1.83187012e-15,12.7861668 L-1.83187012e-15,1.36197054 C-1.83187012e-15,0.611785843 0.610213128,0.00157271425 1.36039782,0.00157271425 L6.25468457,0.00157271425 C7.00486926,0.00157271425 7.61508239,0.611785843 7.61508239,1.36197054 L7.61508239,12.7861668 C7.61508239,12.9371474 7.49241068,13.0582464 7.34300283,13.0582464 Z M0.54415913,12.5140873 L7.07092326,12.5140873 L7.07092326,1.36197054 C7.07092326,0.912174264 6.70448084,0.545731844 6.25468457,0.545731844 L1.36039782,0.545731844 C0.91060155,0.545731844 0.54415913,0.912174264 0.54415913,1.36197054 L0.54415913,12.5140873 Z" id="形状" fill-rule="nonzero"></path>
                </g>
            </g>
        </g>
    </g>
</svg>