<?xml version="1.0" encoding="UTF-8"?>
<svg width="16px" height="16px" viewBox="0 0 16 16" version="1.1" xmlns="http://www.w3.org/2000/svg" xmlns:xlink="http://www.w3.org/1999/xlink">
    <!-- Generator: Sketch 52.5 (67469) - http://www.bohemiancoding.com/sketch -->
    <title>ic_home_dynamic</title>
    <desc>Created with Sketch.</desc>
    <g id="Page-1" stroke="none" stroke-width="1" fill="none" fill-rule="evenodd">
        <g id="首页" transform="translate(-242.000000, -365.000000)">
            <g id="工作动态" transform="translate(219.000000, 348.000000)">
                <g id="ic_home_dynamic">
                    <g transform="translate(22.000000, 16.000000)">
                        <rect id="矩形" fill="#000000" opacity="0" x="0" y="0" width="18" height="18"></rect>
                        <polygon id="路径-3" fill="#E3F2FD" fill-rule="nonzero" points="2.5 9.640625 13.0003294 9.640625 13.0003294 15 2.5 15"></polygon>
                        <path d="M13.21875,4.21875 L2.53125,4.21875 C2.22011719,4.21875 1.96875,4.47011719 1.96875,4.78125 L1.96875,15.46875 C1.96875,15.7798828 2.22011719,16.03125 2.53125,16.03125 L13.21875,16.03125 C13.5298828,16.03125 13.78125,15.7798828 13.78125,15.46875 L13.78125,4.78125 C13.78125,4.47011719 13.5298828,4.21875 13.21875,4.21875 Z M12.515625,14.765625 L3.234375,14.765625 L3.234375,5.484375 L12.515625,5.484375 L12.515625,14.765625 Z M15.46875,1.96875 L4.640625,1.96875 C4.56328125,1.96875 4.5,2.03203125 4.5,2.109375 L4.5,3.09375 C4.5,3.17109375 4.56328125,3.234375 4.640625,3.234375 L14.765625,3.234375 L14.765625,13.359375 C14.765625,13.4367188 14.8289063,13.5 14.90625,13.5 L15.890625,13.5 C15.9679688,13.5 16.03125,13.4367188 16.03125,13.359375 L16.03125,2.53125 C16.03125,2.22011719 15.7798828,1.96875 15.46875,1.96875 Z M5.2734375,9.66796875 L10.4765625,9.66796875 L10.4765625,10.7929688 L5.2734375,10.7929688 L5.2734375,9.66796875 Z" id="形状" fill="#247BD8" fill-rule="nonzero"></path>
                    </g>
                </g>
            </g>
        </g>
    </g>
</svg>