<?xml version="1.0" encoding="UTF-8"?>
<svg width="15px" height="15px" viewBox="0 0 15 15" version="1.1" xmlns="http://www.w3.org/2000/svg" xmlns:xlink="http://www.w3.org/1999/xlink">
    <!-- Generator: Sketch 52.5 (67469) - http://www.bohemiancoding.com/sketch -->
    <title>ic_home_setting</title>
    <desc>Created with Sketch.</desc>
    <g id="Page-1" stroke="none" stroke-width="1" fill="none" fill-rule="evenodd">
        <g id="首页" transform="translate(-1126.000000, -362.000000)">
            <g id="常用功能" transform="translate(1111.000000, 347.000000)">
                <g id="ic_home_setting" transform="translate(14.000000, 14.000000)">
                    <rect id="矩形" fill="#000000" opacity="0" x="0" y="0" width="17" height="17"></rect>
                    <path d="M9.81484375,9.64882813 C9.46289063,9.99912109 8.99638672,10.1933594 8.5,10.1933594 C8.00361328,10.1933594 7.53710938,9.99912109 7.18515625,9.64882813 C6.83486328,9.296875 6.640625,8.83037109 6.640625,8.33398438 C6.640625,7.83759766 6.83486328,7.37109375 7.18515625,7.01914063 C7.53710938,6.6671875 8.00361328,6.47460938 8.5,6.47460938 C8.99638672,6.47460938 9.46289063,6.6671875 9.81484375,7.01914063 C10.1651367,7.37109375 10.359375,7.83759766 10.359375,8.33398438 C10.359375,8.83037109 10.1651367,9.296875 9.81484375,9.64882813 Z" id="路径" fill="#E3F2FD" fill-rule="nonzero"></path>
                    <path d="M15.353125,10.3875977 L14.2657227,9.45791016 C14.3171875,9.14248047 14.34375,8.82041016 14.34375,8.49833984 C14.34375,8.17626953 14.3171875,7.85419922 14.2657227,7.53876953 L15.353125,6.60908203 C15.5208008,6.46630859 15.5822266,6.23388672 15.5075195,6.02470703 L15.4925781,5.98154297 C15.1920898,5.14316406 14.747168,4.37285156 14.1694336,3.6921875 L14.1395508,3.65732422 C13.9967773,3.48964844 13.7660156,3.4265625 13.5568359,3.49960937 L12.2071289,3.97939453 C11.709082,3.57099609 11.1529297,3.24892578 10.5519531,3.02314453 L10.2913086,1.61201172 C10.2514648,1.39453125 10.0804688,1.22519531 9.86298828,1.18535156 L9.81816406,1.17705078 C8.95322266,1.02099609 8.04345703,1.02099609 7.17851563,1.17705078 L7.13369141,1.18535156 C6.91621094,1.22519531 6.74521484,1.39453125 6.70537109,1.61201172 L6.44306641,3.02978516 C5.84707031,3.25556641 5.29423828,3.57597656 4.79951172,3.98271484 L3.43984375,3.49960937 C3.23232422,3.4265625 2.99990234,3.48798828 2.85712891,3.65732422 L2.82724609,3.6921875 C2.24951172,4.37451172 1.80458984,5.14482422 1.50410156,5.98154297 L1.48916016,6.02470703 C1.41445313,6.23222656 1.47587891,6.46464844 1.64355469,6.60908203 L2.74423828,7.54873047 C2.69277344,7.86083984 2.66787109,8.17958984 2.66787109,8.49667969 C2.66787109,8.81542969 2.69277344,9.13417969 2.74423828,9.44462891 L1.64355469,10.3842773 C1.47587891,10.5270508 1.41445313,10.7594727 1.48916016,10.9686523 L1.50410156,11.0118164 C1.80458984,11.8485352 2.24951172,12.6205078 2.82724609,13.3011719 L2.85712891,13.3360352 C2.99990234,13.5037109 3.23066406,13.5667969 3.43984375,13.49375 L4.79951172,13.0106445 C5.29423828,13.4173828 5.84707031,13.7394531 6.44306641,13.9635742 L6.70537109,15.3813477 C6.74521484,15.5988281 6.91621094,15.7681641 7.13369141,15.8080078 L7.17851563,15.8163086 C7.61181641,15.8943359 8.05507813,15.9341797 8.49833984,15.9341797 C8.94160156,15.9341797 9.38652344,15.8943359 9.81816406,15.8163086 L9.86298828,15.8080078 C10.0804688,15.7681641 10.2514648,15.5988281 10.2913086,15.3813477 L10.5519531,13.9702148 C11.1529297,13.7444336 11.709082,13.4240234 12.2071289,13.0139648 L13.5568359,13.49375 C13.7643555,13.5667969 13.9967773,13.5053711 14.1395508,13.3360352 L14.1694336,13.3011719 C14.747168,12.6188477 15.1920898,11.8485352 15.4925781,11.0118164 L15.5075195,10.9686523 C15.5822266,10.7644531 15.5208008,10.5320312 15.353125,10.3875977 Z M13.0870117,7.73466797 C13.1285156,7.98535156 13.1500977,8.24267578 13.1500977,8.5 C13.1500977,8.75732422 13.1285156,9.01464844 13.0870117,9.26533203 L12.9774414,9.93105469 L14.2175781,10.9918945 C14.0299805,11.4251953 13.7925781,11.8335938 13.5103516,12.2137695 L11.9697266,11.6675781 L11.4484375,12.0958984 C11.0516602,12.4212891 10.6100586,12.6769531 10.1319336,12.85625 L9.49941406,13.0936523 L9.20224609,14.7040039 C8.73574219,14.7571289 8.25927734,14.7571289 7.79111328,14.7040039 L7.49394531,13.090332 L6.86640625,12.8496094 C6.39326172,12.6703125 5.95332031,12.4146484 5.55986328,12.090918 L5.03857422,11.6609375 L3.48798828,12.2121094 C3.20576172,11.8319336 2.97001953,11.421875 2.78076172,10.9902344 L4.03417969,9.91943359 L3.92626953,9.25537109 C3.88642578,9.00800781 3.86484375,8.75234375 3.86484375,8.5 C3.86484375,8.24599609 3.88476563,7.99199219 3.92626953,7.74462891 L4.03417969,7.08056641 L2.78076172,6.00976562 C2.96835938,5.57646484 3.20576172,5.16806641 3.48798828,4.78789062 L5.03857422,5.3390625 L5.55986328,4.90908203 C5.95332031,4.58535156 6.39326172,4.3296875 6.86640625,4.15039062 L7.49560547,3.91298828 L7.79277344,2.29931641 C8.25927734,2.24619141 8.73574219,2.24619141 9.20390625,2.29931641 L9.50107422,3.90966797 L10.1335938,4.14707031 C10.6100586,4.32636719 11.0533203,4.58203125 11.4500977,4.90742187 L11.9713867,5.33574219 L13.5120117,4.78955078 C13.7942383,5.16972656 14.0299805,5.57978516 14.2192383,6.01142578 L12.9791016,7.07226562 L13.0870117,7.73466797 Z M8.5,5.41210937 C6.88632813,5.41210937 5.578125,6.7203125 5.578125,8.33398438 C5.578125,9.94765625 6.88632813,11.2558594 8.5,11.2558594 C10.1136719,11.2558594 11.421875,9.94765625 11.421875,8.33398438 C11.421875,6.7203125 10.1136719,5.41210937 8.5,5.41210937 Z M9.81484375,9.64882813 C9.46289062,9.99912109 8.99638672,10.1933594 8.5,10.1933594 C8.00361328,10.1933594 7.53710938,9.99912109 7.18515625,9.64882813 C6.83486328,9.296875 6.640625,8.83037109 6.640625,8.33398438 C6.640625,7.83759766 6.83486328,7.37109375 7.18515625,7.01914062 C7.53710938,6.6671875 8.00361328,6.47460937 8.5,6.47460937 C8.99638672,6.47460937 9.46289062,6.6671875 9.81484375,7.01914062 C10.1651367,7.37109375 10.359375,7.83759766 10.359375,8.33398438 C10.359375,8.83037109 10.1651367,9.296875 9.81484375,9.64882813 Z" id="形状" fill="#247BD8" fill-rule="nonzero"></path>
                </g>
            </g>
        </g>
    </g>
</svg>