<?xml version="1.0" encoding="UTF-8"?>
<svg width="14px" height="17px" viewBox="0 0 14 17" version="1.1" xmlns="http://www.w3.org/2000/svg" xmlns:xlink="http://www.w3.org/1999/xlink">
    <!-- Generator: Sketch 52.5 (67469) - http://www.bohemiancoding.com/sketch -->
    <title>ic_home_process reminder</title>
    <desc>Created with Sketch.</desc>
    <g id="Page-1" stroke="none" stroke-width="1" fill="none" fill-rule="evenodd">
        <g id="首页" transform="translate(-241.000000, -133.000000)">
            <g id="流程提醒" transform="translate(219.000000, 118.000000)">
                <g id="ic_home_process-reminder" transform="translate(20.000000, 15.000000)">
                    <rect id="矩形" fill="#000000" opacity="0" x="0" y="0" width="17" height="17"></rect>
                    <polygon id="路径-2" fill="#E3F2FD" fill-rule="nonzero" points="4.05714285 8.07080078 14.0224609 8.07080078 14.0224609 12.7019043 4 12.7019043"></polygon>
                    <path d="M3.28058306,13.1810655 C3.28058306,13.4984051 3.53696476,13.7547868 3.85430435,13.7547868 L14.1454299,13.7547868 C14.4627695,13.7547868 14.7191512,13.4984051 14.7191512,13.1810655 L14.7191512,9.00365741 C14.7191512,5.84460458 12.15892,3.28437333 8.99986714,3.28437333 C5.84081431,3.28437333 3.28058306,5.84460458 3.28058306,9.00365741 L3.28058306,13.1810655 Z M4.57145596,9.00365741 C4.57145596,6.55817043 6.55438016,4.57524623 8.99986714,4.57524623 C11.4453541,4.57524623 13.4282783,6.55817043 13.4282783,9.00365741 L13.4282783,12.4639139 L7.0635578,12.4639139 L7.0635578,9.3980908 C7.0635578,9.29948245 6.98287824,9.2188029 6.8842699,9.2188029 L6.09540313,9.2188029 C5.99679478,9.2188029 5.91611522,9.29948245 5.91611522,9.3980908 L5.91611522,12.4639139 L4.57145596,12.4639139 L4.57145596,9.00365741 Z M3.70908115,4.47663788 L4.41906124,3.76665779 C4.47464049,3.71107854 4.47464049,3.61964171 4.41906124,3.56406246 L3.20169638,2.3466976 C3.14611713,2.29111835 3.0546803,2.29111835 2.99910105,2.3466976 L2.28912096,3.05667769 C2.23354171,3.11225694 2.23354171,3.20369377 2.28912096,3.25927302 L3.50648582,4.47663788 C3.56206507,4.53221713 3.65170902,4.53221713 3.70908115,4.47663788 Z M15.7141991,3.05667769 L15.004219,2.3466976 C14.9486397,2.29111835 14.8572029,2.29111835 14.8016237,2.3466976 L13.5842588,3.56406246 C13.5286796,3.61964171 13.5286796,3.71107854 13.5842588,3.76665779 L14.2942389,4.47663788 C14.3498181,4.53221713 14.441255,4.53221713 14.4968342,4.47663788 L15.7141991,3.25927302 C15.7697783,3.2019009 15.7697783,3.11225694 15.7141991,3.05667769 Z M14.73708,14.9022294 L3.26265427,14.9022294 C2.94531468,14.9022294 2.68893298,15.1586111 2.68893298,15.4759507 L2.68893298,15.9062417 C2.68893298,15.9851283 2.75347663,16.049672 2.8323633,16.049672 L15.167371,16.049672 C15.2462577,16.049672 15.3108013,15.9851283 15.3108013,15.9062417 L15.3108013,15.4759507 C15.3108013,15.1586111 15.0544196,14.9022294 14.73708,14.9022294 Z M8.49786102,2.13693076 L9.50187327,2.13693076 C9.58075995,2.13693076 9.64530359,2.07238711 9.64530359,1.99350043 L9.64530359,0.272336572 C9.64530359,0.193449895 9.58075995,0.12890625 9.50187327,0.12890625 L8.49786102,0.12890625 C8.41897434,0.12890625 8.3544307,0.193449895 8.3544307,0.272336572 L8.3544307,1.99350043 C8.3544307,2.07238711 8.41897434,2.13693076 8.49786102,2.13693076 Z" id="形状" fill="#247BD8" fill-rule="nonzero"></path>
                </g>
            </g>
        </g>
    </g>
</svg>