<?xml version="1.0" encoding="UTF-8"?>
<svg width="13px" height="18px" viewBox="0 0 13 18" version="1.1" xmlns="http://www.w3.org/2000/svg" xmlns:xlink="http://www.w3.org/1999/xlink">
    <!-- Generator: Sketch 52.5 (67469) - http://www.bohemiancoding.com/sketch -->
    <title>ic_home_task reminder</title>
    <desc>Created with Sketch.</desc>
    <g id="Page-1" stroke="none" stroke-width="1" fill="none" fill-rule="evenodd">
        <g id="首页" transform="translate(-1128.000000, -132.000000)">
            <g id="任务提醒" transform="translate(1111.000000, 118.000000)">
                <g id="ic_home_task-reminder" transform="translate(14.000000, 13.000000)">
                    <rect id="矩形" fill="#000000" opacity="0" x="0" y="0" width="18" height="18"></rect>
                    <polygon id="路径-5" fill="#E3F2FD" fill-rule="nonzero" points="4.04614258 8.5057373 15.1435547 8.5057373 12.3710938 12.095 6.640625 12.095"></polygon>
                    <polygon id="路径-6" fill="#E3F2FD" fill-rule="nonzero" points="6.84655762 11.936 12.0505371 11.936 12.0505371 14.528 7 14.528"></polygon>
                    <path d="M11.7923018,16.8654726 L7.20769817,16.8654726 C7.1236471,16.8654726 7.05487805,16.9342416 7.05487805,17.0182927 L7.05487805,17.6295732 C7.05487805,17.9676877 7.32804402,18.2408537 7.66615854,18.2408537 L11.3338415,18.2408537 C11.671956,18.2408537 11.945122,17.9676877 11.945122,17.6295732 L11.945122,17.0182927 C11.945122,16.9342416 11.8763529,16.8654726 11.7923018,16.8654726 Z M9.5,1.125 C6.04053449,1.125 3.234375,3.93115949 3.234375,7.390625 C3.234375,9.70967035 4.49514101,11.734537 6.3671875,12.8176496 L6.3671875,15.0316311 C6.3671875,15.3697456 6.64035347,15.6429116 6.97846799,15.6429116 L12.021532,15.6429116 C12.3596465,15.6429116 12.6328125,15.3697456 12.6328125,15.0316311 L12.6328125,12.8176496 C14.504859,11.734537 15.765625,9.70967035 15.765625,7.390625 C15.765625,3.93115949 12.9594655,1.125 9.5,1.125 Z M11.9432117,11.6275629 L11.2574314,12.0248952 L11.2574314,14.2675305 L7.7425686,14.2675305 L7.7425686,12.0248952 L7.0567883,11.6275629 C5.55342035,10.7583984 4.6097561,9.15760766 4.6097561,7.390625 C4.6097561,4.68952934 6.79890434,2.5003811 9.5,2.5003811 C12.2010957,2.5003811 14.3902439,4.68952934 14.3902439,7.390625 C14.3902439,9.15760766 13.4465796,10.7583984 11.9432117,11.6275629 Z" id="形状" fill="#247BD8" fill-rule="nonzero"></path>
                </g>
            </g>
        </g>
    </g>
</svg>