<?xml version="1.0" encoding="UTF-8"?>
<svg width="26px" height="30px" viewBox="0 0 26 30" version="1.1" xmlns="http://www.w3.org/2000/svg" xmlns:xlink="http://www.w3.org/1999/xlink">
    <!-- Generator: Sketch 52.3 (67297) - http://www.bohemiancoding.com/sketch -->
    <title>ic_check</title>
    <desc>Created with Sketch.</desc>
    <g id="供应链金融平台V1.0_0329" stroke="none" stroke-width="1" fill="none" fill-rule="evenodd">
        <g id="画板" transform="translate(-2.000000, 0.000000)" fill="#26A69A">
            <g id="ic_check" transform="translate(1.878788, 0.000000)">
                <g id="分组" transform="translate(0.213607, 0.000000)">
                    <path d="M17.9976666,19.3948437 L17.489105,19.3948437 C17.6270197,19.0253484 17.8126305,18.5409227 17.9976666,17.9869653 L18.0896098,17.7329724 C18.2982057,17.1330423 18.4596821,16.6945893 18.5751835,16.3946258 C18.6906871,16.0946622 18.8297511,15.8636533 18.9912256,15.6791941 L19.3153251,15.3562427 L18.8527363,15.2872853 C18.2982049,15.1947675 17.8586009,15.1022498 17.5350754,15.0097317 L17.3040683,14.9407743 L16.6334584,17.3870388 L16.6334588,17.3870371 C16.4536273,18.0759266 16.2138536,18.7477589 15.9168791,19.3948426 L13.374077,19.3948426 C12.7729988,19.3948426 12.2178903,19.3718568 11.7558785,19.348871 L11.5013083,19.3253159 L11.5013083,20.6872245 L11.7558761,20.6642387 C12.0794016,20.6412529 12.5879632,20.6182671 13.3045429,20.6182671 L17.9740933,20.6182671 C18.3441656,20.6182671 18.7831925,20.6412529 19.2917542,20.6642387 L19.5463217,20.6872245 L19.5463217,19.3253159 L19.2917542,19.3483017 C18.7142349,19.3712875 18.2746339,19.3948479 17.9976552,19.3948479 L17.9976666,19.3948437 Z M9.42166557,18.7363003 L9.5883126,18.709292 L9.61129839,18.5225325 C9.65899383,18.1478651 9.68255424,17.8542217 9.73024998,17.5870104 L9.7773708,17.239349 L9.44580001,17.292791 C8.6637098,17.3996749 7.95287336,17.5065588 7.3368526,17.5600008 L7.33685311,17.5600007 C6.73909118,17.6390842 6.13824496,17.6927659 5.53593245,17.7209007 L5.18021086,17.7467604 L5.32214824,18.0938448 C5.48879527,18.4949473 5.63073116,18.9224818 5.74910872,19.2965752 L5.81978995,19.5373515 L6.03355781,19.4839096 C6.83920991,19.2701417 7.4552277,19.1098161 7.85805524,19.02994 C8.2844417,18.9494896 8.78208491,18.8426057 9.4216646,18.7357218 L9.42166557,18.7363003 Z" id="形状" fill-rule="nonzero"></path>
                    <path d="M13.6889803,15.1269639 L13.6131272,14.9407791 L13.4120016,14.9867507 C13.059171,15.0568573 12.6810534,15.1269639 12.3282227,15.2430424 L12.0759537,15.3125743 L12.1765165,15.5453056 C12.4287855,16.1733929 12.630486,16.7078125 12.8069028,17.1497126 C12.9580345,17.5680537 13.1091655,18.0794885 13.2355884,18.6840138 L13.2855826,18.9632913 L13.5631359,18.8701989 C13.8906826,18.7541207 14.2435162,18.6840141 14.6216308,18.6380425 L14.9491774,18.6150567 L14.8486147,18.3357793 C14.6721987,17.8703173 14.495784,17.3358977 14.2940832,16.7313723 C14.0670985,16.126847 13.8906817,15.6148382 13.6889809,15.1269654 L13.6889803,15.1269639 Z" id="路径"></path>
                    <path d="M17.8143645,12.1118025 C17.1868513,11.6923103 16.559341,11.038365 15.9553897,10.1746737 L16.3967157,9.61439606 L16.0019335,9.54428945 C15.444529,9.45119705 14.8871215,9.35753004 14.3527019,9.24087575 L14.1423817,9.19432955 L14.119396,9.40464967 C14.0033178,9.77816909 13.8636789,10.1281266 13.6774929,10.4315403 C13.4918827,10.734954 13.2827107,11.1084705 13.0269948,11.4819899 C12.7718523,11.8555093 12.4695903,12.2290287 12.1443397,12.5789862 C11.8190922,12.9289437 11.3312163,13.2559164 10.7037061,13.6058769 L10.5876279,13.6759835 L10.7962239,11.7382807 C10.8427701,11.201562 10.8893163,10.7814957 10.982409,10.5246318 L11.0755013,10.2212181 L7.86897761,10.2212181 C7.21790547,10.2212181 6.59096628,10.1982323 5.98644093,10.1746719 L5.75428427,10.1516861 L5.75428427,11.5285343 L6.01000134,11.5055485 L6.00999949,11.5055486 C6.63696247,11.4778925 7.26439836,11.4621827 7.89196214,11.4584278 L9.28605195,11.4584278 L8.91425758,15.2867155 L7.82243343,15.2867155 C7.82243343,14.702876 7.84541921,14.1431724 7.89196541,13.6524264 C7.93793698,13.0921488 7.9850578,12.6490977 8.0781502,12.2985632 L8.14710756,12.0187111 L6.40478529,12.0187111 L6.40478529,12.252017 C6.40478529,12.8824033 6.40478529,13.5823183 6.38179947,14.3293572 C6.35881369,15.0534111 6.33525328,15.7297672 6.28870708,16.3601506 L6.21917509,16.5934565 L9.82046917,16.5934565 L9.65784479,19.3477298 C9.5883128,19.5810357 9.47223462,19.6045961 9.35558212,19.6281565 C9.10043967,19.6511423 8.54245873,19.6511423 7.68336556,19.6511423 L7.24088848,19.6511423 L7.49718018,20.0246617 C7.68279034,20.3050885 7.84541561,20.6550481 7.96149409,21.0751113 L8.00804029,21.261871 L8.21721116,21.2388852 C9.07687837,21.1452182 9.75093837,21.0515509 10.2388112,20.9348975 C10.6571524,20.8418051 11.1680131,20.5383931 11.1450252,19.5580493 L11.4007423,16.8738847 C11.4467139,16.2670602 11.4702743,15.8234351 11.5168205,15.5665682 L11.562792,15.2867161 L10.4020102,15.2867161 L10.5410742,13.9558377 L10.7266844,14.0259443 C11.1220406,14.1891433 11.493835,14.3994637 11.8185085,14.6793155 L11.9817075,14.796543 L12.1207715,14.6563298 C12.3764886,14.4230239 12.5856594,14.2127046 12.7718436,14.0259434 L12.7718436,14.4931305 L13.0269858,14.46957 C13.6315111,14.4465842 14.4446345,14.4230238 15.3973953,14.4230238 C16.3501561,14.4230238 17.1167327,14.4460096 17.6281674,14.4689954 L17.8833096,14.4931305 L17.8833096,13.8391852 C18.3016507,14.0960516 18.7429768,14.3529191 19.2078647,14.5396773 L19.4170353,14.6327697 L19.5101277,14.44601 C19.6950327,14.0889023 19.9667354,13.7840015 20.3002632,13.5593336 L20.6950455,13.2789069 L20.2301575,13.1392683 C19.2773967,12.9053878 18.4878352,12.5554288 17.8137752,12.1118037 L17.8143645,12.1118025 Z M13.5619804,13.1622529 C13.8642431,12.7887326 14.1193849,12.462334 14.329131,12.1819082 C14.5383016,11.8784945 14.7704571,11.528537 15.0261759,11.1314586 C15.3744114,11.6687514 15.7232208,12.1118025 16.0720303,12.462337 C16.3041867,12.7186287 16.5593291,12.92895 16.8386069,13.1392671 L13.5619804,13.1392671 L13.5619804,13.1622529 Z" id="形状" fill-rule="nonzero"></path>
                    <path d="M15.1485866,18.1875121 L15.1974313,18.3886377 L16.6731192,18.119704 L16.6248492,17.8955926 C16.5041737,17.2692305 16.3829236,16.7543486 16.309943,16.351521 L16.0197474,14.9407666 L15.8019569,14.9631777 C15.41522,14.9855889 15.027909,15.0528224 14.6411751,15.0976447 L14.3745399,15.1418924 L14.446945,15.3660038 C14.5676204,15.8130761 14.6653101,16.2164776 14.7618511,16.5968943 C14.8342562,16.977308 14.9796416,17.5151777 15.1485881,18.1863617 L15.1485866,18.1875121 Z" id="路径"></path>
                    <path d="M25.3801735,4.87746666 C25.3801735,4.57756808 25.151627,4.34679164 24.8338928,4.34679164 L24.1276282,4.32337955 C24.105331,4.32337955 21.3053571,4.27711289 18.4373854,3.12323127 C15.5236843,1.94593905 13.6340053,0.584136474 13.6117031,0.584136474 L13.1791372,0.28423789 C13.0877188,0.191704293 12.9740028,0.16884967 12.8602862,0.16884967 C12.7443573,0.172011031 12.6325395,0.212476711 12.5414352,0.284237601 L12.1317224,0.584136184 C12.1094252,0.607548274 10.2197355,1.94593876 7.26088775,3.14608704 C4.39235056,4.29996924 1.61579735,4.34679215 1.56951973,4.34679215 L0.864368851,4.36908937 C0.568930692,4.36908937 0.318088115,4.60042293 0.318088115,4.90032122 L0.318088115,16.8566516 C0.318088058,23.0887234 8.46716118,29.7126835 12.8602747,29.7126835 C17.2533882,29.7126835 25.4024612,23.0881752 25.4024612,16.8332531 L25.380164,4.87747093 L25.3801735,4.87746666 Z M19.5979525,24.3613248 C16.9490436,26.8586139 14.2310183,28.0124961 12.8597409,28.0124961 C9.28214058,28.0124961 2.03331722,21.887463 2.03331722,16.8694574 L2.03331722,6.07927101 C3.14817792,5.98506519 5.44813803,5.70244887 7.86458559,4.7364209 C10.3044576,3.77095266 12.1166735,2.66333653 12.859712,2.16889596 C13.6033247,2.66333653 15.415532,3.77094977 17.8554155,4.76039063 C20.2484646,5.72585888 22.5712894,6.0090352 23.6638336,6.10324074 L23.6638336,16.8928789 C23.6866883,19.1549312 22.1531983,21.9582585 19.5979236,24.361319 L19.5979525,24.3613248 Z" id="形状" fill-rule="nonzero"></path>
                </g>
            </g>
        </g>
    </g>
</svg>