<?xml version="1.0" encoding="UTF-8"?>
<svg width="24px" height="24px" viewBox="0 0 24 24" version="1.1" xmlns="http://www.w3.org/2000/svg" xmlns:xlink="http://www.w3.org/1999/xlink">
    <!-- Generator: Sketch 52.3 (67297) - http://www.bohemiancoding.com/sketch -->
    <title>ic_zhongdengwan</title>
    <desc>Created with Sketch.</desc>
    <g id="供应链金融平台V1.0_0329" stroke="none" stroke-width="1" fill="none" fill-rule="evenodd">
        <g id="画板-copy" transform="translate(-3.000000, -3.000000)" fill="#42A5F5" fill-rule="nonzero">
            <g id="ic_zhongdengwan" transform="translate(2.923828, 2.923828)">
                <path d="M4.63910237,21.9330719 C3.20964745,21.9330719 2.05087526,20.7742735 2.05087526,19.3448448 L2.05087526,4.46654154 C2.05087526,3.03708662 3.20967365,1.87831443 4.63910237,1.87831443 L19.5679619,1.87831443 C20.9974142,1.87831443 22.156189,3.03711281 22.156189,4.46654154 L22.156189,14.4610784 C22.156189,14.9237401 22.5312504,15.2988015 22.9939121,15.2988015 L22.9939121,15.2988015 C23.4565738,15.2988015 23.8316353,14.9237401 23.8316353,14.4610784 L23.8316353,4.02924331 C23.8316353,1.92533696 22.1260858,0.219818869 20.0222108,0.219818869 L4.18485864,0.219818869 C2.0809811,0.219818869 0.375434198,1.92536839 0.375434198,4.02924331 L0.375434198,19.8665955 C0.375434198,21.9705019 2.08098372,23.6760199 4.18485864,23.6760199 L14.5829455,23.6760199 C15.0642458,23.6760199 15.4544169,23.2858489 15.4544169,22.8045486 L15.4544169,22.8045486 C15.4544169,22.3232481 15.0642459,21.933077 14.5829455,21.9330767 L4.63910237,21.9330719 Z M17.3170574,16.1585952 C18.2476088,15.0078387 18.8052964,13.5431359 18.8052964,11.947943 C18.8052964,8.24665123 15.8047977,5.24615254 12.1035059,5.24615254 C8.40221417,5.24615254 5.40174167,8.24662503 5.40174167,11.9479168 C5.40174167,15.6492085 8.40224036,18.6497072 12.1035321,18.6497072 C13.698725,18.6497072 15.0602692,18.2074432 16.2110388,17.2768918 L22.1695275,23.2353804 C22.4749547,23.5408076 22.97015,23.5408076 23.2755772,23.2353804 C23.276595,23.2343627 23.2776099,23.2333421 23.2786221,23.2323188 L23.2786221,23.2323188 C23.5845326,22.9230116 23.583157,22.4246974 23.2755435,22.1170838 L17.3170574,16.1585952 Z M12.1035321,16.9742531 C9.3275502,16.9742531 7.07719583,14.723883 7.07719583,11.9479168 C7.07719583,9.17193487 9.32756592,6.9215805 12.1035321,6.9215805 C14.879514,6.9215805 17.1298684,9.17195059 17.1298684,11.9479168 C17.1298684,14.7238987 14.8794983,16.9742531 12.1035321,16.9742531 Z" id="形状"></path>
            </g>
        </g>
    </g>
</svg>