<?xml version="1.0" encoding="UTF-8"?>
<svg width="298px" height="144px" viewBox="0 0 298 144" version="1.1" xmlns="http://www.w3.org/2000/svg" xmlns:xlink="http://www.w3.org/1999/xlink">
    <!-- Generator: Sketch 56.2 (81672) - https://sketch.com -->
    <title>ic_card_purple</title>
    <desc>Created with Sketch.</desc>
    <defs>
        <linearGradient x1="0%" y1="61.6751498%" x2="100%" y2="38.3248502%" id="linearGradient-1">
            <stop stop-color="#646AE6" offset="0%"></stop>
            <stop stop-color="#878CFE" offset="100%"></stop>
        </linearGradient>
        <rect id="path-2" x="0" y="0.125" width="298" height="144" rx="4"></rect>
        <linearGradient x1="0%" y1="93.0996573%" x2="100%" y2="6.90034267%" id="linearGradient-4">
            <stop stop-color="#646AE6" offset="0%"></stop>
            <stop stop-color="#878CFE" offset="100%"></stop>
        </linearGradient>
    </defs>
    <g id="页面1" stroke="none" stroke-width="1" fill="none" fill-rule="evenodd">
        <g id="对外门户系统供应商-首页" transform="translate(-1234.000000, -175.000000)">
            <g id="还款信息" transform="translate(582.000000, 109.000000)">
                <g id="编组-2" transform="translate(0.000000, -0.000000)">
                    <g id="ic_card_purple" transform="translate(652.000000, 65.875000)">
                        <g>
                            <mask id="mask-3" fill="white">
                                <use xlink:href="#path-2"></use>
                            </mask>
                            <use id="蒙版" fill="url(#linearGradient-1)" xlink:href="#path-2"></use>
                            <circle id="椭圆形备份-10" fill-opacity="0.05" fill="#FFFFFF" mask="url(#mask-3)" cx="199.298163" cy="11" r="44"></circle>
                            <circle id="椭圆形备份-11" fill-opacity="0.05" fill="#FFFFFF" mask="url(#mask-3)" cx="253.257957" cy="97.921875" r="68"></circle>
                            <circle id="椭圆形备份-9" fill-opacity="0.05" fill="#FFFFFF" mask="url(#mask-3)" cx="16" cy="22.625" r="36"></circle>
                            <circle id="椭圆形备份-12" fill-opacity="0.05" fill="#FFFFFF" mask="url(#mask-3)" cx="52" cy="86.421875" r="11.5"></circle>
                        </g>
                        <g id="ic_invoice" transform="translate(250.929815, 8.101090)" fill-rule="nonzero">
                            <circle id="椭圆形" fill="#FFFFFF" cx="17" cy="17" r="14"></circle>
                            <circle id="椭圆形" stroke="#FFFFFF" stroke-width="0.5" cx="17" cy="17" r="16.5"></circle>
                            <path d="M14.1010144,13.0149325 C13.892704,13.0149325 13.7236405,12.8473786 13.7236405,12.6390682 L13.7206216,11.6760102 C13.7206216,11.4676999 13.8881755,11.2986364 14.0964859,11.2971269 L14.0979954,11.2971269 C14.3063057,11.2971269 14.4753692,11.4646809 14.4753692,11.6729912 L14.4783882,12.6360492 C14.4783882,12.8443596 14.3108342,13.0149325 14.1010144,13.0149325 L14.1010144,13.0149325 Z M14.1010144,15.4361629 C13.892704,15.4361629 13.7236405,15.2686089 13.7236405,15.0602986 L13.7206216,14.0972406 C13.7206216,13.8889303 13.8881755,13.7198668 14.0964859,13.7183573 L14.0979954,13.7183573 C14.3063057,13.7183573 14.4753692,13.8859113 14.4753692,14.0942216 L14.4783882,15.0572796 C14.4783882,15.2670994 14.3108342,15.4361629 14.1010144,15.4361629 Z M14.1010144,17.8589028 C13.892704,17.8589028 13.7236405,17.6913488 13.7236405,17.4830385 L13.7206216,16.5199805 C13.7206216,16.3116702 13.8881755,16.1426067 14.0964859,16.1410972 L14.0979954,16.1410972 C14.3063057,16.1410972 14.4753692,16.3086512 14.4753692,16.5169615 L14.4783882,17.4800195 C14.4783882,17.6883298 14.3108342,17.8573933 14.1010144,17.8589028 Z M14.1010144,20.2801332 C13.892704,20.2801332 13.7236405,20.1125792 13.7236405,19.9042689 L13.7206216,18.9412109 C13.7206216,18.7329006 13.8881755,18.5638371 14.0964859,18.5623276 L14.0979954,18.5623276 C14.3063057,18.5623276 14.4753692,18.7298816 14.4753692,18.9381919 L14.4783882,19.9012499 C14.4783882,20.1110697 14.3108342,20.2801332 14.1010144,20.2801332 Z M14.1010144,22.7028731 C13.892704,22.7028731 13.7236405,22.5353191 13.7236405,22.3270088 L13.7206216,21.3639508 C13.7206216,21.1556404 13.8881755,20.986577 14.0964859,20.9850675 L14.0979954,20.9850675 C14.3063057,20.9850675 14.4753692,21.1526214 14.4753692,21.3609318 L14.4783882,22.3239898 C14.4783882,22.5323001 14.3108342,22.7013636 14.1010144,22.7028731 Z M23.0960966,23.2764813 L10.9039034,23.2764813 C10.5370961,23.2764813 10.2397255,22.9821297 10.2397255,22.6198508 L10.2397255,17.6671969 L10.7363494,17.6747444 L10.7469159,17.6747444 C11.2782582,17.6747444 11.7114834,17.2686902 11.7114834,16.7690472 C11.7114834,16.2694043 11.2782582,15.8633501 10.7469159,15.8633501 L10.7363494,15.8633501 L10.241235,15.8708975 L10.241235,11.3801492 C10.241235,11.0178703 10.5386056,10.7235187 10.9054129,10.7235187 L23.0960966,10.7235187 C23.4629039,10.7235187 23.7602745,11.0178703 23.7602745,11.3801492 L23.7602745,15.8633501 L23.277236,15.8633501 C22.7458937,15.8633501 22.314178,16.2694043 22.314178,16.7690472 C22.314178,17.2686902 22.7458937,17.6747444 23.277236,17.6747444 L23.7602745,17.6747444 L23.7602745,22.6198508 C23.7602745,22.9821297 23.4629039,23.2764813 23.0960966,23.2764813 Z M11.2058025,22.3104043 L22.7941975,22.3104043 L22.7941975,18.581951 C21.9639751,18.3736407 21.3481011,17.640026 21.3481011,16.7690472 C21.3481011,15.8980685 21.9639751,15.1659633 22.7941975,14.9561434 L22.7941975,11.6895957 L11.2058025,11.6895957 L11.2058025,14.9516149 C12.0496103,15.1523778 12.6760508,15.890521 12.6760508,16.7690472 C12.6760508,17.6475735 12.0496103,18.3872261 11.2058025,18.587989 L11.2058025,22.3104043 Z M20.8635531,14.5878266 L16.0331683,14.5878266 C15.7659876,14.5878266 15.5501298,14.3719688 15.5501298,14.1047881 C15.5501298,13.8376074 15.7659876,13.6217496 16.0331683,13.6217496 L20.8650626,13.6217496 C21.1322433,13.6217496 21.3481011,13.8376074 21.3481011,14.1047881 C21.3481011,14.3719688 21.1307338,14.5878266 20.8635531,14.5878266 Z M20.8635531,20.352589 L16.0331683,20.352589 C15.7659876,20.352589 15.5501298,20.1367311 15.5501298,19.8695505 C15.5501298,19.6023698 15.7659876,19.386512 16.0331683,19.386512 L20.8650626,19.386512 C21.1322433,19.386512 21.3481011,19.6023698 21.3481011,19.8695505 C21.3465916,20.1367311 21.1307338,20.352589 20.8635531,20.352589 Z" id="形状" fill="url(#linearGradient-4)"></path>
                        </g>
                        <path d="M4,48.921875 L294,48.921875" id="直线-8" stroke-opacity="0.5" stroke="#FFFFFF" stroke-width="0.5" stroke-linecap="square"></path>
                    </g>
                </g>
            </g>
        </g>
    </g>
</svg>