<?xml version="1.0" encoding="UTF-8"?>
<svg width="298px" height="144px" viewBox="0 0 298 144" version="1.1" xmlns="http://www.w3.org/2000/svg" xmlns:xlink="http://www.w3.org/1999/xlink">
    <!-- Generator: Sketch 56.2 (81672) - https://sketch.com -->
    <title>ic_card_yellow</title>
    <desc>Created with Sketch.</desc>
    <defs>
        <linearGradient x1="31.4990562%" y1="61.1551141%" x2="66.5432309%" y2="38.3248502%" id="linearGradient-1">
            <stop stop-color="#F29702" offset="0%"></stop>
            <stop stop-color="#FFB757" offset="100%"></stop>
        </linearGradient>
        <rect id="path-2" x="0" y="0.700248811" width="298" height="144" rx="4"></rect>
        <linearGradient x1="36.0956874%" y1="100%" x2="46.7313864%" y2="0%" id="linearGradient-4">
            <stop stop-color="#E5940F" offset="0%"></stop>
            <stop stop-color="#FFC67B" offset="100%"></stop>
        </linearGradient>
    </defs>
    <g id="页面1" stroke="none" stroke-width="1" fill="none" fill-rule="evenodd">
        <g id="对外门户系统供应商-首页" transform="translate(-606.000000, -175.000000)">
            <g id="还款信息" transform="translate(582.000000, 109.000000)">
                <g id="编组-2" transform="translate(0.000000, -0.000000)">
                    <g id="ic_card_yellow" transform="translate(24.000000, 65.299751)">
                        <g>
                            <mask id="mask-3" fill="white">
                                <use xlink:href="#path-2"></use>
                            </mask>
                            <use id="蒙版" fill="url(#linearGradient-1)" xlink:href="#path-2"></use>
                            <circle id="椭圆形" fill-opacity="0.1" fill="#FFFFFF" mask="url(#mask-3)" cx="135.5" cy="-1" r="29"></circle>
                            <circle id="椭圆形备份-5" fill-opacity="0.1" fill="#FFFFFF" mask="url(#mask-3)" cx="26" cy="63.2002488" r="9.5"></circle>
                            <circle id="椭圆形备份-7" fill-opacity="0.1" fill="#FFFFFF" mask="url(#mask-3)" cx="205.995996" cy="141.698811" r="81"></circle>
                        </g>
                        <g id="ic_rongzi" transform="translate(251.151260, 8.629777)" fill-rule="nonzero">
                            <circle id="椭圆形" fill="#FFFFFF" cx="17" cy="17" r="14"></circle>
                            <circle id="椭圆形备份-6" stroke="#FFFAF3" stroke-width="0.5" cx="17" cy="17" r="16.5"></circle>
                            <path d="M19.8100868,23.6513682 L12.4131273,23.6513682 C11.7033522,23.6513682 11.1472562,23.0797659 11.1472562,22.3500152 L11.1472562,11.6499848 C11.1472562,10.9202341 11.7033522,10.3486318 12.4131273,10.3486318 L20.7871923,10.3486318 C21.5096612,10.3486318 22.1201811,10.9445272 22.1201811,11.6499848 L22.1201811,22.4946184 C22.1201811,22.7340985 21.9261707,22.9283977 21.6870403,22.9283977 C21.4479099,22.9283977 21.2538995,22.7340985 21.2538995,22.4946184 L21.2538995,11.6499848 C21.2538995,11.4189723 21.0359153,11.2162055 20.7872075,11.2162055 L12.4131273,11.2162055 C12.1852768,11.2162055 12.0135377,11.4025996 12.0135377,11.6499848 L12.0135377,22.3500152 C12.0135377,22.5974156 12.1852768,22.7837945 12.4131273,22.7837945 L19.8100868,22.7837945 C20.0492173,22.7837945 20.2432276,22.9780937 20.2432276,23.2175737 C20.2432276,23.4570538 20.0492173,23.6513682 19.8100868,23.6513682 Z M22.5451431,23.6152326 C21.8362194,23.6152326 21.2372531,23.0026756 21.2372531,22.2777288 C21.2372531,22.0382487 21.4312635,21.8439495 21.6703939,21.8439495 C21.9095243,21.8439495 22.1035347,22.0382487 22.1035347,22.2777288 C22.1035347,22.5237154 22.3139026,22.7476589 22.5451431,22.7476589 C22.7966785,22.7476589 22.9864626,22.5768015 22.9864626,22.3500152 L22.9864626,13.240529 C22.9864626,13.0010489 23.180473,12.8067498 23.4196034,12.8067498 C23.6587338,12.8067498 23.8527442,13.001049 23.8527442,13.240529 L23.8527442,22.3500152 C23.8527442,23.0594406 23.2783295,23.6152326 22.5451431,23.6152326 Z M19.6657116,15.554059 L13.3129752,15.554059 C13.0738448,15.554059 12.8798345,15.3597598 12.8798345,15.1202797 L12.8798345,12.5175585 C12.8798345,12.2780784 13.0738448,12.0837793 13.3129752,12.0837793 L19.6657116,12.0837793 C19.9048421,12.0837793 20.0988524,12.2780785 20.0988524,12.5175585 L20.0988524,15.1202645 C20.0988524,15.3597446 19.9048421,15.554059 19.6657116,15.554059 Z M13.746116,14.6864853 L19.2325709,14.6864853 L19.2325709,12.9513378 L13.746116,12.9513378 L13.746116,14.6864853 Z M17.7887733,17.5783825 L13.4573504,17.5783825 C13.21822,17.5783825 13.0242096,17.3840833 13.0242096,17.1446032 C13.0242096,16.9051231 13.21822,16.710824 13.4573504,16.710824 L17.7887733,16.710824 C18.0279038,16.710824 18.2219141,16.9051231 18.2219141,17.1446032 C18.2219141,17.3840833 18.0279038,17.5783825 17.7887733,17.5783825 Z M19.2325709,19.602706 L13.4573504,19.602706 C13.21822,19.602706 13.0242096,19.4084068 13.0242096,19.1689267 C13.0242096,18.9294467 13.21822,18.7351475 13.4573504,18.7351475 L19.2325709,18.7351475 C19.4717013,18.7351475 19.6657116,18.9294467 19.6657116,19.1689267 C19.6657116,19.4084068 19.4717013,19.602706 19.2325709,19.602706 Z M17.7887733,21.6270447 L13.4573504,21.6270447 C13.21822,21.6270447 13.0242096,21.4327455 13.0242096,21.1932654 C13.0242096,20.9537854 13.21822,20.7594862 13.4573504,20.7594862 L17.7887733,20.7594862 C18.0279038,20.7594862 18.2219141,20.9537854 18.2219141,21.1932654 C18.2219141,21.4327455 18.0279038,21.6270447 17.7887733,21.6270447 Z" id="形状" fill="url(#linearGradient-4)"></path>
                        </g>
                        <path d="M4,49.4971238 L294,49.4971238" id="直线-8" stroke-opacity="0.5" stroke="#FFFFFF" stroke-width="0.5" stroke-linecap="square"></path>
                    </g>
                </g>
            </g>
        </g>
    </g>
</svg>