<?xml version="1.0" encoding="UTF-8"?>
<svg width="298px" height="144px" viewBox="0 0 298 144" version="1.1" xmlns="http://www.w3.org/2000/svg" xmlns:xlink="http://www.w3.org/1999/xlink">
    <!-- Generator: Sketch 56.2 (81672) - https://sketch.com -->
    <title>ic_card_blue</title>
    <desc>Created with Sketch.</desc>
    <defs>
        <linearGradient x1="25.2857592%" y1="61.6751498%" x2="69.7658872%" y2="38.3248502%" id="linearGradient-1">
            <stop stop-color="#108AFB" offset="0%"></stop>
            <stop stop-color="#47A6FE" offset="100%"></stop>
        </linearGradient>
        <rect id="path-2" x="0.965766" y="0.560933337" width="298" height="144" rx="4"></rect>
        <linearGradient x1="37.8472224%" y1="100%" x2="59.7195149%" y2="0%" id="linearGradient-4">
            <stop stop-color="#1890FF" offset="0%"></stop>
            <stop stop-color="#5CAEF9" offset="100%"></stop>
        </linearGradient>
        <linearGradient x1="25.9772873%" y1="100%" x2="69.2128188%" y2="0%" id="linearGradient-5">
            <stop stop-color="#1890FF" offset="0%"></stop>
            <stop stop-color="#5CAEF9" offset="100%"></stop>
        </linearGradient>
    </defs>
    <g id="页面1" stroke="none" stroke-width="1" fill="none" fill-rule="evenodd">
        <g id="对外门户系统供应商-首页" transform="translate(-920.000000, -175.000000)">
            <g id="还款信息" transform="translate(582.000000, 109.000000)">
                <g id="编组-2" transform="translate(0.000000, -0.000000)">
                    <g id="ic_card_blue" transform="translate(337.034234, 65.439067)">
                        <g>
                            <mask id="mask-3" fill="white">
                                <use xlink:href="#path-2"></use>
                            </mask>
                            <use id="蒙版" fill="url(#linearGradient-1)" xlink:href="#path-2"></use>
                            <circle id="椭圆形备份-3" fill-opacity="0.05" fill="#FFFFFF" mask="url(#mask-3)" cx="27.965766" cy="6.31093334" r="34"></circle>
                            <circle id="椭圆形备份-4" fill-opacity="0.05" fill="#FFFFFF" mask="url(#mask-3)" cx="50.715766" cy="68.8109333" r="11.25"></circle>
                            <circle id="椭圆形备份-2" fill-opacity="0.04" fill="#FFFFFF" mask="url(#mask-3)" cx="264.215766" cy="87.8109333" r="59.75"></circle>
                        </g>
                        <g id="ic_amount" transform="translate(251.965766, 8.435933)">
                            <circle id="椭圆形" fill="#FFFFFF" fill-rule="nonzero" cx="17" cy="17" r="14"></circle>
                            <circle id="椭圆形备份-8" stroke="#EBF6FF" stroke-width="0.5" fill-rule="nonzero" cx="16.8988895" cy="17" r="16.5"></circle>
                            <path d="M18.916109,16.0465882 C19.1169182,16.0465882 19.2812166,15.8822898 19.2812166,15.6814806 L19.2812166,15.4058244 C19.2812166,15.2050152 19.1169182,15.0407168 18.916109,15.0407168 L18.2862984,15.0407168 C18.0854892,15.0407168 18.00334,14.8983248 18.1055702,14.7248987 L18.9653986,13.2462129 C19.0658031,13.0727868 18.9854795,12.9303948 18.7846703,12.9303948 L18.5090141,12.9303948 C18.3082049,12.9303948 18.0617572,13.0727868 17.9595271,13.2462129 L17.0996987,14.7248987 C16.9992941,14.8983248 16.9080172,15.0407168 16.8988895,15.0407168 C16.8897618,15.0407168 16.7984849,14.8983248 16.6980803,14.7248987 L15.8382519,13.2462129 C15.7378474,13.0727868 15.4895742,12.9303948 15.288765,12.9303948 L15.0131088,12.9303948 C14.8122996,12.9303948 14.7301504,13.0727868 14.8323805,13.2462129 L15.6922089,14.7248987 C15.7926135,14.8983248 15.7122898,15.0407168 15.5114806,15.0407168 L14.88167,15.0407168 C14.6808609,15.0407168 14.5165624,15.2050152 14.5165624,15.4058244 L14.5165624,15.6814806 C14.5165624,15.8822898 14.6808609,16.0465882 14.88167,16.0465882 L16.031759,16.0465882 C16.2325682,16.0465882 16.3968666,16.2108866 16.3968666,16.4116958 L16.3968666,16.4646364 C16.3968666,16.6654456 16.2325682,16.829744 16.031759,16.829744 L14.8980999,16.829744 C14.6972907,16.829744 14.5329923,16.9940424 14.5329923,17.1948516 L14.5329923,17.4705078 C14.5329923,17.671317 14.6972907,17.8356154 14.8980999,17.8356154 L16.031759,17.8356154 C16.2325682,17.8356154 16.3968666,17.9999139 16.3968666,18.200723 L16.3968666,19.3599397 C16.3968666,19.5607489 16.561165,19.7250473 16.7619742,19.7250473 L17.0376304,19.7250473 C17.2384396,19.7250473 17.402738,19.5607489 17.402738,19.3599397 L17.402738,18.200723 C17.402738,17.9999139 17.5670364,17.8356154 17.7678456,17.8356154 L18.9015047,17.8356154 C19.1023139,17.8356154 19.2666123,17.671317 19.2666123,17.4705078 L19.2666123,17.1948516 C19.2666123,16.9940424 19.1023139,16.829744 18.9015047,16.829744 L17.7678456,16.829744 C17.5670364,16.829744 17.402738,16.6654456 17.402738,16.4646364 L17.402738,16.4116958 C17.402738,16.2108866 17.5670364,16.0465882 17.7678456,16.0465882 L18.916109,16.0465882 Z" id="路径" fill="url(#linearGradient-4)"></path>
                            <path d="M21.9392,17.6457595 C21.7383908,17.6457595 21.5740924,17.4814611 21.5740924,17.2806519 L21.5759179,10.4239311 C21.5759179,10.223122 21.4116195,10.0588235 21.2108103,10.0588235 L12.4737854,10.0588235 C12.2729762,10.0588235 12.1086778,10.223122 12.1086778,10.4239311 L12.1105033,17.2806519 C12.1105033,17.4814611 11.9462049,17.6457595 11.7453957,17.6457595 L9.6880144,17.6457595 C9.48720522,17.6457595 9.43974123,17.7625939 9.5821332,17.9031603 L16.6506164,24.9625158 C16.7930083,25.1049078 17.0248517,25.1049078 17.1672436,24.9625158 L24.2174714,17.8976837 C24.3598634,17.7552918 24.3105738,17.6402829 24.1097647,17.6402829 L21.9392,17.6457595 L21.9392,17.6457595 Z M17.1471627,23.5605026 C17.0047707,23.7028946 16.7729274,23.7028946 16.6305354,23.5605026 L12.0082732,18.919985 C11.8658812,18.7775931 11.9151708,18.6607586 12.11598,18.6607586 L12.7384884,18.6607586 C12.9392976,18.6607586 13.103596,18.4964602 13.103596,18.295651 L13.103596,11.4389303 C13.103596,11.2381211 13.2678944,11.0738227 13.4687036,11.0738227 L20.1921601,11.0738227 C20.3929693,11.0738227 20.5572677,11.2381211 20.5572677,11.4389303 L20.5590932,18.295651 C20.5590932,18.4964602 20.7233917,18.6607586 20.9242008,18.6607586 L21.6817991,18.6607586 C21.8826083,18.6607586 21.9300723,18.7775931 21.7895059,18.9181595 L17.1471627,23.5605026 Z" id="形状" fill="url(#linearGradient-5)" fill-rule="nonzero"></path>
                        </g>
                        <path d="M4.965766,49.3578083 L294.965766,49.3578083" id="直线-8" stroke-opacity="0.5" stroke="#FFFFFF" stroke-width="0.5" stroke-linecap="square"></path>
                    </g>
                </g>
            </g>
        </g>
    </g>
</svg>