<?xml version="1.0" standalone="no"?><!DOCTYPE svg PUBLIC "-//W3C//DTD SVG 1.1//EN" "http://www.w3.org/Graphics/SVG/1.1/DTD/svg11.dtd"><svg class="icon" width="32px" height="32.00px" viewBox="0 0 1024 1024" version="1.1" xmlns="http://www.w3.org/2000/svg"><path d="M667.2896 113.93024 266.58816 113.93024c-26.90048 0-48.81408 21.92384-48.81408 48.82432l0 698.50112c0 26.9312 21.9136 48.82432 48.81408 48.82432l490.82368 0c26.9312 0 48.82432-21.89312 48.82432-48.82432L806.23616 264.89856 667.2896 113.93024zM678.8096 186.99264l60.90752 66.18112L678.8096 253.17376 678.8096 186.99264zM765.2352 861.24544c0 4.31104-3.52256 7.8336-7.8336 7.8336L266.58816 869.07904c-4.31104 0-7.81312-3.52256-7.81312-7.8336L258.77504 162.75456c0-4.31104 3.50208-7.80288 7.81312-7.80288l371.21024 0 0 118.7328c0 11.30496 9.20576 20.46976 20.51072 20.46976L765.2352 294.15424 765.2352 861.24544zM608.64512 302.92992 302.72512 302.92992l0-81.92 306.05312 0c-0.01024 0.45056-0.13312 0.8192-0.13312 1.28L608.64512 302.92992z" fill="#1B81D7" /></svg>