<?xml version="1.0" encoding="UTF-8"?>
<svg width="137px" height="114px" viewBox="0 0 137 114" version="1.1" xmlns="http://www.w3.org/2000/svg" xmlns:xlink="http://www.w3.org/1999/xlink">
    <!-- Generator: Sketch 56.2 (81672) - https://sketch.com -->
    <title>ic_no data</title>
    <desc>Created with Sketch.</desc>
    <g id="页面1" stroke="none" stroke-width="1" fill="none" fill-rule="evenodd">
        <g id="对外门户系统供应商-修改密码备份" transform="translate(-960.000000, -313.000000)" fill-rule="nonzero">
            <g id="ic_no-data" transform="translate(960.000000, 313.000000)">
                <path d="M126.624894,107.171106 L127.147849,107.171106 C127.787017,106.938681 128.426184,106.764363 129.007246,106.531938 L129.007246,104.84686 C129.007246,104.440117 129.355882,104.09148 129.762625,104.09148 C130.169368,104.09148 130.518005,104.440117 130.518005,104.84686 L130.518005,105.950877 C134.178692,104.323905 136.270513,102.58072 136.270513,100.721324 C136.270513,97.6998045 130.982854,94.9688158 122.150721,92.7607825 L121.976402,93.9229053 C121.976402,94.1553299 121.918296,94.3296483 121.86019,94.5620728 C121.802084,94.7944974 121.743978,94.9688158 121.685872,95.1431343 C121.627766,95.3174527 121.569659,95.5498773 121.453447,95.7241957 C121.395341,95.8985141 121.279129,96.0728325 121.162916,96.3052571 C121.10481,96.4795755 120.988598,96.5957878 120.872386,96.7120001 C120.81428,96.7701062 120.81428,96.8282124 120.756173,96.8863185 C120.698067,97.0025308 120.581855,97.1187431 120.465643,97.2349554 L120.407537,97.3511676 C120.233218,97.5254861 120.117006,97.6998045 119.942687,97.8741229 C119.826475,97.9903352 119.710263,98.1065475 119.594051,98.1646536 C119.477838,98.2808659 119.361626,98.338972 119.245414,98.4551843 C119.129201,98.5713966 119.012989,98.6295027 118.838671,98.745715 C118.780565,98.8038212 118.664352,98.8619273 118.606246,98.9200335 C118.490034,98.9781396 118.373822,99.0362457 118.257609,99.152458 L117.908973,99.3267764 C117.676548,99.4429887 117.50223,99.5010949 117.269805,99.6173072 C117.153593,99.6754133 117.095487,99.6754133 116.979274,99.7335194 C116.804956,99.7916256 116.572531,99.8497317 116.398213,99.9078379 C115.99147,99.965944 115.584727,100.02405 115.177984,100.02405 L24.0094479,100.02405 C23.7189172,100.02405 23.3702804,99.965944 23.0797497,99.9078379 C22.9054313,99.8497317 22.7311128,99.8497317 22.5567944,99.7916256 C22.3243698,99.7335194 22.1500514,99.6173072 21.9176268,99.559201 L21.56899,99.3848826 C21.4527777,99.3267764 21.3365654,99.2686703 21.2203532,99.152458 C21.162247,99.0943519 21.0460347,99.0362457 20.9879286,98.9781396 C20.8717163,98.8619273 20.755504,98.8038212 20.5811856,98.6876089 C20.4649733,98.5713966 20.348761,98.5132905 20.2325487,98.3970782 C20.1163365,98.2808659 20.0001242,98.1646536 19.8839119,98.1065475 C19.7095935,97.9322291 19.5352751,97.7579106 19.4190628,97.5835922 L19.3609566,97.4673799 C19.2447443,97.3511676 19.1866382,97.2349554 19.0704259,97.1187431 C18.8380014,96.7701062 18.6055768,96.3633632 18.4312584,95.9566202 C18.3731522,95.7823018 18.2569399,95.5498773 18.1988338,95.3755588 C18.1407277,95.2593465 18.1407277,95.1431343 18.0826215,95.026922 L17.9083031,94.1553299 L17.6758785,92.2378272 L17.3272417,92.2959333 L17.3272417,92.0635088 C6.57760551,94.3877544 0.0116115257,97.4092738 0.0116115257,100.77943 C0.0116115257,103.277994 3.6141923,105.544134 9.83154943,107.519742 C21.6852023,111.354748 43.5331115,113.969524 68.5768584,113.969524 L69.7970874,113.969524 C69.7970874,113.911418 69.8551935,113.911418 69.8551935,113.853312 C93.5624992,113.7371 114.248286,111.296642 126.043832,107.694061 C126.101938,107.287318 126.334363,107.171106 126.624894,107.171106 L126.624894,107.171106 Z" id="路径" fill="#EAF4FF"></path>
                <path d="M17.3272417,18.7916644 C17.3272417,18.617346 17.3272417,18.4430276 17.4065546,18.2687091 C17.3272417,18.4430276 17.3272417,18.617346 17.3272417,18.7916644 L17.6444934,24.5441724 L17.3272417,18.7916644 L17.3272417,18.7916644 Z M19.5352751,24.5441724 L19.5352751,24.6603847 L120.81428,24.6603847 L121.046704,18.9078767 C121.046704,17.6295416 120.175112,16.5255249 118.954883,16.2349942 C118.664352,16.1187819 118.315716,16.0606758 117.967079,16.0606758 L62.5919259,16.0606758 L62.5919259,8.50687737 C62.5919259,6.93801155 61.5460153,5.6015703 60.0352556,5.25293345 C59.6285126,5.07861503 59.2217697,5.02050889 58.8150267,5.02050889 L32.26052,5.02050889 C30.4011235,5.02050889 28.8322577,6.53126856 28.8322577,8.39066509 L28.8322577,16.0025696 L21.56899,16.0025696 C20.1163365,16.0025696 18.8961075,17.2227986 18.8961075,18.7916644 L19.1285321,24.5441724 L19.5352751,24.5441724 Z" id="形状" fill="#F2F6FE"></path>
                <path d="M129.007019,27.5656918 C129.123231,27.7981163 129.239443,27.9724348 129.355655,28.2048593 C129.239443,27.9724348 129.123231,27.7400102 129.007019,27.5656918 Z M19.0120928,93.6323746 C19.1864112,94.9107097 19.8255788,96.0728325 20.8133832,96.9444246 C21.7430814,97.8160168 22.9633104,98.2808659 24.2416455,98.338972 L115.177757,98.338972 C116.456092,98.338972 117.676321,97.8160168 118.606019,96.9444246 C119.593824,96.0728325 120.232991,94.9107097 120.40731,93.6323746 L128.367851,32.6209261 C128.600276,30.6453173 128.135426,28.8440269 127.03141,27.5656918 C126.217924,26.6359935 125.055801,26.1130382 123.835572,26.1130382 L15.5838305,26.1130382 C14.3636015,26.1130382 13.2014787,26.6359935 12.3879927,27.5656918 C11.283976,28.8440269 10.8191269,30.6453173 11.0515514,32.6209261 L19.0120928,93.6323746 Z M96.5256855,62.4874824 C98.6175066,62.4874824 100.651222,62.8361196 102.568724,63.5333933 C102.743043,63.5914995 102.859255,63.6496056 103.033573,63.7077117 C103.614635,63.9401363 104.195696,64.230667 104.776758,64.5793039 C105.067288,64.7536223 105.299713,64.9279407 105.532137,65.1022591 L106.229411,65.6252144 L107.101003,66.4968065 C107.275322,66.671125 107.391534,66.9035495 107.565852,67.1359741 C108.030701,67.8913539 108.263126,68.7048399 108.263126,69.576432 C108.263126,70.3318119 108.088808,71.0290856 107.740171,71.6682531 C107.623958,71.9006777 107.507746,72.1331023 107.333428,72.3074207 C107.159109,72.5398452 107.042897,72.7141637 106.868579,72.9465882 C106.578048,73.2371189 106.287517,73.5276496 105.93888,73.8181804 L105.241607,74.3411356 C105.009182,74.5154541 104.718651,74.6897725 104.428121,74.8059848 C104.021378,75.0384093 103.556529,75.2708339 103.091679,75.4451523 C102.801149,75.5613646 102.452512,75.6775769 102.103875,75.7937892 C98.5012943,76.955912 94.6081828,76.955912 90.9474959,75.7937892 C90.4826468,75.6194707 89.9596915,75.4451523 89.4948424,75.2708339 C89.2043117,75.1546216 88.913781,74.9803032 88.6232502,74.8640909 C88.100295,74.5735602 87.5773397,74.2249233 87.1124906,73.8762865 C86.880066,73.7019681 86.7057476,73.5276496 86.473323,73.2952251 C86.1827923,73.0046944 85.9503677,72.7141637 85.7179432,72.3655268 C85.659837,72.2493145 85.6017309,72.1331023 85.4855186,72.01689 C85.1368818,71.4939347 84.9625633,70.9128733 84.8463511,70.3318119 C84.7882449,70.0993873 84.7882449,69.8669627 84.7882449,69.6345382 C84.7882449,68.762946 85.0206695,67.9494601 85.4855186,67.1940802 C85.6017309,66.9616557 85.7760493,66.7873372 85.9503677,66.5549127 C86.1827923,66.264382 86.473323,65.9157451 86.8219599,65.6833206 C87.0543844,65.5090021 87.2287029,65.3346837 87.5192336,65.1603653 C87.8097643,64.9860469 88.0421888,64.8117284 88.2746134,64.63741 C88.8556748,64.2887732 89.3786301,63.9982424 90.0177976,63.7658179 C90.1921161,63.7077117 90.3083283,63.6496056 90.4826468,63.5914995 C90.9474959,63.417181 91.412345,63.3009688 91.8771942,63.1847565 L91.8771932,63.1847568 C93.3832998,62.7220571 94.9501002,62.4870371 96.5256732,62.4874824 L96.5256855,62.4874824 Z M82.9288484,42.3827578 C83.6261221,42.440864 84.2071835,42.9057131 84.3815019,43.6029868 C84.3815019,46.2177632 85.9503677,47.786629 87.9259766,48.4839027 C88.6232502,48.6582211 89.3205239,48.7744334 90.0177976,48.7744334 L94.3757583,48.7744334 C95.0149258,48.600115 95.6540934,48.9487518 95.8284118,49.5879194 C96.0027302,50.2270869 95.6540934,50.8662545 95.0149258,51.0405729 C94.9568197,51.0405729 94.8406074,51.098679 94.7825012,51.098679 L90.4245406,51.098679 C89.3205239,51.098679 88.2746134,50.9243606 87.2287029,50.5757238 C83.9747589,49.5879194 81.7667256,46.9150369 81.7667256,43.4867745 C81.8248317,42.9057131 82.347787,42.3827578 82.9288484,42.3827578 Z M84.8463511,55.8052765 C87.3449151,55.8052765 89.3786301,57.8389915 89.3205239,60.3375555 C89.2624178,62.8361196 87.286809,64.8698346 84.7882449,64.8117284 C82.2896808,64.8117284 80.314072,62.7780135 80.314072,60.2794494 C80.314072,57.8389915 82.347787,55.8052765 84.8463511,55.8052765 C84.7882449,55.8052765 84.8463511,55.8052765 84.8463511,55.8052765 Z M57.8851014,60.4537678 C58.0594198,63.1847565 56.0257049,65.6252144 53.2366101,65.7995328 C50.5056215,65.9738513 48.0651635,63.9401363 47.8908451,61.1510415 C47.7165267,58.4200529 49.7502416,55.9795949 52.5393364,55.8052765 C53.2366101,55.7471704 53.9338838,55.8633826 54.5730514,56.0958072 C56.490554,56.6187625 57.8851014,58.4200529 57.8851014,60.4537678 L57.8851014,60.4537678 Z M43.4747783,48.7744334 L47.832739,48.7744334 C50.738046,48.7744334 53.8757777,47.1474614 53.8757777,43.4867745 C54.0500961,42.7895008 54.7473698,42.3827578 55.4446435,42.5570763 C55.9675988,42.6732885 56.3743417,43.1381377 56.4324479,43.6610929 C56.4324479,47.9609474 52.9460794,51.098679 48.1813758,51.098679 L43.8234152,51.098679 C43.1842476,51.2729975 42.5450801,50.9243606 42.3707617,50.2851931 C42.1964432,49.6460255 42.5450801,49.006858 43.1842476,48.8325395 C43.3004599,48.7744334 43.4166722,48.7744334 43.4747783,48.7744334 Z M40.8018958,62.4874828 C42.7193985,62.4874828 44.6369012,62.7780135 46.4962977,63.3590749 C50.2731969,64.5211977 52.8879733,66.9035495 52.8879733,69.6345382 C52.8879733,73.5276496 47.6584205,76.7234874 41.2086388,76.7234874 C39.2911362,76.7234874 37.3736335,76.4329567 35.514237,75.8518953 C31.7373378,74.6897725 29.1225614,72.3074207 29.1225614,69.576432 C29.1225614,65.6833206 34.3521141,62.4874828 40.8018958,62.4874828 L40.8018958,62.4874828 Z M126.857091,56.5025502 L129.936717,32.7952445 C129.936717,32.6790322 129.936717,32.5628199 129.994823,32.5047138 C129.994823,32.6209261 129.994823,32.7371384 129.936717,32.7952445 L126.857091,56.5025502 Z M17.2689086,92.1216149 L9.54079175,32.7952445 C9.54079175,32.5628199 9.4826856,32.3885015 9.4826856,32.1560769 C9.4826856,32.3885015 9.54079175,32.5628199 9.54079175,32.7952445 L17.2689086,91.9472965 L17.2689086,92.1216149 Z M121.770472,95.026922 C121.691159,95.2012404 121.611846,95.433665 121.45322,95.6079834 C121.611846,95.433665 121.691159,95.2593465 121.770472,95.026922 Z" id="形状" fill="#FFFFFF"></path>
                <path d="M17.2691355,92.1216149 L17.6177724,92.0635088 L9.88965557,32.9114568 C9.88965557,32.6790322 9.83154943,32.5047138 9.83154943,32.2722892 C9.83154943,32.5047138 9.88965557,32.6790322 9.88965557,32.9114568 L17.8501969,93.9229053 L18.0245154,94.7944974 C18.0826215,94.9107097 18.0826215,95.026922 18.1407277,95.1431343 C18.1988338,95.3174527 18.2569399,95.5498773 18.3731522,95.7241957 C18.5474706,96.1309387 18.7798952,96.5376817 19.0123198,96.8863185 C19.0704259,97.0025308 19.1866382,97.1187431 19.3028505,97.2349554 L19.3609566,97.3511676 C19.5352751,97.5254861 19.6514873,97.6998045 19.8258058,97.8741229 C19.942018,97.9903352 20.0582303,98.1065475 20.1744426,98.1646536 C20.2906549,98.2808659 20.4068672,98.338972 20.5230795,98.4551843 C20.6392917,98.5713966 20.755504,98.6295027 20.9298224,98.745715 C20.9879286,98.8038212 21.1041409,98.8619273 21.162247,98.9200335 C21.2784593,98.9781396 21.3946716,99.0362457 21.5108839,99.152458 L21.8595207,99.3267764 C22.0919453,99.4429887 22.2662637,99.5010949 22.4986883,99.559201 C22.6730067,99.6173072 22.8473251,99.6754133 23.0216435,99.6754133 C23.3121742,99.7335194 23.602705,99.7916256 23.9513418,99.7916256 L115.177984,99.7916256 C115.584727,99.7916256 115.99147,99.7335194 116.398213,99.6754133 C116.572531,99.6173072 116.804956,99.559201 116.979274,99.5010949 C117.095487,99.5010949 117.153593,99.4429887 117.269805,99.3848826 C117.50223,99.3267764 117.734654,99.2105642 117.908973,99.0943519 L118.257609,98.9200335 C118.373822,98.8619273 118.490034,98.8038212 118.606246,98.6876089 C118.664352,98.6295027 118.780565,98.5713966 118.838671,98.5132905 C118.954883,98.3970782 119.071095,98.338972 119.245414,98.2227598 C119.361626,98.1065475 119.477838,98.0484413 119.594051,97.9322291 C119.710263,97.8160168 119.826475,97.6998045 119.942687,97.6416983 C120.117006,97.4673799 120.291324,97.2930615 120.407537,97.1187431 L120.465643,97.0025308 C120.581855,96.8863185 120.639961,96.7701062 120.756173,96.6538939 C120.81428,96.5957878 120.81428,96.5376817 120.872386,96.4795755 C120.988598,96.3633632 121.046704,96.1890448 121.162916,96.0728325 C121.279129,95.8985141 121.337235,95.7241957 121.453447,95.4917711 C121.511553,95.3174527 121.627766,95.0850281 121.685872,94.9107097 C121.743978,94.7363913 121.802084,94.5039667 121.86019,94.3296483 C121.918296,94.1553299 121.918296,93.9229053 121.976402,93.6904807 L122.150721,92.5283579 L126.857318,56.3863379 L129.936944,32.6790322 C129.936944,32.5628199 129.936944,32.4466076 129.99505,32.3885015 L129.99505,31.0520603 C129.99505,30.6453173 129.936944,30.2966804 129.878838,29.8899374 C129.878838,29.7737251 129.820732,29.6575129 129.820732,29.5413006 C129.820732,29.4250883 129.762625,29.3669822 129.762625,29.2507699 C129.704519,28.9602392 129.588307,28.7278146 129.472095,28.4372839 C129.413989,28.3210716 129.355882,28.2048593 129.355882,28.088647 C129.23967,27.8562225 129.123458,27.681904 129.007246,27.4494795 C128.891033,27.2751611 128.774821,27.0427365 128.600503,26.8684181 C128.48429,26.7522058 128.368078,26.5778874 128.251866,26.4616751 L127.903229,26.1130382 C127.43838,25.6481891 126.857318,25.2414461 126.218151,24.9509154 C125.92762,24.8347031 125.578983,24.7184908 125.230346,24.6022786 C124.997922,24.5441724 124.765497,24.4860663 124.533073,24.4860663 C124.300648,24.4860663 124.068224,24.4279601 123.835799,24.4279601 L121.976402,24.4279601 L122.208827,18.6754521 C122.208827,17.4552232 121.685872,16.2931003 120.81428,15.4796143 C120.639961,15.3634021 120.523749,15.1890836 120.34943,15.0728714 C120.291324,15.0147652 120.233218,15.0147652 120.175112,14.9566591 L119.826475,14.7823406 C119.768369,14.7242345 119.710263,14.7242345 119.652157,14.7242345 C119.129201,14.4918099 118.54814,14.3755977 118.025185,14.3755977 L63.8121548,14.3755977 L63.8121548,8.39066509 C63.8121548,5.65967644 61.5460153,3.45164307 58.8150267,3.45164307 L32.26052,3.45164307 C29.5295314,3.45164307 27.321498,5.65967644 27.2633919,8.39066509 L27.2633919,14.4918099 L21.56899,14.4918099 C21.3365654,14.4918099 21.162247,14.4918099 20.9298224,14.5499161 C20.8717163,14.5499161 20.8136102,14.5499161 20.6973979,14.6080222 C20.5811856,14.6080222 20.4068672,14.6661284 20.2906549,14.7242345 C19.942018,14.8404468 19.6514873,14.9566591 19.3609566,15.1309775 C18.8961075,15.4215082 18.4893645,15.8282512 18.1407277,16.2349942 L17.7920908,16.7579495 C17.7339847,16.8160556 17.7339847,16.9322679 17.6758785,16.990374 C17.6177724,17.1646924 17.5596662,17.3390109 17.5015601,17.4552232 C17.5015601,17.5133293 17.443454,17.6295416 17.443454,17.6876477 C17.443454,17.9200723 17.3853478,18.0943907 17.3853478,18.2687091 C17.3853478,18.4430276 17.3272417,18.617346 17.3272417,18.7916644 L17.5596662,24.5441724 L15.5840574,24.5441724 C15.3516329,24.5441724 15.1192083,24.5441724 14.8867837,24.6022786 C14.6543592,24.6022786 14.4219346,24.6603847 14.18951,24.7184908 C13.3179179,24.9509154 12.5044319,25.3576584 11.8071582,25.9968259 L11.5747337,26.2292505 C11.2260968,26.5778874 10.9355661,26.9265242 10.7031416,27.2751611 C10.4126108,27.681904 10.2382924,28.088647 10.063974,28.5534962 L9.71533715,29.5994067 C9.71533715,29.715619 9.65723101,29.8318313 9.65723101,29.9480436 C9.65723101,30.0642558 9.59912486,30.2385743 9.59912486,30.3547866 C9.54101872,30.7615295 9.54101872,31.1101664 9.54101872,31.5169094 L9.54101872,32.1560769 C9.54101872,32.3885015 9.59912486,32.5628199 9.59912486,32.7952445 L17.2691355,92.1216149 L17.2691355,92.1216149 Z M21.56899,16.0025696 L28.8322577,16.0025696 L28.8322577,8.39066509 C28.8322577,6.53126856 30.4011235,5.02050889 32.26052,5.02050889 L58.8150267,5.02050889 C59.2217697,5.02050889 59.6866188,5.07861503 60.0352556,5.25293345 C61.5460153,5.6015703 62.5919259,6.9961177 62.5919259,8.50687737 L62.5919259,16.0025696 L117.967079,16.0025696 C118.315716,16.0025696 118.606246,16.0606758 118.954883,16.176888 C120.175112,16.4674188 121.046704,17.6295416 121.046704,18.8497705 L120.81428,24.6022786 L19.5352751,24.6022786 L19.5352751,24.4860663 L19.1285321,24.4860663 L18.8961075,18.7335583 C18.8961075,17.2809047 20.1163365,16.0025696 21.56899,16.0025696 L21.56899,16.0025696 Z M17.8132976,18.3849214 C17.8132976,18.5592398 17.7339847,18.7335583 17.7339847,18.9078767 L18.0512364,24.6603847 L17.7339847,18.9078767 C17.7339847,18.7335583 17.7339847,18.5592398 17.8132976,18.3849214 L17.8132976,18.3849214 Z M12.3882197,27.5656918 C13.2017056,26.6359935 14.3638285,26.1130382 15.5840574,26.1130382 L123.835799,26.1130382 C125.056028,26.1130382 126.218151,26.6359935 127.031637,27.5656918 C128.135653,28.8440269 128.600503,30.6453173 128.368078,32.6209261 L120.407537,93.6323746 C120.233218,94.9107097 119.594051,96.0728325 118.606246,96.9444246 C117.676548,97.8160168 116.456319,98.2808659 115.177984,98.338972 L24.2999786,98.338972 C23.0216435,98.338972 21.8014146,97.8160168 20.8717163,96.9444246 C19.8839119,96.0728325 19.2447443,94.9107097 19.0704259,93.6323746 L11.1098845,32.6209261 C10.8193538,30.6453173 11.284203,28.7859207 12.3882197,27.5656918 Z" id="形状" fill="#9CCDFF"></path>
                <path d="M43.358793,50.9243606 C43.5331115,51.0405729 43.7074299,51.0405729 43.8817483,51.0405729 L48.1816028,51.0405729 C52.9463064,51.0405729 56.4326749,47.9028413 56.4326749,43.6029868 C56.3745687,42.9057131 55.7935073,42.3246517 55.0962336,42.3827578 C54.5151722,42.440864 53.9922169,42.847607 53.8760046,43.4867745 C53.8760046,47.1474614 50.738273,48.7744334 47.8329659,48.7744334 L43.4750053,48.7744334 C42.8939439,48.7744334 42.3709886,49.2973887 42.4290948,49.8784501 C42.4290948,50.4014054 42.7777316,50.8662545 43.358793,50.9243606 Z M87.287036,50.5757238 C88.3329465,50.9243606 89.3788571,51.098679 90.4828738,51.098679 L94.8408344,51.098679 C95.4800019,50.8662545 95.7705326,50.1689808 95.5381081,49.5879194 C95.3637896,49.1230702 94.9570466,48.8325395 94.4340914,48.8325395 L90.0761308,48.8325395 C89.3788571,48.8325395 88.6815834,48.7163273 87.9843097,48.5420088 C86.0087009,47.8447351 84.439835,46.2758693 84.439835,43.6610929 C84.3817289,42.9638192 83.8006675,42.3827578 83.1033938,42.440864 C82.5223324,42.4989701 81.9993771,42.9057131 81.8831648,43.5448807 C81.8250587,46.9150369 84.0330921,49.5879194 87.287036,50.5757238 L87.287036,50.5757238 Z M52.9463064,55.8052765 C50.2153177,55.7471704 47.8910721,57.9552037 47.8910721,60.7442985 C47.8329659,63.4752872 50.0409993,65.7995328 52.8300941,65.7995328 C55.5610827,65.857639 57.8853284,63.6496056 57.8853284,60.8605108 C57.9434345,58.7105836 56.5488871,56.7930809 54.5732783,56.0377011 C54.0503231,55.9214888 53.4692617,55.8052765 52.9463064,55.8052765 L52.9463064,55.8052765 Z M83.6263491,64.6955161 C86.0087009,65.3346837 88.5072649,63.9401363 89.1464325,61.4996784 C89.7856001,59.1173266 88.3910527,56.6187625 85.9505947,55.9795949 C83.5682429,55.3404274 81.0696788,56.7349748 80.4305113,59.1754327 C80.314299,59.5821757 80.2561929,59.9308125 80.2561929,60.3375555 C80.314299,62.3712705 81.7088464,64.1725609 83.6263491,64.6955161 L83.6263491,64.6955161 Z M59.7447249,80.5747367 C59.6866188,80.5166305 59.6285126,80.4585244 59.6285126,80.4004183 C59.2217697,79.877463 59.3379819,79.1801893 59.8028311,78.7734463 C60.3257863,78.3667033 61.02306,78.4829156 61.429803,78.9477647 C62.7081381,79.8193568 64.1026855,80.5166305 65.5553391,80.9814797 C65.7877636,81.0395858 66.0782943,81.1557981 66.3107189,81.2139042 C70.3781488,82.2017086 74.0969419,81.4463288 77.4670981,78.8315524 C77.9319472,78.5410217 78.4549025,78.5410217 78.9197516,78.8896586 C79.500813,79.2964016 79.6170253,80.1098875 79.2102823,80.690949 C76.0144445,83.189513 72.8186068,83.9448929 70.029512,83.9448929 C68.6930707,83.9448929 67.4147356,83.7705745 66.1364005,83.4219376 C65.7296575,83.3057253 65.2648084,83.189513 64.9161715,83.0733008 C63.056775,82.5503455 61.3135907,81.6787534 59.7447249,80.5747367 L59.7447249,80.5747367 Z" id="形状" fill="#9CCDFF"></path>
                <path d="M35.5144639,75.8518953 C37.3738605,76.4329567 39.2913631,76.7815936 41.2088658,76.7234874 C47.6586475,76.7234874 52.8882002,73.5857558 52.8882002,69.6345382 C52.8882002,66.9035495 50.2734239,64.5211977 46.4965247,63.3590749 C44.6371282,62.7780135 42.7196255,62.4293766 40.8021228,62.4874828 C34.3523411,62.4874828 29.1227884,65.6252144 29.1227884,69.576432 C29.1227884,72.3074207 31.7375648,74.6897725 35.5144639,75.8518953 L35.5144639,75.8518953 Z M44.579022,69.983175 L42.3128825,72.2493145 C41.8480334,72.6560575 41.1507597,72.5979514 40.7440167,72.1912084 C40.3953798,71.7844654 40.3953798,71.1452978 40.7440167,70.7385549 L43.0101562,68.4724153 C43.4750053,68.0656724 44.172279,68.1237785 44.579022,68.5305215 C44.9276589,68.9372645 44.9276589,69.576432 44.579022,69.983175 Z M36.1536315,72.2493145 C35.7468885,71.8425715 35.7468885,71.1452978 36.1536315,70.6804487 L38.419771,68.4143092 C38.8846202,68.0075662 39.5818938,68.0656724 39.9886368,68.4724153 C40.3372737,68.8791583 40.3372737,69.5183259 39.9886368,69.9250689 L37.7224973,72.1912084 C37.2576482,72.6560575 36.5603745,72.6560575 36.1536315,72.2493145 L36.1536315,72.2493145 Z M90.4828738,63.5333933 C90.3085553,63.5914995 90.192343,63.6496056 90.0180246,63.7077117 C89.4369632,63.9401363 88.8559018,64.230667 88.2748404,64.5793039 C87.9843097,64.7536223 87.7518851,64.9279407 87.5194605,65.1022591 L86.8221868,65.6252144 L85.9505947,66.4968065 C85.7762763,66.671125 85.660064,66.9035495 85.4857456,67.1359741 C85.0208965,67.8913539 84.7884719,68.7048399 84.7884719,69.576432 C84.7884719,69.8088566 84.7884719,70.0412812 84.846578,70.2737057 C84.9627903,70.8547671 85.1952149,71.4358286 85.4857456,71.9587838 C85.5438517,72.0749961 85.6019579,72.1912084 85.7181702,72.3074207 C85.9505947,72.6560575 86.1830193,72.9465882 86.47355,73.2371189 C86.6478684,73.4114374 86.880293,73.6438619 87.1127175,73.8181804 C87.5775667,74.2249233 88.100522,74.5154541 88.6234772,74.8059848 C88.9140079,74.9803032 89.2045386,75.0965155 89.4950693,75.2127277 C89.9599185,75.4451523 90.4247676,75.6194707 90.9477229,75.735683 C94.5503037,76.8978059 98.4434151,76.8978059 102.104102,75.735683 C102.452739,75.6194707 102.74327,75.5032585 103.091906,75.3870462 C103.556756,75.2127277 103.963499,74.9803032 104.428348,74.7478786 C104.718878,74.5735602 104.951303,74.4573479 105.241834,74.2830295 L105.939107,73.7600742 C106.287744,73.4695435 106.578275,73.2371189 106.868806,72.8884821 C107.043124,72.7141637 107.217442,72.4817391 107.333655,72.2493145 C107.507973,72.01689 107.624185,71.8425715 107.740398,71.610147 C108.089035,70.9709794 108.263353,70.2155996 108.263353,69.5183259 C108.263353,68.6467338 108.030928,67.8332478 107.566079,67.0778679 C107.449867,66.8454434 107.275549,66.671125 107.10123,66.4387004 C106.868806,66.1481697 106.578275,65.7995328 106.229638,65.5671083 C105.997214,65.3927898 105.822895,65.2184714 105.532364,65.044153 C105.29994,64.8698346 105.009409,64.6955161 104.776985,64.5211977 C104.254029,64.1725609 103.672968,63.8820302 103.0338,63.6496056 C102.859482,63.5914995 102.74327,63.5333933 102.568951,63.4752872 C100.593342,62.7780135 98.5596274,62.4293766 96.5259125,62.4293766 C94.9570466,62.4293766 93.3881808,62.6036951 91.819315,63.010438 C91.3544659,63.2428626 90.8896167,63.3590749 90.4828738,63.5333933 L90.4828738,63.5333933 Z M97.7461414,68.2980969 C97.978566,68.0656724 98.2109906,67.9494601 98.5015213,67.9494601 C98.792052,67.9494601 99.0825827,68.0656724 99.2569011,68.2980969 L101.523041,70.5642364 C101.929784,70.9709794 101.929784,71.6682531 101.523041,72.1331023 C101.290616,72.3655268 101.058191,72.423633 100.767661,72.4817391 C100.47713,72.4817391 100.186599,72.3655268 100.012281,72.1331023 L97.7461414,69.8669627 C97.3393984,69.4602197 97.3393984,68.762946 97.7461414,68.2980969 Z M93.1557563,68.2980969 C93.3881808,68.0656724 93.6206054,67.9494601 93.9111361,67.9494601 C94.2016668,67.9494601 94.4921975,68.0656724 94.6665159,68.2980969 L96.9326555,70.5642364 C97.3393984,70.9709794 97.3393984,71.6682531 96.9326555,72.1331023 C96.7002309,72.3655268 96.4678063,72.4817391 96.1772756,72.4817391 C95.8867449,72.4817391 95.5962142,72.3655268 95.4218958,72.1331023 L93.1557563,69.8669627 C92.7490133,69.4602197 92.7490133,68.762946 93.1557563,68.2980969 Z" id="形状" fill="#EAF4FF"></path>
                <path d="M97.4556107,69.1115829 C97.4556107,69.4021136 97.571823,69.6926443 97.8042476,69.8669627 L100.070387,72.1331023 C100.244706,72.3074207 100.535236,72.423633 100.825767,72.4817391 C101.406828,72.4817391 101.929784,72.01689 101.929784,71.3777224 C101.929784,71.0871917 101.813571,70.796661 101.581147,70.6223426 L99.3150073,68.3562031 C99.0825827,68.1237785 98.8501581,68.0075662 98.5596274,68.0075662 C97.978566,68.0075662 97.4556107,68.4724153 97.4556107,69.1115829 Z M98.0947783,68.6467338 C98.3272028,68.4143092 98.7339458,68.4143092 98.9663704,68.6467338 L101.23251,70.9128733 C101.464934,71.1452978 101.464934,71.5520408 101.23251,71.7844654 C101.000085,72.01689 100.593342,72.01689 100.360918,71.7844654 L98.0947783,69.5183259 C97.8623537,69.2859013 97.8623537,68.8791583 98.0947783,68.6467338 Z M92.8652256,69.1115829 C92.8652256,69.4021136 92.9814378,69.6926443 93.2138624,69.8669627 L95.4800019,72.1331023 C95.7124265,72.3655268 95.944851,72.4817391 96.2353818,72.4817391 C96.8164432,72.4817391 97.3393984,72.01689 97.3393984,71.3777224 C97.3393984,71.0871917 97.2231862,70.796661 96.9907616,70.6223426 L94.7246221,68.3562031 C94.4921975,68.1237785 94.2597729,68.0075662 93.9692422,68.0075662 C93.3300747,68.0075662 92.8652256,68.4724153 92.8652256,69.1115829 Z M93.5043931,68.6467338 C93.6206054,68.5305215 93.7949238,68.4724153 93.9692422,68.4724153 C94.1435607,68.4724153 94.3178791,68.5305215 94.4340914,68.6467338 L96.7002309,70.9128733 C96.9326555,71.1452978 96.9326555,71.5520408 96.7002309,71.7844654 C96.4678063,72.01689 96.0610633,72.01689 95.8286388,71.7844654 L93.5624992,69.5183259 C93.2719685,69.2859013 93.2719685,68.8791583 93.5043931,68.6467338 L93.5043931,68.6467338 Z" id="形状" fill="#FFFFFF"></path>
                <path d="M95.7705326,71.7844654 C96.0029572,72.01689 96.4097002,72.01689 96.6421247,71.7844654 C96.8745493,71.5520408 96.8745493,71.1452978 96.6421247,70.9128733 L94.3759852,68.6467338 C94.2597729,68.5305215 94.0854545,68.4724153 93.9111361,68.4724153 C93.5624992,68.4724153 93.2719685,68.762946 93.2719685,69.1115829 C93.2719685,69.2859013 93.3300747,69.4602197 93.446287,69.576432 L95.7705326,71.7844654 L95.7705326,71.7844654 Z M100.360918,71.7844654 C100.593342,72.01689 101.000085,72.01689 101.23251,71.7844654 C101.464934,71.5520408 101.464934,71.1452978 101.23251,70.9128733 L98.9663704,68.6467338 C98.7339458,68.4143092 98.3272028,68.4143092 98.0947783,68.6467338 C97.8623537,68.8791583 97.8623537,69.2859013 98.0947783,69.5183259 L100.360918,71.7844654 Z" id="形状" fill="#9CCDFF"></path>
                <path d="M18.0512364,24.6603847 L17.7339847,18.9078767 C17.7339847,18.7335583 17.7339847,18.5592398 17.8132976,18.3849214 C17.8132976,18.5592398 17.7339847,18.7335583 17.7339847,18.9078767 L18.0512364,24.6603847 L18.0512364,24.6603847 Z" id="路径" fill="#EDF3FF"></path>
                <path d="M129.355428,27.681904 C129.471641,27.9143286 129.587853,28.088647 129.704065,28.3210716 C129.587853,28.088647 129.471641,27.9143286 129.355428,27.681904 Z M130.343233,32.9114568 C130.343233,32.7952445 130.343233,32.6790322 130.401339,32.6209261 C130.343233,32.7371384 130.343233,32.7952445 130.343233,32.9114568 L127.496032,54.5850475 L130.343233,32.9114568 Z M9.88874766,32.9114568 C9.88874766,32.6790322 9.83064152,32.5047138 9.83064152,32.2722892 C9.88874766,32.5047138 9.88874766,32.6790322 9.88874766,32.9114568 L17.6168645,92.0635088 L17.849289,93.9810114 L18.0236075,94.8526036 L17.849289,93.9810114 L9.88874766,32.9114568 Z" id="形状" fill="#FFFFFF"></path>
                <path d="M43.358793,68.762946 L41.0926535,71.0290856 C40.860229,71.2615101 40.860229,71.6682531 41.0926535,71.9006777 C41.3250781,72.1331023 41.7318211,72.1331023 41.9642456,71.9006777 L44.2303852,69.6345382 C44.4628097,69.4021136 44.4628097,68.9953706 44.2303852,68.762946 C43.9979606,68.5305215 43.5912176,68.5305215 43.358793,68.762946 Z" id="路径" fill="#9CCDFF"></path>
                <path d="M43.8236422,68.1237785 C43.5331115,68.1237785 43.2425808,68.2399908 43.0682623,68.4724153 L40.8021228,70.7385549 C40.3953798,71.203404 40.453486,71.9006777 40.860229,72.3074207 C41.2669719,72.6560575 41.9061395,72.6560575 42.3128825,72.3074207 L44.579022,70.0412812 C44.985765,69.6345382 44.985765,68.9372645 44.579022,68.4724153 C44.3465974,68.2399908 44.1141729,68.1237785 43.8236422,68.1237785 Z M44.2303852,68.762946 C44.4628097,68.9953706 44.4628097,69.4021136 44.2303852,69.6345382 L41.9642456,71.9006777 C41.7318211,72.1331023 41.3250781,72.1331023 41.0926535,71.9006777 C40.860229,71.6682531 40.860229,71.2615101 41.0926535,71.0290856 L43.358793,68.762946 C43.5912176,68.5305215 43.9979606,68.5305215 44.2303852,68.762946 Z" id="形状" fill="#FFFFFF"></path>
                <path d="M38.7103017,68.762946 L36.4441622,71.0290856 C36.2117376,71.2615101 36.2117376,71.6682531 36.4441622,71.9006777 C36.6765868,72.1331023 37.0833298,72.1331023 37.3157543,71.9006777 L39.5818938,69.6345382 C39.8143184,69.4021136 39.8143184,68.9953706 39.5818938,68.762946 C39.4075754,68.5305215 39.0008324,68.5305215 38.7103017,68.762946 Z" id="路径" fill="#9CCDFF"></path>
                <path d="M37.7224973,72.2493145 L39.9886368,69.983175 C40.3953798,69.5183259 40.3372737,68.8210522 39.9305307,68.4143092 C39.5237877,68.0656724 38.8846202,68.0656724 38.4778772,68.4143092 L36.2117376,70.6804487 C35.8049947,71.1452978 35.8631008,71.8425715 36.2698438,72.2493145 C36.6765868,72.5979514 37.3157543,72.5979514 37.7224973,72.2493145 Z M39.64,68.762946 C39.8724246,68.9953706 39.8724246,69.4021136 39.64,69.6345382 L37.3738605,71.9006777 C37.1414359,72.1331023 36.7346929,72.1331023 36.5022684,71.9006777 C36.2698438,71.6682531 36.2698438,71.2615101 36.5022684,71.0290856 L38.7684079,68.762946 C39.0008324,68.5305215 39.3494693,68.5305215 39.64,68.762946 Z" id="形状" fill="#FFFFFF"></path>
                <path d="M5.06684583,8.27445281 L10.5288231,8.27445281 L10.5288231,13.7364301 C10.5288231,14.1431731 10.87746,14.4918099 11.284203,14.4918099 C11.690946,14.4918099 12.0395828,14.1431731 12.0395828,13.7364301 L12.0395828,8.27445281 L17.5015601,8.27445281 C17.9083031,8.27445281 18.2569399,7.92581596 18.2569399,7.51907297 C18.2569399,7.11232998 17.9083031,6.76369313 17.5015601,6.76369313 L12.0395828,6.76369313 L12.0395828,1.24360969 C12.0395828,0.836866702 11.690946,0.488229854 11.284203,0.488229854 C10.87746,0.488229854 10.5288231,0.836866702 10.5288231,1.24360969 L10.5288231,6.70558699 L5.06684583,6.70558699 C4.66010284,6.70558699 4.31146599,7.05422384 4.31146599,7.46096683 C4.25335985,7.92581596 4.6019967,8.27445281 5.06684583,8.27445281 Z" id="路径" fill="#9CCDFF"></path>
                <path d="M130.517551,105.834664 L130.517551,104.730648 C130.517551,104.323905 130.168914,103.975268 129.762171,103.975268 C129.355428,103.975268 129.006792,104.323905 129.006792,104.730648 L129.006792,107.112999 L126.62444,107.112999 C126.217697,107.112999 125.86906,107.461636 125.86906,107.868379 C125.86906,108.275122 126.217697,108.623759 126.62444,108.623759 L129.006792,108.623759 L129.006792,111.006111 C129.006792,111.412854 129.355428,111.761491 129.762171,111.761491 C130.168914,111.761491 130.517551,111.412854 130.517551,111.006111 L130.517551,108.623759 L132.899903,108.623759 C133.306646,108.623759 133.655283,108.275122 133.655283,107.868379 C133.655283,107.461636 133.306646,107.112999 132.899903,107.112999 L130.517551,107.112999 L130.517551,105.834664 Z" id="路径" fill="#9CCDFF"></path>
            </g>
        </g>
    </g>
</svg>