<?xml version="1.0" encoding="UTF-8"?>
<svg width="17px" height="16px" viewBox="0 0 17 16" version="1.1" xmlns="http://www.w3.org/2000/svg" xmlns:xlink="http://www.w3.org/1999/xlink">
    <!-- Generator: Sketch 52.3 (67297) - http://www.bohemiancoding.com/sketch -->
    <title>ic_view</title>
    <desc>Created with Sketch.</desc>
    <g id="供应链金融平台V1.0_0329" stroke="none" stroke-width="1" fill="none" fill-rule="evenodd">
        <g id="画板-copy-2" transform="translate(-2.000000, -2.000000)" fill="#1F86F8" fill-rule="nonzero">
            <g id="ic_view" transform="translate(2.000000, 1.000000)">
                <path d="M13.6483261,13.30142 L15.9016963,15.5531061 C16.1146921,15.7661018 16.1978764,16.0765499 16.1199145,16.3675075 C16.0419527,16.658465 15.8146889,16.8857288 15.5237314,16.9636906 C15.2327738,17.0416525 14.9223257,16.9584682 14.70933,16.7454724 L12.4576439,14.4921022 C9.31551807,17.002368 4.75975116,16.6211066 2.07856614,13.6235015 C-0.602618878,10.6258965 -0.475400379,6.05597438 2.36839895,3.21217505 C5.21219827,0.36837573 9.78212036,0.241157231 12.7797254,2.92234225 C15.7773305,5.60352727 16.1585919,10.1592942 13.6483261,13.30142 Z M7.72691365,14.6471799 C11.0828665,14.6471799 13.8034038,11.9266426 13.8034038,8.57068976 C13.8034038,5.21473694 11.0828665,2.49419965 7.72691365,2.49419965 C4.37096083,2.49419965 1.65042354,5.21473694 1.65042354,8.57068976 C1.65042354,11.9266426 4.37096083,14.6471799 7.72691365,14.6471799 Z" id="形状"></path>
            </g>
        </g>
    </g>
</svg>