<?xml version="1.0" encoding="UTF-8"?>
<svg width="100px" height="100px" viewBox="0 0 100 100" version="1.1" xmlns="http://www.w3.org/2000/svg" xmlns:xlink="http://www.w3.org/1999/xlink">
    <!-- Generator: Sketch 56.2 (81672) - https://sketch.com -->
    <title>ic_face</title>
    <desc>Created with Sketch.</desc>
    <defs>
        <polygon id="path-1" points="0 0 60.2564103 0 60.2564103 24.3589744 0 24.3589744"></polygon>
    </defs>
    <g id="页面1" stroke="none" stroke-width="1" fill="none" fill-rule="evenodd">
        <g id="对外门户系统供应商-业务查询-" transform="translate(-417.000000, -133.000000)">
            <g id="左侧菜单栏" transform="translate(366.000000, 114.804688)">
                <g id="ic_face" transform="translate(51.000000, 18.195312)">
                    <polygon id="Fill-1" fill="#DCF4FF" points="19.2307692 80.7692308 80.7692308 80.7692308 80.7692308 19.2307692 19.2307692 19.2307692"></polygon>
                    <circle id="椭圆形" fill="#E7F4FF" cx="50" cy="50" r="50"></circle>
                    <g id="Group-17" transform="translate(20.500000, 22.000000)">
                        <g id="Group-4" transform="translate(0.000000, 32.051282)">
                            <mask id="mask-2" fill="white">
                                <use xlink:href="#path-1"></use>
                            </mask>
                            <g id="Clip-3"></g>
                            <path d="M23.3939477,1.82638464 L23.4527306,5.05414617 L2.97389577,13.8845436 C2.97389577,13.8845436 2.08375506,14.2492462 1.78704148,15.2241795 C1.78704148,15.2241795 -0.113604887,20.5827231 0.00536046056,24.2972334 L60.2564103,24.3589744 C60.2564103,24.3589744 59.7819485,18.9989949 58.3571635,15.5888821 C58.3571635,15.5888821 57.9414846,14.2492462 55.7455242,13.2140077 L36.1568301,4.87179487 L35.9790819,0 L23.3939477,1.82638464 Z" id="Fill-2" fill="#4792D8" mask="url(#mask-2)"></path>
                        </g>
                        <polygon id="Fill-5" fill="#FEFEFE" points="24.0555983 34.3654345 24.1141904 39.1143279 29.7948355 55.1282051 35.5940599 38.9923037 35.2969141 32.0512821"></polygon>
                        <path d="M24.0555983,34.5124388 L35.2920128,32.0512821 L35.4686248,36.0842055 C35.4686248,36.0842055 30.9559806,41.2549347 24.0848019,36.3448888 L24.0555983,34.5124388 Z" id="Fill-7" fill="#DDEFFE"></path>
                        <path d="M43.5724263,21.0732098 C43.3017332,19.7001551 42.5528614,19.1166765 42.4456834,19.0386937 C43.1217291,15.135375 43.3003591,11.899088 43.3003591,11.899088 C43.2426479,10.2447381 40.6772466,5.34296085 40.6772466,5.34296085 C39.862419,3.45327 38.9871321,3.45327 38.9871321,3.45327 C37.9387115,3.6301239 37.0647987,3.27641611 37.0647987,3.27641611 C30.8869495,-3.10285712 22.4954627,1.79892017 22.4954627,1.79892017 C21.3288715,2.80294898 16.6089178,7.82309305 16.6089178,7.82309305 C16.4921213,9.06385543 15.3846154,15.4431287 15.3846154,15.4431287 L16.666629,19.4592439 C15.5604972,20.1081724 15.4437007,20.7584934 15.4437007,20.7584934 L15.3846154,22.7066714 C15.6182084,24.0658005 16.9579333,25.8371246 16.9579333,25.8371246 C17.4251194,26.6058124 18.0077279,27.3731076 18.0077279,27.3731076 L18.8816408,27.5499615 C23.0286045,37.5220147 29.4304282,37.1780548 29.4304282,37.1780548 C37.2777806,37.2852811 40.0369268,27.6683283 40.0369268,27.6683283 C40.1179973,27.4900819 40.1894493,27.2979099 40.2663976,27.1140933 C41.4865778,26.898248 42.0568196,25.9749871 42.0568196,25.9749871 C43.8637306,22.9629006 43.5724263,21.0732098 43.5724263,21.0732098" id="Fill-9" fill="#4792D8"></path>
                        <path d="M35.2854684,10.6501261 C35.2854684,10.6501261 34.0715388,10.8865696 30.5469196,13.6001063 C30.5469196,13.6001063 27.3111366,15.6057034 24.7102483,16.7851391 C24.7102483,16.7851391 20.3763428,18.2010184 19.5684188,19.7935348 L19.5684188,26.5766811 C19.5684188,26.5766811 21.0698222,31.4738429 24.1911606,34.0691578 C24.1911606,34.0691578 30.3738904,39.614453 35.9217255,33.184581 C35.9217255,33.184581 38.579836,30.884125 39.9654324,24.8673338 L40.0812394,16.313643 C40.0812394,16.313643 36.8454564,11.3580657 35.2854684,10.6501261" id="Fill-11" fill="#FEFEFE"></path>
                        <path d="M16.8096874,20.2655108 C16.8096874,20.2655108 16.3377388,20.4967806 16.2194036,21.1892298 C16.2194036,21.1892298 15.864398,22.4584932 17.1048293,24.4202058 L18.3424761,26.5655739 L18.7364627,26.6757672 L16.8096874,20.2655108 Z" id="Fill-13" fill="#FEFEFE"></path>
                        <path d="M41.9909652,19.8717949 C41.9909652,19.8717949 42.7698665,20.4322705 42.6280965,21.4270413 C42.6280965,21.4270413 41.9909652,25.2858132 40.0812394,26.2820513 L41.9909652,19.8717949 Z" id="Fill-15" fill="#FEFEFE"></path>
                    </g>
                </g>
            </g>
        </g>
    </g>
</svg>