<?xml version="1.0" encoding="UTF-8"?>
<svg width="128px" height="32px" viewBox="0 0 128 32" version="1.1" xmlns="http://www.w3.org/2000/svg" xmlns:xlink="http://www.w3.org/1999/xlink">
    <!-- Generator: Sketch 52.3 (67297) - http://www.bohemiancoding.com/sketch -->
    <title>128_32</title>
    <desc>Created with Sketch.</desc>
    <g id="128_32" stroke="none" stroke-width="1" fill="none" fill-rule="evenodd">
        <g id="分组" transform="translate(0.000000, 5.986486)">
            <g id="字母" transform="translate(0.409617, 1.271361)" fill="#B81D23">
                <path d="M25.177972,16.5856942 C20.5300166,16.5856942 17.0553852,13.1842516 17.0553852,8.64147659 C17.0553852,4.05290094 20.5300166,0.655831347 25.177972,0.655831347 C29.8245464,0.655831347 33.2984873,4.05290094 33.2984873,8.64147659 C33.2984873,13.1842516 29.8245464,16.5856942 25.177972,16.5856942 M25.177972,1.50394798 C22.039365,1.50394798 20.1550962,4.3065304 20.1550962,8.64147659 C20.1550962,12.5073694 21.7443079,15.7348157 25.177972,15.7348157 C28.6979437,15.7348157 30.2015382,12.2951676 30.2015382,8.64147659 C30.2015382,4.85889944 28.6118662,1.50394798 25.177972,1.50394798" id="Fill-1"></path>
                <path d="M44.463914,8.77204283 C43.4321346,7.84705484 39.5915587,6.02147516 38.7646163,5.27439603 C38.2465401,4.81293773 37.9321501,4.24422777 37.9321501,3.68035104 C37.9321501,2.54914528 39.1643934,1.50401702 40.6811067,1.50401702 C42.3531738,1.50401702 44.1018821,2.93189099 44.7773834,4.61109288 C44.7967163,4.65551255 44.859088,4.88543617 45.1007495,4.88543617 C45.3104195,4.88543617 45.4082349,4.7284713 45.4082349,4.5487212 L45.4082349,0.993075661 C45.4082349,0.791230808 45.3426411,0.641400706 45.1587482,0.641400706 C45.007307,0.641400706 44.9421735,0.700780377 44.829168,0.80480988 C44.5559755,1.05406641 44.2337602,1.21149159 43.9773689,1.21149159 C43.5467512,1.21149159 43.0760868,1.00826581 42.5428205,0.862578476 C42.0380933,0.723105293 41.4562646,0.655900393 40.8251829,0.655900393 C37.7330671,0.655900393 35.5567331,2.5963268 35.5567331,5.19706437 C35.5567331,6.37913411 36.0437384,7.48663404 37.0455978,8.39067803 C38.4486151,9.64823822 41.3998769,10.7571191 42.6885078,11.9120307 C43.3168276,12.4779788 43.5467512,13.1486469 43.5467512,13.6370331 C43.5467512,14.8722684 42.4569731,15.7705586 40.6518771,15.7705586 C39.0748635,15.7705586 37.8426203,15.1084062 37.0455978,14.0232312 C37.0267252,14.0025173 36.5038158,13.3447379 36.1862036,12.6188329 C36.1654898,12.572572 36.1061101,12.3410373 35.8626074,12.3410373 C35.6547786,12.3410373 35.5567331,12.5000735 35.5567331,12.6763713 L35.5567331,16.2354692 C35.5567331,16.4354728 35.6276204,16.5735651 35.8151957,16.5735651 C35.9634148,16.5735651 36.0200326,16.5261534 36.1328079,16.425346 C36.3776915,16.2025572 36.6584791,16.0554889 36.8985295,16.0214262 C36.9371953,16.0255689 36.9758612,16.0290212 37.014527,16.0290212 C37.8727704,16.0290212 39.1050137,16.6223577 41.1103434,16.6223577 C43.1713704,16.6223577 46.2991601,15.5671026 46.2991601,12.2459838 C46.2991601,10.9338772 45.7230852,9.9067009 44.463914,8.77204283" id="Fill-3"></path>
                <path d="M14.727564,12.7050025 C14.568988,12.6426308 14.4410226,12.8444756 14.3814127,12.9068473 C12.8874846,14.4387508 11.4807848,15.1471641 9.73276695,15.1471641 C6.89359008,15.1471641 4.33566111,13.2571413 4.33566111,8.21378185 C4.33566111,4.24869275 6.72810952,1.49950601 9.51527164,1.49950601 C12.0359157,1.49950601 13.5199472,3.38331459 14.0373328,5.83606328 C14.0373328,5.83606328 14.1038473,6.02294814 14.3155888,6.02294814 C14.5694484,6.02294814 14.6304391,5.81327806 14.6304391,5.68853472 L14.6304391,0.998921567 C14.6304391,0.940922818 14.6251456,0.889368374 14.610876,0.847710542 C14.5798053,0.728951199 14.5054656,0.655762301 14.3696749,0.655762301 C14.2198448,0.655762301 14.1627666,0.700872439 14.0490707,0.804671788 C13.7742671,1.05392832 13.4485995,1.18879842 13.1917479,1.21296457 C12.391043,1.28109009 11.8830936,0.722967201 9.43425751,0.648627534 C7.2095912,0.580502019 5.44201027,1.35704083 4.54717243,1.8928388 C2.23711907,3.28503893 0.75239712,5.95160047 0.75239712,8.95464682 C0.75239712,13.4843031 3.95613755,16.6031168 8.65265532,16.6031168 C10.9249635,16.6031168 12.7378847,15.7080488 14.2198448,13.9936334 C14.817324,13.2244595 14.9376944,12.79108 14.727564,12.7050025" id="Fill-5"></path>
            </g>
            <g id="文字" transform="translate(51.183203, 0.329437)" fill="#231916">
                <path d="M10.0707926,10.2596018 L13.0826235,10.2596018 L13.0826235,8.41730208 L10.0707926,8.41730208 L10.0707926,10.2596018 Z M10.0707926,7.94590289 L13.0826235,7.94590289 L13.0826235,6.01060429 L10.0707926,6.01060429 L10.0707926,7.94590289 Z M5.10829144,7.94590289 L8.03967701,7.94590289 L8.03967701,6.01060429 L5.10829144,6.01060429 L5.10829144,7.94590289 Z M5.10829144,10.2596018 L8.03967701,10.2596018 L8.03967701,8.41730208 L5.10829144,8.41730208 L5.10829144,10.2596018 Z M18.3507656,15.3194572 C14.6887112,14.8688098 12.1536597,13.340093 10.7481728,10.732282 L13.0826235,10.732282 L13.0826235,11.4094059 C13.131813,11.6094944 13.5355766,11.6591962 14.2857162,11.5585115 C14.788115,11.4578268 15.0658306,11.2841265 15.1152763,11.0312618 L15.1152763,6.38285593 C15.2572084,6.21069275 15.6010224,5.94117539 15.6010224,5.91017577 C15.6376583,5.82716852 15.6010224,5.74646703 15.4790735,5.66679032 C14.7947761,5.30555508 14.272394,5.04397977 13.908853,4.88385776 C13.7103017,4.80136291 13.5483864,4.82083374 13.429768,4.94175788 C13.3073067,5.06242582 13.1453913,5.21614295 12.9437657,5.53689935 L12.008397,5.53689935 L12.008397,5.53997369 L10.0707926,5.53997369 L10.0707926,3.50732091 L12.8610146,3.50732091 L12.8610146,3.51218862 L17.6797903,3.51218862 C17.7925162,3.43481767 17.8219786,3.31748026 17.7358971,3.16683748 C17.6072871,2.94369145 16.3314349,1.83667196 16.0245131,1.85639899 C15.6801867,1.88124992 14.8075858,2.96034414 14.7717185,3.03617792 L12.8610146,3.03617792 L10.0707926,3.03617792 L10.0707926,1.3263311 C10.3748963,1.22667117 10.5501339,1.10139171 10.6026539,0.948955561 L10.6026539,0.648438581 L8.03967701,0.124519381 L8.03967701,3.03617792 L1.72215937,3.03617792 C1.4695509,3.03617792 1.2446115,3.01132699 1.04452305,2.96034414 L1.39525429,3.50732091 L8.03967701,3.50732091 L8.03967701,5.53997369 L5.10829144,5.53997369 C4.105031,4.98812921 3.3515609,4.6358608 2.85223643,4.48573041 C2.79946022,4.53696945 2.79946022,4.71220697 2.85223643,5.01451732 C2.94805344,5.3629428 3.02773015,5.81435876 3.07717583,6.36620324 L3.07717583,11.7819137 C3.42739468,12.4874753 4.105031,12.4874753 5.10829144,11.7819137 L5.10829144,10.732282 L7.13940705,10.732282 C5.5325507,13.1861197 3.3515609,15.1957149 0.593107089,16.7492826 C0.337168076,16.8497112 0.241351068,16.9245202 0.296176843,16.9757592 C0.296176843,17.026742 0.418381957,17.026742 0.66791609,16.9757592 C3.48068328,16.0747207 5.93452098,14.6174823 8.03967701,12.6127548 L8.03967701,18.0266719 C8.03967701,18.378428 8.29254168,18.5539217 8.79519668,18.5539217 C9.54866679,18.5042198 9.97343844,18.3274451 10.0707926,18.0266719 L10.0707926,10.732282 L10.3005997,10.732282 C11.3043725,13.992366 13.4325861,16.2220329 16.6952321,17.4246132 C16.6952321,17.3754237 16.7444216,17.2498881 16.8471559,17.0482624 C17.3459679,16.1941076 17.8483668,15.7229646 18.3507656,15.6207427 C18.6482082,15.5723218 18.800132,15.5195456 18.800132,15.4716371 C18.800132,15.4206543 18.6482082,15.3712086 18.3507656,15.3194572 Z" id="Fill-7"></path>
                <path d="M26.1045648,0.346102616 C26.6330955,0.517753406 26.9074806,1.25508321 26.7824573,2.30420259 C26.5639228,4.1055111 28.0444749,4.39168115 28.7917963,4.08219734 C29.396417,3.83445657 29.7535531,3.26570321 29.6377529,2.45458918 C29.4655897,1.19052202 28.2263735,0.378895603 26.1809109,0.124493761 C25.932914,0.0917007745 25.7279578,0.111427805 25.7279578,0.200327543 C25.7279578,0.248748437 25.8596422,0.270268835 26.1045648,0.346102616" id="Fill-9"></path>
                <path d="M35.5107462,2.98173644 C35.0544626,3.01145508 33.9013279,4.51685813 33.8549566,4.61805523 L22.0356469,4.61805523 L22.0356469,4.6198486 L20.4631207,4.6198486 C20.1754134,4.6198486 19.9105076,4.58961757 19.6791633,4.53197364 L20.0860013,5.16298244 L26.4778156,5.16298244 L26.4778156,5.91491538 C26.5805498,12.1320045 24.3762463,16.1478644 19.8610619,17.951991 C19.6099906,18.0531881 19.484455,18.1305591 19.484455,18.1800048 C19.484455,18.2261199 19.6099906,18.2261199 19.8610619,18.1800048 C25.0236516,16.9756311 27.9091782,13.7660175 28.5104684,8.54885831 L32.8765471,8.54885831 L32.8765471,9.60156442 C33.0686935,14.8223104 31.716239,16.8019308 28.7154245,15.8632315 C28.3518835,15.7507618 27.8494847,15.7095144 28.6562434,16.0123371 C29.6213308,16.3735724 30.2751409,16.8155091 30.5431211,17.5753841 C30.6420125,17.8792316 30.7877876,18.1584844 30.9960743,18.1800048 C33.4947461,18.411349 34.8797374,15.3710805 35.1341393,9.30104745 C35.0846936,9.14937988 35.8112632,8.59676682 35.8112632,8.54885831 C35.8576345,8.44509926 35.8112632,8.34774508 35.6595956,8.24834134 C34.8072342,7.79538821 34.1590603,7.47309464 33.7027766,7.27044423 C33.4517053,7.17104048 33.2534102,7.19409805 33.1014865,7.34627801 C32.9531495,7.49307786 32.7479371,7.67651363 32.4999401,8.07669055 L28.5104684,8.07669055 C28.5604264,7.32629478 28.6132026,6.61740264 28.6629045,5.76478499 C28.7123502,5.56495272 28.838142,5.3630709 29.0361809,5.16298244 L37.6886617,5.16298244 C37.8408416,5.06229773 37.8772214,4.90525006 37.7683384,4.71207888 C37.5961752,4.41796678 35.9139975,2.95534833 35.5107462,2.98173644" id="Fill-10"></path>
                <path d="M55.0486283,16.5493223 C55.1485445,16.5616196 55.2417995,16.5772476 55.3291621,16.596206 C55.4165246,16.6146521 55.5161846,16.6241313 55.6283981,16.6241313 C55.7157607,16.6241313 55.7995365,16.596206 55.8807504,16.5398431 C55.9617081,16.4839925 56.0147405,16.3932994 56.0395914,16.2687885 L56.0395914,16.1004683 L56.0395914,11.7246541 L55.4042273,11.7246541 C55.3786078,11.7746122 55.3168647,11.880677 55.2169486,12.0425924 C55.1172886,12.2047639 55.0675868,12.3169774 55.0675868,12.3792329 L55.0675868,16.3435975 L55.0486283,16.5493223 Z M56.2642746,7.76028946 C55.7032071,7.76028946 55.4226733,7.57967184 55.4226733,7.2181804 L55.4226733,6.9189444 L49.9810871,6.9189444 L49.9810871,6.9937534 C49.9810871,7.09366953 49.8499152,7.24918002 49.5883399,7.46105346 C49.3265084,7.67318309 49.1584443,7.77284303 49.0833791,7.76028946 C48.9212075,7.73543853 48.6440043,7.57326696 48.2512571,7.27403096 C47.858766,6.97479496 47.6620081,6.75036795 47.6620081,6.60074995 C47.6620081,6.48879265 47.7337427,6.36095124 47.8772121,6.21748192 C48.0204252,6.07452499 48.0921598,5.98383189 48.0921598,5.94642739 L48.0921598,4.22607657 C48.017607,4.31343913 47.8554355,4.35699232 47.6059013,4.35699232 L45.4179943,4.35699232 L45.0068009,4.76818563 L45.0068009,8.54578397 C45.1438654,8.40871954 45.2965577,8.26217588 45.4651342,8.10615299 C45.6334544,7.9506425 45.7922955,7.87250296 45.9419135,7.87250296 C46.0287636,7.87250296 46.1038288,7.88505653 46.1660843,7.90990747 C46.2534468,7.94731197 46.3467019,8.0098236 46.446618,8.09692997 C46.6833424,8.3090596 46.8703649,8.50197459 47.0076855,8.67669972 C47.1444938,8.85116866 47.2131541,8.99463798 47.2131541,9.10659528 C47.2131541,9.29387398 46.9889833,9.38712904 46.5401293,9.38712904 L45.0068009,9.38712904 L45.0068009,13.2395364 C45.4802497,13.1396203 45.9511365,13.0430347 46.4184365,12.9495234 C46.886249,12.8560122 47.2070054,12.8091284 47.3817305,12.8091284 C47.493944,12.8091284 47.568753,12.8280869 47.6059013,12.8654914 L47.6059013,10.4531573 C47.7806265,10.4782644 48.0393836,10.5558916 48.3821728,10.6868073 C48.7247058,10.8177231 49.0147188,10.9645229 49.2516994,11.1264383 L50.7476232,11.1264383 C50.7970688,11.0019274 50.8349857,10.8520532 50.8598367,10.6775843 C50.8849438,10.5028592 50.8972412,10.3409438 50.8972412,10.1913258 C50.8972412,10.0294104 50.8908363,9.88594111 50.8785389,9.76117404 C50.8285809,9.46193804 50.7970688,9.26287436 50.7850277,9.16270203 L47.6996688,9.16270203 L47.1760058,8.56448622 L55.2356508,8.56448622 C55.3601617,8.56448622 55.5535891,8.43997535 55.8154206,8.19044122 C55.9650386,8.05337678 56.1146566,7.90990747 56.2642746,7.76028946 Z M40.948925,15.9134458 C40.7739437,15.2281236 40.6868373,14.6732048 40.6868373,14.2492017 C40.6868373,14.0747328 40.7119445,13.9873702 40.7619025,13.9873702 C41.0857333,13.9873702 41.4349274,13.9563706 41.8089724,13.8938589 C42.2952309,13.794199 42.6567223,13.7257949 42.8937029,13.6881342 L42.8937029,9.38712904 L41.3227139,9.38712904 L40.799307,8.78865703 L42.8937029,8.78865703 L42.8937029,4.35699232 L40.8928183,4.35699232 L40.3878575,3.75852031 L45.5863145,3.75852031 C45.6859744,3.75852031 45.8855505,3.58405137 46.1847865,3.23485731 C46.4837663,2.88591943 46.7145982,2.7114505 46.8767698,2.7114505 C46.951835,2.7114505 47.0386851,2.7485988 47.1386013,2.8234078 C47.4250275,3.0852393 47.6059013,3.25996444 47.6809665,3.34707081 C47.8805426,3.55920044 48.017607,3.74622294 48.0921598,3.90813831 L48.0921598,1.86984924 C48.0921598,1.8449983 48.1482666,1.83244474 48.2604801,1.83244474 C48.5223116,1.83244474 48.915315,1.88829529 49.4387219,2.00076499 C49.9621287,2.11272229 50.3364299,2.23159687 50.5606007,2.35610774 C50.5480471,2.43091674 50.5418984,2.50572574 50.5418984,2.58053474 C50.3551321,2.71759918 50.1678534,2.84851493 49.9810871,2.9730258 L49.9810871,6.32047239 L51.7388424,6.32047239 L51.7388424,0.972141227 C52.2999099,1.00954573 52.7234006,1.04080154 53.0105954,1.06565248 C53.8826839,1.16556861 54.338199,1.28418699 54.3756035,1.42099523 C54.3879009,1.48350686 54.2444316,1.59572036 53.9451956,1.75763574 C53.8954937,1.78274287 53.8206847,1.82014737 53.7207686,1.86984924 L53.7207686,6.32047239 L55.4226733,6.32047239 L55.4226733,2.07557399 C55.5348868,2.05072305 55.6283981,2.03791329 55.7032071,2.03791329 C56.1520611,2.03791329 56.6567657,2.07864833 57.2178332,2.15960602 C57.7789007,2.2408199 58.0965827,2.3371493 58.1716479,2.4493628 C58.2213498,2.5241718 58.1590944,2.61179056 57.9843692,2.7114505 C57.8099003,2.81111043 57.623134,2.91691905 57.4238141,3.02913255 L57.4238141,6.95609271 C57.4238141,7.15566877 57.3490051,7.32398902 57.1993871,7.46105346 C57.4858133,7.68548046 57.7417524,7.91631235 57.9659232,8.15303672 C58.2774565,8.47737985 58.4332232,8.72640159 58.4332232,8.90087053 C58.4332232,9.07559566 58.2651592,9.16270203 57.9285187,9.16270203 L53.2347663,9.16270203 C53.0851483,9.23751103 52.9416789,9.31232003 52.8046145,9.38712904 C52.6426991,9.71147217 52.4646435,10.0230055 52.2717285,10.3222415 C52.0783011,10.6214775 51.8569484,10.8897139 51.6076705,11.1264383 L55.6658026,11.1264383 C55.8528251,10.9519694 56.0462525,10.7962027 56.2455723,10.658882 C56.519445,10.4718595 56.7131286,10.3783483 56.8253421,10.3783483 C57.0497691,10.3783483 57.3674512,10.4997848 57.7789007,10.7429141 C58.1903502,10.9860433 58.3958187,11.207396 58.3958187,11.4067159 C58.3958187,11.581441 58.3117867,11.7653892 58.1434664,11.9585603 C57.9751462,12.1517315 57.8913704,12.2795729 57.8913704,12.3418284 L57.8913704,16.904665 C57.8913704,17.2659003 57.64158,17.621243 57.1432804,17.9704371 C56.6444683,18.319375 56.1958705,18.4941001 55.7969745,18.4941001 C55.4477805,18.4941001 55.2981625,18.3567795 55.3481205,18.0826506 C55.3975662,17.8085217 55.3665666,17.5899872 55.2546093,17.428328 C55.1421396,17.2659003 54.9863729,17.122431 54.787053,16.9979201 C54.6120717,17.19724 54.3627938,17.3158583 54.0392192,17.353519 C53.8642379,17.353519 53.6769592,17.2971561 53.4778955,17.1851988 C53.2783194,17.0727291 53.1786595,16.9108137 53.1786595,16.6989403 L53.1786595,11.7246541 L52.5430392,11.7246541 C52.5176759,11.7871657 52.4554204,11.8960487 52.3557605,12.0518154 C52.2561006,12.2080945 52.2061425,12.3169774 52.2061425,12.3792329 L52.2061425,16.3435975 C52.2061425,16.5680245 52.1128874,16.7860466 51.9258649,16.9979201 C51.7388424,17.2100497 51.4890521,17.3284119 51.1777749,17.353519 C51.0030498,17.353519 50.8160273,17.2971561 50.6167074,17.1851988 C50.4171314,17.0727291 50.3174714,16.9108137 50.3174714,16.6989403 L50.3174714,11.7246541 L49.4576803,11.7246541 L49.4576803,17.6712011 C49.4576803,17.920479 49.3513593,18.1323525 49.1394859,18.3070776 C48.9273562,18.4815465 48.6596322,18.5689091 48.3355453,18.5689091 C48.1231595,18.5689091 47.9489467,18.5002488 47.8116261,18.3631844 C47.6745617,18.2258637 47.6059013,18.0575435 47.6059013,17.8582236 L47.6059013,12.9587464 C47.419135,13.2707922 46.7176725,13.7321998 45.5022825,14.3427129 C44.2868924,14.9537385 43.055362,15.558103 41.8089724,16.156575 L40.948925,15.9134458 Z" id="Fill-11"></path>
                <path d="M73.9732816,3.77719694 L62.0986337,3.77719694 L61.5749707,3.16002269 L71.224307,3.16002269 C71.373925,3.16002269 71.6513844,2.93277754 72.0566852,2.47751865 C72.4614737,2.02251596 72.7578915,1.79501462 72.9446578,1.79501462 C73.0071695,1.79501462 73.0817223,1.82627043 73.1690848,1.88826967 C73.4931718,2.1754645 73.7547471,2.437296 73.9545793,2.67376418 C74.2784101,3.04780918 74.4405816,3.32219425 74.4405816,3.49666319 C74.4405816,3.68368569 74.284815,3.77719694 73.9732816,3.77719694 M65.4084196,8.6018651 L60.1725581,8.6018651 L59.6488951,8.0033931 L73.3376613,8.0033931 C73.4872793,8.0033931 73.7737055,7.77281741 74.1977086,7.31140984 C74.6211993,6.85051466 74.9391375,6.61968278 75.1515234,6.61968278 C75.2381173,6.61968278 75.3131825,6.64453371 75.3759504,6.69449178 C75.6997811,6.94402591 75.9862073,7.19919634 76.2357415,7.46102784 C76.6100427,7.84762641 76.796809,8.14071373 76.796809,8.3400336 C76.796809,8.51475873 76.6407861,8.6018651 76.3292527,8.6018651 L67.5965829,8.6018651 C68.0328833,8.73918573 68.3725981,8.86062226 68.6157274,8.96643088 C68.8586005,9.0724957 68.9677396,9.15652773 68.9428887,9.21903936 C68.8929306,9.3561038 68.7182055,9.46191242 68.4189695,9.53672142 C68.2570541,9.57412592 68.1386919,9.59282817 68.0641391,9.59282817 C67.8891578,9.90461774 67.7336473,10.1603006 67.5965829,10.3596204 C67.1974307,10.970646 66.7421718,11.569118 66.2315748,12.1547803 C65.769911,12.6909968 65.2336945,13.2085111 64.6234375,13.707067 C64.0995183,14.1433675 63.5881526,14.5048589 63.0898529,14.7915413 L72.720487,14.3613896 C72.3584832,13.7006621 71.8722247,12.9466796 71.2617115,12.0986735 C70.7009002,11.3259888 70.4203664,10.9332415 70.4203664,10.9206879 C71.0682841,11.2196677 71.716458,11.5127551 72.3651443,11.7994375 C73.7485984,12.7342938 74.7398177,13.7380666 75.3382897,14.8102436 C75.5373533,15.1594377 75.6810788,15.4927476 75.7684414,15.8106859 C75.8552916,16.1283679 75.8993572,16.4373394 75.8993572,16.7363192 C75.8993572,17.1475125 75.8119946,17.4997809 75.6372695,17.7928682 C75.4628005,18.0856993 75.2450346,18.2632426 74.9829469,18.3257542 C74.8581798,18.3506052 74.7649248,18.3631587 74.7026693,18.3631587 C74.303261,18.3631587 73.9791741,18.1200295 73.7301523,17.633771 C73.6924916,17.5464084 73.437065,16.6676588 72.9633601,14.9972661 L63.1459597,17.633771 C63.1208526,17.633771 63.0396387,17.7367614 62.9028304,17.9424862 C62.7655098,18.148211 62.6345941,18.2632426 62.5100832,18.2886059 C62.3855723,18.3257542 62.1639635,17.9517092 61.8462814,17.1662147 C61.5285994,16.3809764 61.3382463,15.795058 61.2757347,15.4087156 C61.2634373,15.2716512 61.3290233,15.1594377 61.4722364,15.0718189 C61.6154495,14.9849687 61.7806954,14.9163084 61.9679741,14.8663503 C62.3043584,14.4674544 62.6409989,14.0621536 62.9773833,13.6509603 C63.5507481,12.8654658 64.0933696,11.911651 64.6047352,10.7897722 C64.7661382,10.4157272 64.9224173,10.0293848 65.0720353,9.63023267 C65.1839926,9.30640193 65.2964623,8.96361274 65.4084196,8.6018651" id="Fill-12"></path>
                <path d="M40.9488738,15.9134458 C40.9488738,15.9134458 41.1215494,16.4112331 41.8089211,16.156575 L40.9488738,15.9134458 Z" id="Fill-13"></path>
            </g>
        </g>
    </g>
</svg>