<?xml version="1.0" encoding="UTF-8"?>
<svg width="17px" height="18px" viewBox="0 0 17 18" version="1.1" xmlns="http://www.w3.org/2000/svg" xmlns:xlink="http://www.w3.org/1999/xlink">
    <!-- Generator: Sketch 52.3 (67297) - http://www.bohemiancoding.com/sketch -->
    <title>ic_contract information</title>
    <desc>Created with Sketch.</desc>
    <g id="Page-1" stroke="none" stroke-width="1" fill="none" fill-rule="evenodd">
        <g id="统计图表" transform="translate(-949.398438, -124.000000)">
            <g id="ic_contract-information" transform="translate(949.398438, 124.000000)">
                <path d="M13.4296875,10.265625 C13.1384436,10.265625 12.9023438,10.5017248 12.9023438,10.7929688 C12.9023438,11.0842127 13.1384436,11.3203125 13.4296875,11.3203125 C13.7209314,11.3203125 13.9570312,11.0842127 13.9570312,10.7929688 C13.9570312,10.5017248 13.7209314,10.265625 13.4296875,10.265625 Z" id="路径" fill="#E3F2FD" fill-rule="nonzero"></path>
                <rect id="矩形" fill="#000000" opacity="0" x="0" y="0" width="18" height="18"></rect>
                <path d="M15.9785156,16.8574219 L10.8808594,16.8574219 C10.3954529,16.8574219 10.0019531,16.4639221 10.0019531,15.9785156 L10.0019531,14.5722656 C10.0019531,14.0868591 10.3954529,13.6933594 10.8808594,13.6933594 L11.4578965,13.6933594 L12.426293,12.0160371 C11.9100622,11.5925657 11.7152756,10.8905815 11.9394861,10.2616524 C12.1636967,9.63272321 12.7586275,9.21226995 13.4263252,9.210864 C14.094023,9.20945805 14.6907192,9.62740214 14.9175764,10.2553815 C15.1444336,10.8833609 14.9526049,11.5861591 14.4381621,12.0118008 L15.4039746,13.6933594 L15.9785156,13.6933594 C16.4639221,13.6933594 16.8574219,14.0868591 16.8574219,14.5722656 L16.8574219,15.9785156 C16.8574219,16.4639221 16.4639221,16.8574219 15.9785156,16.8574219 Z M13.4296875,10.265625 C13.1384436,10.265625 12.9023437,10.5017248 12.9023437,10.7929688 C12.9023437,11.0842127 13.1384436,11.3203125 13.4296875,11.3203125 C13.7209314,11.3203125 13.9570312,11.0842127 13.9570312,10.7929688 C13.9570312,10.5017248 13.7209314,10.265625 13.4296875,10.265625 Z M13.4349609,12.3784102 L12.6757441,13.6933594 L14.1901699,13.6933594 L13.4349609,12.3784102 Z M15.8027344,15.0996094 C15.8027344,14.9054468 15.6453345,14.7480469 15.4511719,14.7480469 L11.4082031,14.7480469 C11.2140405,14.7480469 11.0566406,14.9054468 11.0566406,15.0996094 L11.0566406,15.4511719 C11.0566406,15.6453345 11.2140405,15.8027344 11.4082031,15.8027344 L15.4511719,15.8027344 C15.6453345,15.8027344 15.8027344,15.6453345 15.8027344,15.4511719 L15.8027344,15.0996094 Z M8.21258789,11.0222402 C8.40157973,11.0211487 8.57668431,11.1213484 8.67149673,11.2848406 C8.76630915,11.4483329 8.76630915,11.6500792 8.67149673,11.8135715 C8.57668431,11.9770637 8.40157973,12.0772634 8.21258789,12.0761719 L4.32384961,12.0761719 C4.13485777,12.0772634 3.95975319,11.9770637 3.86494077,11.8135715 C3.77012835,11.6500792 3.77012835,11.4483329 3.86494077,11.2848406 C3.95975319,11.1213484 4.13485777,11.0211487 4.32384961,11.0222402 L8.21258789,11.0222402 Z M3.796875,6.45080273 C3.796875,6.15976269 4.03280957,5.92382812 4.32384961,5.92382812 L12.1995879,5.92382812 C12.3885797,5.92273658 12.5636843,6.0229363 12.6584967,6.18642853 C12.7533091,6.34992076 12.7533091,6.55166713 12.6584967,6.71515936 C12.5636843,6.87865159 12.3885797,6.97885131 12.1995879,6.97775977 L4.32384961,6.97775977 C4.03281643,6.97775977 3.79688471,6.74183591 3.796875,6.45080273 Z M10.2132598,9.52734375 L4.32384961,9.52734375 C4.18408725,9.52734375 4.0500492,9.47182337 3.95122229,9.37299646 C3.85239538,9.27416955 3.796875,9.1401315 3.796875,9.00036914 L3.796875,8.99963086 C3.796875,8.70859082 4.03280957,8.47265625 4.32384961,8.47265625 L10.2132598,8.47265625 C10.5042998,8.47265625 10.7402344,8.70859082 10.7402344,8.99963086 L10.7402344,9.00036914 C10.7402344,9.1401315 10.684714,9.27416955 10.5858871,9.37299646 C10.4870602,9.47182337 10.3530221,9.52734375 10.2132598,9.52734375 Z M6.7,17 L3.06875,17 C1.759375,17 0.6953125,15.934375 0.6953125,14.625 L0.6953125,3.375 C0.6953125,2.065625 1.759375,1 3.06875,1 L12.8515625,1 C14.1609375,1 15.225,2.065625 15.225,3.375 L15.225,6 C15.225,6.2765625 15.0015625,6.5 14.725,6.5 C14.4484375,6.5 14.225,6.2765625 14.225,6 L14.225,3.375 C14.225,2.6171875 13.609375,2 12.8515625,2 L3.06875,2 C2.3109375,2 1.6953125,2.6171875 1.6953125,3.375 L1.6953125,14.625 C1.6953125,15.3828125 2.3109375,16 3.06875,16 L6.7,16 C6.9765625,16 7.2,16.2234375 7.2,16.5 C7.2,16.7765625 6.975,17 6.7,17 Z" id="形状" stroke="#247BD8" stroke-width="0.2" fill="#247BD8" fill-rule="nonzero"></path>
            </g>
        </g>
    </g>
</svg>