<?xml version="1.0" encoding="UTF-8"?>
<svg width="17px" height="17px" viewBox="0 0 17 17" version="1.1" xmlns="http://www.w3.org/2000/svg" xmlns:xlink="http://www.w3.org/1999/xlink">
    <!-- Generator: Sketch 52.3 (67297) - http://www.bohemiancoding.com/sketch -->
    <title>ic_events List</title>
    <desc>Created with Sketch.</desc>
    <g id="Page-1" stroke="none" stroke-width="1" fill="none" fill-rule="evenodd">
        <g id="统计图表" transform="translate(-577.398438, -125.000000)">
            <g id="ic_events-List" transform="translate(578.062500, 125.614258)">
                <rect id="矩形" fill="#000000" opacity="0" x="0" y="0" width="16" height="16"></rect>
                <polygon id="路径-5" fill="#E3F2FD" fill-rule="nonzero" points="0.565185547 8.4469401 15.5095215 8.4469401 15.5095215 14.8505859 0.565185547 15"></polygon>
                <path d="M1.71428572,1.14285714 C1.37142858,1.14285714 1.14285714,1.37142856 1.14285714,1.71428572 L1.14285714,14.2857143 C1.14285714,14.6285714 1.37142856,14.8571429 1.71428572,14.8571429 L14.2857143,14.8571429 C14.6285714,14.8571429 14.8571429,14.6285714 14.8571429,14.2857143 L14.8571429,1.71428572 C14.8571429,1.37142858 14.6285714,1.14285714 14.2857143,1.14285714 L1.71428572,1.14285714 Z M1.71428572,0 L14.2857143,0 C15.2,0 16,0.8 16,1.71428572 L16,14.2857143 C16,15.2 15.2,16 14.2857143,16 L1.71428572,16 C0.8,16 0,15.2 0,14.2857143 L0,1.71428572 C0,0.8 0.8,0 1.71428572,0 Z M8.57142858,4.57142858 L12,4.57142858 C12.3428571,4.57142858 12.5714286,4.8 12.5714286,5.14285714 C12.5714286,5.48571428 12.3428572,5.71428572 12,5.71428572 L8.57142858,5.71428572 C8.22857144,5.71428572 8,5.4857143 8,5.14285714 C8,4.79999998 8.22857142,4.57142856 8.57142858,4.57142858 Z M5.14285714,11.4285714 C5.48571428,11.4285714 5.71428572,11.2 5.71428572,10.8571429 C5.71428572,10.5142857 5.48571428,10.2857143 5.14285714,10.2857143 C4.8,10.2857143 4.57142856,10.5142857 4.57142858,10.8571429 C4.57142859,11.2 4.8,11.4285714 5.14285714,11.4285714 Z M5.14285714,12.5714286 C4.22857142,12.5714286 3.42857142,11.7714286 3.42857142,10.8571429 C3.42857142,9.94285714 4.22857142,9.14285714 5.14285714,9.14285714 C6.05714286,9.14285714 6.85714286,9.94285714 6.85714286,10.8571429 C6.85714286,11.7714286 6.05714286,12.5714286 5.14285714,12.5714286 Z M5.02857142,5.6 L3.77142858,4.34285714 C3.54285716,4.11428572 3.2,4.11428572 2.97142858,4.34285714 C2.74285716,4.57142856 2.74285716,4.91428572 2.97142858,5.14285714 L4.57142858,6.74285714 C4.6857143,6.85714286 4.91428572,6.97142856 5.02857142,6.97142858 C5.14285713,6.97142859 5.37142856,6.97142858 5.48571428,6.85714286 L7.88571428,4.45714286 C8.1142857,4.22857144 8.1142857,3.88571428 7.88571428,3.65714286 C7.65714286,3.42857144 7.3142857,3.42857144 7.08571428,3.65714286 L5.02857142,5.6 Z M8.57142858,10.2857143 L12,10.2857143 C12.3428571,10.2857143 12.5714286,10.5142857 12.5714286,10.8571429 C12.5714286,11.2 12.3428572,11.4285714 12,11.4285714 L8.57142858,11.4285714 C8.22857144,11.4285714 8,11.2 8,10.8571429 C8,10.5142857 8.22857142,10.2857143 8.57142858,10.2857143 Z" id="形状" stroke="#247BD8" stroke-width="0.2" fill="#247BD8" fill-rule="nonzero"></path>
            </g>
        </g>
    </g>
</svg>