<?xml version="1.0" encoding="UTF-8"?>
<svg width="17px" height="19px" viewBox="0 0 17 19" version="1.1" xmlns="http://www.w3.org/2000/svg" xmlns:xlink="http://www.w3.org/1999/xlink">
    <!-- Generator: Sketch 52.3 (67297) - http://www.bohemiancoding.com/sketch -->
    <title>ic_cliet_list</title>
    <desc>Created with Sketch.</desc>
    <g id="Page-1" stroke="none" stroke-width="1" fill="none" fill-rule="evenodd">
        <g id="统计图表" transform="translate(-348.398438, -124.000000)" fill="#247BD8" fill-rule="nonzero">
            <g id="ic_cliet_list" transform="translate(349.000000, 124.000000)">
                <path d="M3.60639063,7.38035343 L12.1357816,7.38035343 L12.1357816,6.31416406 L3.60639063,6.31416406 L3.60639063,7.38035343 Z M3.60639063,10.5788684 L12.1357816,10.5788684 L12.1357816,9.51269675 L3.60639063,9.51269675 L3.60639063,10.5788684 Z M3.60639063,13.7774011 L12.1357816,13.7774011 L12.1357816,12.7112294 L3.60639063,12.7112294 L3.60639063,13.7774011 Z" id="形状-copy-4"></path>
                <path d="M3.49971076,1.74833689 L2.41858377,1.74833689 C1.22935008,1.74833689 0.256329785,2.72135719 0.256329785,3.91059088 L0.256329785,15.8029878 C0.256329785,16.9922215 1.22935008,17.9652418 2.41858377,17.9652418 L13.2298537,17.9652418 C14.4190874,17.9652418 15.3921077,16.9922215 15.3921077,15.8029878 L15.3921077,3.91059088 C15.3921077,2.72135719 14.4190874,1.74833689 13.2298537,1.74833689 L12.2568334,1.74833689 L12.2568334,2.82946389 L13.2298537,2.82946389 C13.8785339,2.82946389 14.3109807,3.26191068 14.3109807,3.91059088 L14.3109807,15.8029878 C14.3109807,16.3435413 13.8785339,16.8841148 13.2298537,16.8841148 L2.41858377,16.8841148 C1.76990357,16.8841148 1.33745678,16.451668 1.33745678,15.8029878 L1.33745678,3.91059088 C1.33745678,3.37003738 1.76990357,2.82946389 2.41858377,2.82946389 L3.49971076,2.82946389 L3.49971076,1.74833689 Z M5.66196477,2.82946389 L9.98647273,2.82946389 L9.98647273,1.74833689 L5.66196477,1.74833689 L5.66196477,2.82946389 Z M4.58083775,1.74833689 C4.58083775,1.0996567 5.12139125,0.667209902 5.66196477,0.667209883 L9.98647273,0.667209883 C10.5270462,0.667209883 11.0675997,1.09965668 11.0675997,1.74833689 L11.0675997,2.82946389 C11.0675997,3.47814408 10.5270462,3.91059088 9.98647273,3.91059088 L5.66196477,3.91059088 C5.12141127,3.91059088 4.58083777,3.47814408 4.58083775,2.82946389 L4.58083775,1.74833689 Z" id="形状-copy-3" stroke="#247BD8" stroke-width="0.2"></path>
            </g>
        </g>
    </g>
</svg>