<?xml version="1.0" encoding="UTF-8"?>
<svg width="17px" height="16px" viewBox="0 0 17 16" version="1.1" xmlns="http://www.w3.org/2000/svg" xmlns:xlink="http://www.w3.org/1999/xlink">
    <!-- Generator: Sketch 52.3 (67297) - http://www.bohemiancoding.com/sketch -->
    <title>ic_customer handover</title>
    <desc>Created with Sketch.</desc>
    <g id="Page-1" stroke="none" stroke-width="1" fill="none" fill-rule="evenodd">
        <g id="待办事项" transform="translate(-213.000000, -139.000000)">
            <g id="ic_customer-handover" transform="translate(213.000000, 139.000000)">
                <path d="M1.55203513,9 L15.1951882,9 C14.7094674,12.3294239 11.8357774,14.8938826 8.37361167,14.8938826 C4.91144589,14.8938826 2.03775588,12.3294239 1.55203513,9 Z" id="合并形状" fill="#E3F2FD"></path>
                <path d="M8.37361167,0.0104829268 C3.96732604,0.0104829268 0.384094588,3.59371438 0.384094588,7.99999999 C0.384094588,12.4062856 3.96732604,15.9895171 8.37361167,15.9895171 C12.7798973,15.9895171 16.3631287,12.4062856 16.3631287,7.99999999 C16.3631287,3.59371436 12.7781119,0.0104829268 8.37361167,0.0104829268 Z M8.37361167,14.8938826 C4.57188602,14.8938826 1.47972902,11.8017256 1.47972902,7.99999999 C1.47972902,4.19827434 4.57188602,1.10611734 8.37361167,1.10611735 C12.1753373,1.10611737 15.2674943,4.19827435 15.2674943,7.99999999 C15.2674943,11.8017256 12.1753373,14.8938826 8.37361167,14.8938826 Z M12.4799556,7.01269208 C12.7406192,7.01269208 12.9745023,6.85736516 13.0744828,6.61455525 C13.1744634,6.37353072 13.119117,6.0985842 12.9352242,5.91290604 L11.5122867,4.48996859 C11.3462476,4.32392947 11.0766572,4.32392947 10.9106181,4.48996859 C10.744579,4.6560077 10.744579,4.92559812 10.9106181,5.09163725 L11.9782675,6.15928667 L3.74058445,6.15928667 C3.50491602,6.15928667 3.31388175,6.35032093 3.31388175,6.58598938 C3.31388175,6.82165783 3.50491601,7.01269208 3.74058445,7.01269208 L12.4799556,7.01269208 Z M13.0048535,8.98730792 L4.26548233,8.98730792 C4.00481876,8.98730792 3.77093569,9.14263484 3.67095514,9.38544475 C3.57097459,9.62646928 3.62632096,9.9014158 3.81021375,10.087094 L5.23315121,11.5100314 C5.31706345,11.5939437 5.42597085,11.6350071 5.53487823,11.6350071 C5.64378561,11.6350071 5.752693,11.5939437 5.83660523,11.5100314 C6.00264435,11.3439923 6.00264435,11.0744019 5.83660523,10.9083627 L4.76895581,9.84071331 L13.0066389,9.84071331 C13.2423073,9.84071331 13.4333416,9.64967906 13.4333416,9.41401062 C13.4333416,9.17834219 13.240522,8.98730792 13.0048535,8.98730792 Z" id="形状" fill="#1A70CC" fill-rule="nonzero"></path>
            </g>
        </g>
    </g>
</svg>