<?xml version="1.0" encoding="UTF-8"?>
<svg width="16px" height="19px" viewBox="0 0 16 19" version="1.1" xmlns="http://www.w3.org/2000/svg" xmlns:xlink="http://www.w3.org/1999/xlink">
    <!-- Generator: Sketch 52.3 (67297) - http://www.bohemiancoding.com/sketch -->
    <title>ic_contact</title>
    <desc>Created with Sketch.</desc>
    <g id="Page-1" stroke="none" stroke-width="1" fill="none" fill-rule="evenodd">
        <g id="统计图表" transform="translate(-455.398438, -124.000000)">
            <g id="ic_contact" transform="translate(453.269531, 123.614258)">
                <rect id="矩形" fill="#000000" opacity="0" x="0" y="0" width="20" height="20"></rect>
                <rect id="矩形" fill="#E3F2FD" fill-rule="nonzero" x="3" y="11" width="14" height="7" rx="1"></rect>
                <path d="M5.67549201,2.43211104 L4.59436502,2.43211104 C3.40513133,2.43211104 2.43211104,3.40513133 2.43211104,4.59436502 L2.43211104,16.486762 C2.43211104,17.6759957 3.40513133,18.649016 4.59436502,18.649016 L15.405635,18.649016 C16.5948687,18.649016 17.567889,17.6759957 17.567889,16.486762 L17.567889,4.59436502 C17.567889,3.40513133 16.5948687,2.43211104 15.405635,2.43211104 L14.4326147,2.43211104 L14.4326147,3.51323803 L15.405635,3.51323803 C16.0543152,3.51323803 16.486762,3.94568482 16.486762,4.59436502 L16.486762,16.486762 C16.486762,17.0273155 16.0543152,17.567889 15.405635,17.567889 L4.59436502,17.567889 C3.94568482,17.567889 3.51323803,17.1354422 3.51323803,16.486762 L3.51323803,4.59436502 C3.51323803,4.05381152 3.94568482,3.51323803 4.59436502,3.51323803 L5.67549201,3.51323803 L5.67549201,2.43211104 Z M7.83774602,3.51323803 L12.162254,3.51323803 L12.162254,2.43211104 L7.83774602,2.43211104 L7.83774602,3.51323803 Z M6.756619,2.43211104 C6.756619,1.78343084 7.2971725,1.35098404 7.83774602,1.35098402 L12.162254,1.35098402 C12.7028275,1.35098402 13.243381,1.78343082 13.243381,2.43211104 L13.243381,3.51323803 C13.243381,4.16191822 12.7028275,4.59436502 12.162254,4.59436502 L7.83774602,4.59436502 C7.29719252,4.59436502 6.75661902,4.16191822 6.756619,3.51323803 L6.756619,2.43211104 Z M11.6834986,11.1395674 C12.1453455,10.6967476 12.4329305,10.0736101 12.4329305,9.38325814 C12.4329305,8.03958916 11.343669,6.95032768 10,6.95032768 C8.65633102,6.95032768 7.56706953,8.03958916 7.56706953,9.38325814 C7.56706953,10.0736101 7.85465455,10.6967476 8.31650141,11.1395674 C7.1203324,11.7521521 6.30164748,12.9971879 6.30164748,14.4334141 L7.38277447,14.4334141 C7.38277447,12.9879542 8.55454002,11.8161886 10,11.8161886 C11.44546,11.8161887 12.6172255,12.9879542 12.6172255,14.4334141 L13.6983525,14.4334141 C13.6983525,12.9971879 12.8796676,11.752152 11.6834986,11.1395674 Z M8.64819652,9.38325814 C8.64819652,8.63668432 9.25342617,8.03145467 10,8.03145467 C10.7465738,8.03145467 11.3518035,8.63668432 11.3518035,9.38325814 C11.3518035,10.129832 10.7465738,10.7350616 10,10.7350616 C9.25342617,10.7350616 8.64819652,10.129832 8.64819652,9.38325814 Z" id="形状" stroke="#247BD8" stroke-width="0.2" fill="#247BD8" fill-rule="nonzero"></path>
            </g>
        </g>
    </g>
</svg>