<?xml version="1.0" encoding="UTF-8"?>
<svg width="16px" height="16px" viewBox="0 0 16 16" version="1.1" xmlns="http://www.w3.org/2000/svg" xmlns:xlink="http://www.w3.org/1999/xlink">
    <!-- Generator: Sketch 52.3 (67297) - http://www.bohemiancoding.com/sketch -->
    <title>ic_sg_customer account</title>
    <desc>Created with Sketch.</desc>
    <g id="Page-1" stroke="none" stroke-width="1" fill="none" fill-rule="evenodd">
        <g id="统计图表" transform="translate(-684.398438, -125.000000)">
            <g id="ic_sg_customer-account" transform="translate(682.398438, 123.000000)">
                <rect id="矩形" fill="#000000" opacity="0" x="0" y="0" width="20" height="20"></rect>
                <g id="分组-2" transform="translate(2.352941, 2.352941)">
                    <path d="M10.1119026,1.12362132 C8.43807445,1.12362132 7.07869945,2.48690257 7.07869945,4.1607307 C7.07869945,5.83455882 8.44002757,7.19784007 10.1119026,7.19784007 C11.7837776,7.19784007 13.1451057,5.83455882 13.1451057,4.1607307 C13.1451057,2.48690257 11.7837776,1.12362132 10.1119026,1.12362132 Z" id="路径" fill="#E3F2FD" fill-rule="nonzero"></path>
                    <path d="M10.1119026,8.17440257 C7.90096507,8.17440257 6.10213695,6.37362132 6.10213695,4.1607307 C6.10213695,1.94784007 7.89901195,0.147058824 10.1119026,0.147058824 C12.3247932,0.147058824 14.1216682,1.94784007 14.1216682,4.1607307 C14.1216682,6.37362132 12.3228401,8.17440257 10.1119026,8.17440257 Z M10.1119026,1.12362132 C8.43807445,1.12362132 7.07869945,2.48690257 7.07869945,4.1607307 C7.07869945,5.83455882 8.44002757,7.19784007 10.1119026,7.19784007 C11.7837776,7.19784007 13.1451057,5.83455882 13.1451057,4.1607307 C13.1451057,2.48690257 11.7837776,1.12362132 10.1119026,1.12362132 Z" id="形状" stroke="#247BD8" stroke-width="0.3" fill="#247BD8" fill-rule="nonzero"></path>
                    <path d="M3.8247932,15.1119026 L2.8482307,15.1119026 C2.8482307,14.0494026 3.03768382,13.0181526 3.41268382,12.0474494 C3.77596507,11.1060432 4.29549632,10.2622932 4.95955882,9.5357307 C5.62557445,8.80526195 6.4029182,8.23299632 7.26815257,7.83065257 C8.1685432,7.41268382 9.12362132,7.20174632 10.1099494,7.20174632 L10.1099494,8.17830882 C8.44002757,8.17830882 6.86580882,8.89315257 5.68026195,10.1939338 C4.48494945,11.5044807 3.8247932,13.2525276 3.8247932,15.1119026 Z M5.71737132,8.13338695 C4.94393382,7.97518382 4.2388557,7.54940257 3.73299632,6.93807445 C3.22127757,6.3169807 2.93807445,5.52987132 2.93807445,4.7232307 C2.93807445,3.91659007 3.21932445,3.1294807 3.73299632,2.50838695 C4.2388557,1.8951057 4.9419807,1.47127757 5.7154182,1.31307445 L5.9107307,2.2701057 C4.75643382,2.50643382 3.91659007,3.53768382 3.91659007,4.7232307 C3.91659007,5.90877757 4.75643382,6.94002757 5.91463695,7.1763557 L5.71737132,8.13338695 Z M5.91463695,2.2701057 L5.71932445,1.31307445 C5.94784007,1.26619945 6.1841682,1.24276195 6.42049632,1.24276195 L6.42049632,2.21932445 C6.24862132,2.21932445 6.07869945,2.23494945 5.91463695,2.2701057 Z" id="形状" stroke="#247BD8" stroke-width="0.3" fill="#247BD8" fill-rule="nonzero"></path>
                    <path d="M1.15682445,14.0181526 L0.180261949,14.0181526 C0.180261949,12.1841682 0.729090074,10.4849494 1.72518382,9.23299632 C2.2388557,8.58846507 2.85213695,8.0826057 3.54744945,7.73299632 C4.2779182,7.3638557 5.08065257,7.17830882 5.92830882,7.17830882 L5.92830882,8.15487132 C5.23299632,8.15487132 4.58065257,8.30721507 3.98690257,8.6060432 C3.4185432,8.89315257 2.91463695,9.3091682 2.4888557,9.84237132 C1.6294807,10.9204963 1.15682445,12.4048713 1.15682445,14.0181526 Z" id="路径" stroke="#247BD8" stroke-width="0.3" fill="#247BD8"></path>
                    <polygon id="路径" stroke="#247BD8" stroke-width="0.3" fill="#247BD8" points="9.56307445 11.2017463 13.4693244 11.2017463 13.4693244 12.1783088 9.56307445 12.1783088"></polygon>
                    <polygon id="路径" stroke="#247BD8" stroke-width="0.3" fill="#247BD8" points="7.9029182 14.1314338 15.1294807 14.1314338 15.1294807 15.1079963 7.9029182 15.1079963"></polygon>
                </g>
            </g>
        </g>
    </g>
</svg>