<?xml version="1.0" encoding="UTF-8"?>
<svg width="18px" height="19px" viewBox="0 0 18 19" version="1.1" xmlns="http://www.w3.org/2000/svg" xmlns:xlink="http://www.w3.org/1999/xlink">
    <!-- Generator: Sketch 52.3 (67297) - http://www.bohemiancoding.com/sketch -->
    <title>ic_summary graph</title>
    <desc>Created with Sketch.</desc>
    <g id="Page-1" stroke="none" stroke-width="1" fill="none" fill-rule="evenodd">
        <g id="统计图表" transform="translate(-245.398438, -124.000000)" fill-rule="nonzero">
            <g id="ic_summary-graph" transform="translate(245.000000, 124.000000)">
                <path d="M11.3843143,1.82258274 C14.2364218,2.34832391 16.4898218,4.60233064 17.0162017,7.4541508 L11.3843143,7.4541508 L11.3843143,1.82258274 Z" id="路径" fill="#E3F2FD"></path>
                <path d="M8.82969242,1.70625164 C4.24373108,1.70625164 0.527171415,5.42341803 0.527171415,10.0087727 C0.527171415,14.5941273 4.24373108,18.3112937 8.82969242,18.3112937 C13.415047,18.3112937 17.1322134,14.5941273 17.1322134,10.0087727 L8.82969242,10.0087727 L8.82969242,1.70625164 Z M15.7388907,11.2860836 C15.1364151,14.5523273 12.267447,17.0339827 8.82969242,17.0339827 C4.95595965,17.0339827 1.80448234,13.8825054 1.80448234,10.0087727 C1.80448234,6.57101803 4.28613781,3.70204997 7.55238149,3.09989366 L7.55238149,10.0087727 L7.55238149,11.2860836 L8.82969242,11.2860836 L15.7388907,11.2860836 Z M10.1070034,0.428940717 L10.1070034,8.73146172 L18.4095244,8.73146172 C18.4095244,4.14610711 14.692358,0.428940717 10.1070034,0.428940717 Z M11.3843143,1.82258274 C14.2364218,2.34832391 16.4898218,4.60233064 17.0162017,7.4541508 L11.3843143,7.4541508 L11.3843143,1.82258274 Z" id="形状" fill="#247BD8"></path>
                <path d="M10.7188793,1.08906465 C10.7188793,1.08906465 10.7188793,3.38045487 10.7188793,7.96323529 C10.7188793,3.38045487 10.7188793,1.08906465 10.7188793,1.08906465 Z" id="路径-2" fill="#D8D8D8"></path>
            </g>
        </g>
    </g>
</svg>