<?xml version="1.0" encoding="UTF-8"?>
<svg width="24px" height="24px" viewBox="0 0 24 24" version="1.1" xmlns="http://www.w3.org/2000/svg" xmlns:xlink="http://www.w3.org/1999/xlink">
    <!-- Generator: Sketch 56.2 (81672) - https://sketch.com -->
    <title>ic_business details</title>
    <desc>Created with Sketch.</desc>
    <g id="页面1" stroke="none" stroke-width="1" fill="none" fill-rule="evenodd">
        <g id="对外门户系统供应商-业务查询-" transform="translate(-608.000000, -178.000000)" fill-rule="nonzero">
            <g id="ic_business-details" transform="translate(608.000000, 178.000000)">
                <circle id="椭圆形" fill="#FEB26A" cx="12" cy="12" r="12"></circle>
                <path d="M14.6771159,17.2769364 C14.9729709,17.2769364 15.2125434,17.0450896 15.2125434,16.7593582 L15.2125434,15.7242345 C15.2125434,15.4383187 14.9729601,15.2065045 14.6771159,15.2065045 C14.38125,15.2065045 14.1416667,15.4383296 14.1416667,15.7242345 L14.1416667,16.7593691 C14.1416884,17.0451004 14.3812717,17.2769364 14.6771159,17.2769364 L14.6771159,17.2769364 Z M9.32286241,17.2769364 C9.6187283,17.2769364 9.85830078,17.0450896 9.85830078,16.7593582 L9.85830078,15.7242345 C9.85830078,15.4383187 9.6187283,15.2065045 9.32286241,15.2065045 C9.02700738,15.2065045 8.78744575,15.4383296 8.78744575,15.7242345 L8.78744575,16.7593691 C8.7874566,17.0451004 9.02702908,17.2769364 9.32286241,17.2769364 L9.32286241,17.2769364 Z" id="形状" fill="#FFFFFF"></path>
                <path d="M16.6402127,7.51450738 L15.7479601,7.51450738 L15.7479601,8.0320638 C15.7479601,8.60354818 15.2684896,9.06722005 14.6771267,9.06722005 C14.0857639,9.06722005 13.6063043,8.60354818 13.6063043,8.0320638 L13.6063043,7.51450738 L13.0351562,7.51450738 C13.0351562,7.50238715 12.5913628,7.51450738 12,7.51450738 C11.4086372,7.51450738 10.9648655,7.51988932 10.9648655,7.51450738 L10.3936957,7.51450738 L10.3936957,8.0320638 C10.3936957,8.60354818 9.91457248,9.06722005 9.32286241,9.06722005 C8.73151042,9.06722005 8.25202908,8.60354818 8.25202908,8.0320638 L8.25202908,7.51450738 L7.35977648,7.51450738 C7.06392144,7.51450738 6.82433811,7.74635417 6.82433811,8.0320638 L6.82433811,17.003201 C6.82433811,17.2889323 7.06392144,17.5207682 7.35977648,17.5207682 L16.6402344,17.5207682 C16.9360894,17.5207682 17.1756619,17.2889323 17.1756619,17.0031901 L17.1756619,8.03207465 C17.1756619,7.74636502 16.9360569,7.51451823 16.6402127,7.51451823 L16.6402127,7.51450738 Z M14.3200629,15.7955187 L9.67991536,15.7955187 C9.46634115,15.7955187 9.29315321,15.6223199 9.29315321,15.408865 C9.29315321,15.1952799 9.46634115,15.0220812 9.67991536,15.0220812 L14.3200521,15.0220812 C14.533648,15.0220812 14.7068359,15.1952799 14.7068359,15.408865 C14.7068359,15.6223199 14.5336589,15.7955187 14.3200629,15.7955187 Z M14.3200629,13.796875 L9.67991536,13.796875 C9.46634115,13.796875 9.29315321,13.6236762 9.29315321,13.4102214 C9.29315321,13.1966363 9.46634115,13.0234375 9.67991536,13.0234375 L14.3200521,13.0234375 C14.533648,13.0234375 14.7068359,13.1966363 14.7068359,13.4102214 C14.7068359,13.6236762 14.5336589,13.796875 14.3200629,13.796875 Z M14.3200629,11.7982205 L9.67991536,11.7982205 C9.46634115,11.7982205 9.29315321,11.6250217 9.29315321,11.4115668 C9.29315321,11.1979926 9.46634115,11.0248047 9.67991536,11.0248047 L14.3200521,11.0248047 C14.533648,11.0248047 14.7068359,11.1979818 14.7068359,11.4115668 C14.7068359,11.6250326 14.5336589,11.7982205 14.3200629,11.7982205 Z" id="形状" fill="#FFFFFF"></path>
            </g>
        </g>
    </g>
</svg>