<?xml version="1.0" encoding="UTF-8"?>
<svg width="16px" height="18px" viewBox="0 0 16 18" version="1.1" xmlns="http://www.w3.org/2000/svg" xmlns:xlink="http://www.w3.org/1999/xlink">
    <!-- Generator: Sketch 52.3 (67297) - http://www.bohemiancoding.com/sketch -->
    <title>ic_repayment</title>
    <desc>Created with Sketch.</desc>
    <g id="Page-1" stroke="none" stroke-width="1" fill="none" fill-rule="evenodd">
        <g id="统计图表" transform="translate(-1214.398438, -125.000000)">
            <g id="ic_repayment" transform="translate(1215.398438, 126.000000)">
                <rect id="矩形" fill="#000000" opacity="0" x="0" y="-9.09494702e-13" width="16" height="16"></rect>
                <path d="M11.72,15.56 L14.4,12.88 C14.6,12.68 14.6,12.32 14.4,12.12 C14.2,11.92 13.88,11.92 13.64,12.12 L11.88,13.88 L11.88,8.8 C11.88,8.52 11.64,8.28 11.36,8.28 C11.08,8.28 10.8,8.52 10.8,8.8 L10.8,13.92 L9.04,12.16 C8.84,11.96 8.48,11.96 8.28,12.16 C8.08,12.36 8.08,12.72 8.28,12.92 L10.96,15.6 C11.16,15.8 11.52,15.8 11.72,15.56 Z M6.0046875,16 L2.3734375,16 C1.0640625,16 0,14.934375 0,13.625 L0,2.375 C0,1.065625 1.0640625,-9.09494702e-13 2.3734375,-9.09494702e-13 L12.15625,-9.09494702e-13 C13.465625,-9.09494702e-13 14.5296875,1.065625 14.5296875,2.375 L14.5296875,5 C14.5296875,5.2765625 14.30625,5.5 14.0296875,5.5 C13.753125,5.5 13.5296875,5.2765625 13.5296875,5 L13.5296875,2.375 C13.5296875,1.6171875 12.9140625,1 12.15625,1 L2.3734375,1 C1.615625,1 1,1.6171875 1,2.375 L1,13.625 C1,14.3828125 1.615625,15 2.3734375,15 L6.0046875,15 C6.28125,15 6.5046875,15.2234375 6.5046875,15.5 C6.5046875,15.7765625 6.2796875,16 6.0046875,16 Z M10.8415544,5.283125 L3.90874191,5.283125 C3.63374191,5.283125 3.40874191,5.058125 3.40874191,4.783125 C3.40874191,4.508125 3.63374191,4.283125 3.90874191,4.283125 L10.8399919,4.283125 C11.1149919,4.283125 11.3399919,4.508125 11.3399919,4.783125 C11.3415544,5.058125 11.1165544,5.283125 10.8415544,5.283125 Z M6.87749191,8.7675 L3.90874191,8.7675 C3.63374191,8.7675 3.40874191,8.5425 3.40874191,8.2675 C3.40874191,7.9925 3.63374191,7.7675 3.90874191,7.7675 L6.87749191,7.7675 C7.15249191,7.7675 7.37749191,7.9925 7.37749191,8.2675 C7.37749191,8.5425 7.15249191,8.7675 6.87749191,8.7675 Z M5.38530441,12.276875 L3.90874191,12.276875 C3.63374191,12.276875 3.40874191,12.051875 3.40874191,11.776875 C3.40874191,11.501875 3.63374191,11.276875 3.90874191,11.276875 L5.38530441,11.276875 C5.66030441,11.276875 5.88530441,11.501875 5.88530441,11.776875 C5.88530441,12.051875 5.66030441,12.276875 5.38530441,12.276875 Z" id="形状" stroke="#247BD8" stroke-width="0.3" fill="#247BD8" fill-rule="nonzero"></path>
            </g>
        </g>
    </g>
</svg>