<?xml version="1.0" encoding="UTF-8"?>
<svg width="16px" height="17px" viewBox="0 0 16 17" version="1.1" xmlns="http://www.w3.org/2000/svg" xmlns:xlink="http://www.w3.org/1999/xlink">
    <!-- Generator: Sketch 52.3 (67297) - http://www.bohemiancoding.com/sketch -->
    <title>ic_closed</title>
    <desc>Created with Sketch.</desc>
    <g id="Page-1" stroke="none" stroke-width="1" fill="none" fill-rule="evenodd">
        <g id="统计图表" transform="translate(-1317.398438, -125.000000)" fill="#247BD8" fill-rule="nonzero" stroke="#247BD8" stroke-width="0.3">
            <g id="ic_closed" transform="translate(1317.398438, 125.000000)">
                <path d="M10.7060908,16.3255316 C10.5680342,16.3187168 10.4320047,16.2628877 10.3271613,16.1580444 L8.69621333,14.5270964 C8.47194944,14.3028325 8.47194944,13.9358771 8.69621333,13.7116132 C8.92047723,13.4873493 9.28743267,13.4873493 9.51169656,13.7116132 L10.74267,14.9425866 L14.011436,11.6738205 C14.2356999,11.4495566 14.6026554,11.4495566 14.8269193,11.6738205 C15.0511832,11.8980659 15.0511832,12.2650398 14.8269193,12.4892852 L11.1572725,16.1589505 C11.0341468,16.2820762 10.8680103,16.3376033 10.7060908,16.3255316 Z M6.29960938,16.3271484 L2.66835938,16.3271484 C1.35898437,16.3271484 0.294921875,15.2615234 0.294921875,13.9521484 L0.294921875,2.70214844 C0.294921875,1.39277344 1.35898437,0.327148437 2.66835938,0.327148437 L12.4511719,0.327148437 C13.7605469,0.327148437 14.8246094,1.39277344 14.8246094,2.70214844 L14.8246094,5.32714844 C14.8246094,5.60371094 14.6011719,5.82714844 14.3246094,5.82714844 C14.0480469,5.82714844 13.8246094,5.60371094 13.8246094,5.32714844 L13.8246094,2.70214844 C13.8246094,1.94433594 13.2089844,1.32714844 12.4511719,1.32714844 L2.66835938,1.32714844 C1.91054688,1.32714844 1.29492188,1.94433594 1.29492188,2.70214844 L1.29492188,13.9521484 C1.29492188,14.7099609 1.91054688,15.3271484 2.66835938,15.3271484 L6.29960938,15.3271484 C6.57617188,15.3271484 6.79960938,15.5505859 6.79960938,15.8271484 C6.79960938,16.1037109 6.57460938,16.3271484 6.29960938,16.3271484 Z M11.1364763,5.61027344 L4.20366379,5.61027344 C3.92866379,5.61027344 3.70366379,5.38527344 3.70366379,5.11027344 C3.70366379,4.83527344 3.92866379,4.61027344 4.20366379,4.61027344 L11.1349138,4.61027344 C11.4099138,4.61027344 11.6349138,4.83527344 11.6349138,5.11027344 C11.6364763,5.38527344 11.4114763,5.61027344 11.1364763,5.61027344 Z M11.0269491,8.82714844 L4.09413658,8.82714844 C3.81913658,8.82714844 3.59413658,8.60214844 3.59413658,8.32714844 C3.59413658,8.05214844 3.81913658,7.82714844 4.09413658,7.82714844 L11.0253866,7.82714844 C11.3003866,7.82714844 11.5253866,8.05214844 11.5253866,8.32714844 C11.5269491,8.60214844 11.3019491,8.82714844 11.0269491,8.82714844 Z M5.68022629,12.6040234 L4.20366379,12.6040234 C3.92866379,12.6040234 3.70366379,12.3790234 3.70366379,12.1040234 C3.70366379,11.8290234 3.92866379,11.6040234 4.20366379,11.6040234 L5.68022629,11.6040234 C5.95522629,11.6040234 6.18022629,11.8290234 6.18022629,12.1040234 C6.18022629,12.3790234 5.95522629,12.6040234 5.68022629,12.6040234 Z" id="形状-copy-2"></path>
            </g>
        </g>
    </g>
</svg>