<?xml version="1.0" encoding="UTF-8"?>
<svg width="18px" height="18px" viewBox="0 0 18 18" version="1.1" xmlns="http://www.w3.org/2000/svg" xmlns:xlink="http://www.w3.org/1999/xlink">
    <!-- Generator: Sketch 52.3 (67297) - http://www.bohemiancoding.com/sketch -->
    <title>ic_sg_repayment information</title>
    <desc>Created with Sketch.</desc>
    <g id="Page-1" stroke="none" stroke-width="1" fill="none" fill-rule="evenodd">
        <g id="统计图表" transform="translate(-1094.398438, -124.000000)">
            <g id="ic_sg_repayment-information" transform="translate(1095.398438, 125.000000)">
                <rect id="矩形" fill="#000000" opacity="0" x="0" y="0" width="16" height="16"></rect>
                <path d="M11.753125,8.5 C12.6203125,8.5 13.4359375,8.8375 14.0484375,9.4515625 C14.6625,10.065625 15,10.88125 15,11.75 C15,12.61875 14.6625,13.4328125 14.0484375,14.046875 C13.4359375,14.6609375 12.6203125,14.9984375 11.753125,14.9984375 C10.8859375,14.9984375 10.0703125,14.6609375 9.4578125,14.046875 C8.84375,13.4328125 8.50625,12.6171875 8.50625,11.7484375 C8.50625,10.8796875 8.84375,10.0640625 9.4578125,9.45 C10.0703125,8.8375 10.8859375,8.5 11.753125,8.5 Z" id="路径" fill="#E3F2FD"></path>
                <path d="M10.965625,5.003125 L4.0328125,5.003125 C3.7578125,5.003125 3.5328125,4.778125 3.5328125,4.503125 C3.5328125,4.228125 3.7578125,4.003125 4.0328125,4.003125 L10.9640625,4.003125 C11.2390625,4.003125 11.4640625,4.228125 11.4640625,4.503125 C11.465625,4.778125 11.240625,5.003125 10.965625,5.003125 Z M7.0015625,8.4875 L4.0328125,8.4875 C3.7578125,8.4875 3.5328125,8.2625 3.5328125,7.9875 C3.5328125,7.7125 3.7578125,7.4875 4.0328125,7.4875 L7.0015625,7.4875 C7.2765625,7.4875 7.5015625,7.7125 7.5015625,7.9875 C7.5015625,8.2625 7.2765625,8.4875 7.0015625,8.4875 Z M5.509375,11.996875 L4.0328125,11.996875 C3.7578125,11.996875 3.5328125,11.771875 3.5328125,11.496875 C3.5328125,11.221875 3.7578125,10.996875 4.0328125,10.996875 L5.509375,10.996875 C5.784375,10.996875 6.009375,11.221875 6.009375,11.496875 C6.009375,11.771875 5.784375,11.996875 5.509375,11.996875 Z M11.753125,8.5 C12.6203125,8.5 13.4359375,8.8375 14.0484375,9.4515625 C14.6625,10.065625 15,10.88125 15,11.75 C15,12.61875 14.6625,13.4328125 14.0484375,14.046875 C13.4359375,14.6609375 12.6203125,14.9984375 11.753125,14.9984375 C10.8859375,14.9984375 10.0703125,14.6609375 9.4578125,14.046875 C8.84375,13.4328125 8.50625,12.6171875 8.50625,11.7484375 C8.50625,10.8796875 8.84375,10.0640625 9.4578125,9.45 C10.0703125,8.8375 10.8859375,8.5 11.753125,8.5 Z M11.753125,7.5 C9.4078125,7.5 7.50625,9.403125 7.50625,11.75 C7.50625,14.096875 9.4078125,16 11.753125,16 C14.0984375,16 16,14.096875 16,11.75 C16,9.403125 14.0984375,7.5 11.753125,7.5 Z" id="形状" stroke="#247BD8" stroke-width="0.3" fill="#247BD8" fill-rule="nonzero"></path>
                <path d="M13.496875,11.478125 L11.5,11.478125 C11.225,11.478125 11,11.703125 11,11.978125 C11,12.253125 11.225,12.478125 11.5,12.478125 L13.4984375,12.478125 C13.7734375,12.478125 13.9984375,12.253125 13.9984375,11.978125 C13.9984375,11.703125 13.771875,11.478125 13.496875,11.478125 Z" id="路径" stroke="#247BD8" stroke-width="0.2" fill="#247BD8"></path>
                <path d="M11.5,9.478125 C11.225,9.478125 11,9.703125 11,9.978125 L11,11.978125 C11,12.253125 11.225,12.478125 11.5,12.478125 C11.775,12.478125 12,12.253125 12,11.978125 L12,9.978125 C12,9.703125 11.775,9.478125 11.5,9.478125 Z" id="路径" stroke="#247BD8" stroke-width="0.2" fill="#247BD8"></path>
                <path d="M6.0046875,16 L2.3734375,16 C1.0640625,16 0,14.934375 0,13.625 L0,2.375 C0,1.065625 1.0640625,-4.54747351e-13 2.3734375,-4.54747351e-13 L12.15625,-4.54747351e-13 C13.465625,-4.54747351e-13 14.5296875,1.065625 14.5296875,2.375 L14.5296875,5 C14.5296875,5.2765625 14.30625,5.5 14.0296875,5.5 C13.753125,5.5 13.5296875,5.2765625 13.5296875,5 L13.5296875,2.375 C13.5296875,1.6171875 12.9140625,1 12.15625,1 L2.3734375,1 C1.615625,1 1,1.6171875 1,2.375 L1,13.625 C1,14.3828125 1.615625,15 2.3734375,15 L6.0046875,15 C6.28125,15 6.5046875,15.2234375 6.5046875,15.5 C6.5046875,15.7765625 6.2796875,16 6.0046875,16 Z" id="路径" stroke="#247BD8" stroke-width="0.2" fill="#247BD8" fill-rule="nonzero"></path>
            </g>
        </g>
    </g>
</svg>