<?xml version="1.0" encoding="UTF-8"?>
<svg width="16px" height="17px" viewBox="0 0 16 17" version="1.1" xmlns="http://www.w3.org/2000/svg" xmlns:xlink="http://www.w3.org/1999/xlink">
    <!-- Generator: Sketch 52.3 (67297) - http://www.bohemiancoding.com/sketch -->
    <title>ic_upcoming</title>
    <desc>Created with Sketch.</desc>
    <g id="Page-1" stroke="none" stroke-width="1" fill="none" fill-rule="evenodd">
        <g id="待办事项" transform="translate(-231.000000, -139.000000)" fill-rule="nonzero">
            <g id="表格" transform="translate(210.000000, 125.000000)">
                <g id="ic_upcoming" transform="translate(21.000000, 14.000000)">
                    <polygon id="路径-4" fill="#E3F2FD" points="2.18106618 8.47058824 14.1176471 8.47058824 14.1176471 15.0754825 2.18106618 15.0754825"></polygon>
                    <path d="M10.5764268,11.0708132 L5.37030155,11.0708132 L5.37030155,12.3818885 L10.5764268,12.3818885 L10.5764268,11.0708132 Z M10.5764268,8.2239691 L5.37030155,8.2239691 L5.37030155,9.53722592 L10.5764268,9.53722592 L10.5764268,8.2239691 Z M8.61308602,5.40984736 L5.37030155,5.40984736 L5.37030155,6.72092268 L8.61308602,6.72092268 L8.61308602,5.40984736 Z M2.22009642,1.58750925 L2.14784612,14.8604289 L13.6541298,14.8604289 L13.7263801,8.11410167 L15.019767,8.11410167 L15.019767,14.8604289 C15.0185175,15.5228817 14.4398955,16.0593634 13.7263801,16.0596202 L2.22009642,16.0596202 C1.50662198,16.0593631 0.928072173,15.5228439 0.926961338,14.8604289 L0.926961338,1.58750925 C0.928072183,0.925094312 1.50662199,0.388575071 2.22009642,0.388318027 L9.73291917,0.388318027 L9.73291917,1.58750925 L2.22009642,1.58750925 Z M15.4587779,2.99613978 L13.4976186,1.02625457 C13.4487949,0.960633564 13.3660897,0.92965291 13.2861691,0.947047397 C13.2062484,0.964441883 13.1439002,1.026993 13.1267653,1.10696969 L12.8595329,1.82686129 C12.7699216,2.03321987 12.617164,2.20583602 12.4232349,2.31987797 L9.93633663,3.60695691 C9.85749825,3.63877053 9.80109296,3.70956627 9.78769619,3.79351937 C9.77429941,3.87747247 9.8058701,3.96230693 9.87089194,4.01707697 L10.7609398,4.91148776 L9.30239572,7.01008087 L11.4559624,5.60956447 L12.4788629,6.63704613 C12.5348801,6.70227707 12.6201026,6.73472902 12.7053194,6.7232787 C12.7905362,6.71182839 12.8641697,6.65803145 12.9009812,6.5803274 L14.26703,4.17414424 C14.3890904,3.98157924 14.5573711,3.82259748 14.7565563,3.71166841 L15.391588,3.39971538 C15.4705891,3.37007414 15.5277848,3.30054965 15.541642,3.21731645 C15.5554992,3.13408324 15.5239141,3.04977796 15.4587779,2.99613978 Z" fill="#247BD8"></path>
                </g>
            </g>
        </g>
    </g>
</svg>